<svg width="39" height="50" viewBox="0 0 39 50" fill="none" xmlns="http://www.w3.org/2000/svg">
<path d="M20.6124 21.1322H20.3934V15.286C20.3934 14.7326 19.9441 14.2842 19.3897 14.2842C18.8352 14.2842 18.3859 14.7326 18.3859 15.286V21.1322H18.1669C18.0105 21.1322 17.8828 21.2584 17.8828 21.4158V29.8715C17.8828 30.0277 18.0092 30.1551 18.1669 30.1551H20.6124C20.7688 30.1551 20.8965 30.0289 20.8965 29.8715V21.4158C20.8965 21.2596 20.7701 21.1322 20.6124 21.1322Z" fill="url(#paint0_linear_127_2264)"/>
<path d="M28.5829 42.7017C28.0798 42.7017 27.6042 42.8116 27.1737 43.0052V30.1561H27.3927C27.5492 30.1561 27.6768 30.0299 27.6768 29.8725V21.4168C27.6768 21.2606 27.5504 21.1332 27.3927 21.1332H27.1737V14.5363C27.1737 10.2528 23.6819 6.76758 19.3904 6.76758C15.0989 6.76758 11.6072 10.2528 11.6072 14.5363V21.1332H11.3881C11.2317 21.1332 11.104 21.2594 11.104 21.4168V29.8725C11.104 30.0287 11.2304 30.1561 11.3881 30.1561H11.6072V43.0052C11.1779 42.8129 10.7023 42.7029 10.1992 42.7029C8.31187 42.7029 6.78125 44.2182 6.78125 46.0857C6.78125 47.9545 8.31187 49.4685 10.1992 49.4685C12.0865 49.4685 13.6171 47.9533 13.6171 46.0857C13.6171 46.0745 13.6159 46.0645 13.6159 46.0532V30.1561H13.8349C13.9913 30.1561 14.119 30.0299 14.119 29.8725V21.4168C14.119 21.2606 13.9926 21.1332 13.8349 21.1332H13.6159V14.5363C13.6159 11.3583 16.2065 8.77252 19.3904 8.77252C22.5743 8.77252 25.165 11.3583 25.165 14.5363V21.1332H24.946C24.7895 21.1332 24.6619 21.2594 24.6619 21.4168V29.8725C24.6619 30.0287 24.7883 30.1561 24.946 30.1561H25.165V46.0732C25.165 46.077 25.165 46.0807 25.165 46.0857C25.165 47.9545 26.6956 49.4685 28.5829 49.4685C30.4703 49.4685 32.0009 47.9533 32.0009 46.0857C32.0021 44.2169 30.4715 42.7017 28.5829 42.7017Z" fill="url(#paint1_linear_127_2264)"/>
<path d="M35.3621 35.9329C34.8589 35.9329 34.3834 36.0428 33.9528 36.2364V14.5355C33.9528 6.52075 27.4198 0 19.39 0C11.3602 0 4.82716 6.52075 4.82716 14.5355V36.2352C4.39663 36.0415 3.92105 35.9316 3.41794 35.9316C1.53062 35.9316 0 37.4469 0 39.3144C0 41.1819 1.53062 42.6972 3.41794 42.6972C5.30525 42.6972 6.83587 41.1819 6.83587 39.3144C6.83587 39.3106 6.83587 39.3082 6.83587 39.3044V14.5343C6.83587 7.62503 12.4678 2.0037 19.39 2.0037C26.3122 2.0037 31.9441 7.62503 31.9441 14.5343V39.3007C31.9441 39.3057 31.9429 39.3094 31.9429 39.3144C31.9429 41.1832 33.4735 42.6972 35.3608 42.6972C37.2481 42.6972 38.7787 41.1819 38.7787 39.3144C38.7787 37.4469 37.2494 35.9329 35.3621 35.9329Z" fill="url(#paint2_linear_127_2264)"/>
<defs>
<linearGradient id="paint0_linear_127_2264" x1="19.3901" y1="50.535" x2="19.3901" y2="1.60262" gradientUnits="userSpaceOnUse">
<stop stop-color="#AC06D9"/>
<stop offset="0.5" stop-color="#0067C4"/>
<stop offset="0.5769" stop-color="#0370C9"/>
<stop offset="0.7029" stop-color="#0B89D5"/>
<stop offset="0.8614" stop-color="#19B1E9"/>
<stop offset="1" stop-color="#26D9FE"/>
</linearGradient>
<linearGradient id="paint1_linear_127_2264" x1="19.3914" y1="50.536" x2="19.3914" y2="1.60363" gradientUnits="userSpaceOnUse">
<stop stop-color="#AC06D9"/>
<stop offset="0.5" stop-color="#0067C4"/>
<stop offset="0.5769" stop-color="#0370C9"/>
<stop offset="0.7029" stop-color="#0B89D5"/>
<stop offset="0.8614" stop-color="#19B1E9"/>
<stop offset="1" stop-color="#26D9FE"/>
</linearGradient>
<linearGradient id="paint2_linear_127_2264" x1="19.3902" y1="50.5353" x2="19.3902" y2="1.60289" gradientUnits="userSpaceOnUse">
<stop stop-color="#AC06D9"/>
<stop offset="0.5" stop-color="#0067C4"/>
<stop offset="0.5769" stop-color="#0370C9"/>
<stop offset="0.7029" stop-color="#0B89D5"/>
<stop offset="0.8614" stop-color="#19B1E9"/>
<stop offset="1" stop-color="#26D9FE"/>
</linearGradient>
</defs>
</svg>
