<svg width="114" height="130" viewBox="0 0 114 130" fill="none" xmlns="http://www.w3.org/2000/svg">
<g style="mix-blend-mode:hard-light" filter="url(#filter0_f_1010_5319)">
<ellipse cx="57" cy="65" rx="42" ry="50" fill="#FF0000" fill-opacity="0.08"/>
</g>
<g style="mix-blend-mode:hard-light" filter="url(#filter1_f_1010_5319)">
<path d="M45.7695 46.9121L47.5289 48.0317L47.5364 48.0199L47.5438 48.008L45.7695 46.9121ZM42.5469 55.3105L40.5129 54.85L40.5088 54.8684L40.505 54.8868L42.5469 55.3105ZM41.375 68.0059L39.2898 67.9788L39.2894 68.0094L39.2899 68.04L41.375 68.0059ZM44.207 86.3652L46.0943 87.2524L46.4909 86.4089L46.1268 85.5508L44.207 86.3652ZM38.8359 97.791L37.3456 99.2497L39.4458 101.396L40.7232 98.6782L38.8359 97.791ZM31.9023 85.877L29.9213 86.5286L29.9239 86.5364L31.9023 85.877ZM31.3164 52.0879L29.3091 51.5225L29.3064 51.532L29.3038 51.5416L31.3164 52.0879ZM36.7852 40.5645L35.1466 39.2745L35.138 39.2854L35.1296 39.2964L36.7852 40.5645ZM45.4766 33.6309L46.3505 35.5243L46.3584 35.5207L46.3662 35.517L45.4766 33.6309ZM68.8164 33.7285L70.7051 34.6126L71.5667 32.7721L69.749 31.8633L68.8164 33.7285ZM64.5195 42.9082L63.3999 44.6676L65.4022 45.9417L66.4083 43.7923L64.5195 42.9082ZM74.8711 37.9277L76.2984 36.4073L74.2125 34.4491L72.9868 37.0343L74.8711 37.9277ZM82.0977 49.9395L80.1142 50.5834L80.1179 50.5951L80.1218 50.6066L82.0977 49.9395ZM82.6836 84.0215L80.6763 83.456L80.6726 83.4692L80.6691 83.4824L82.6836 84.0215ZM44.6953 102.088L42.8106 101.195L41.943 103.027L43.7492 103.946L44.6953 102.088ZM49.0898 92.8105L50.399 91.1872L48.3384 89.5255L47.2052 91.9178L49.0898 92.8105ZM63.25 93.8848L64.1319 95.7745L64.1452 95.7683L64.1583 95.762L63.25 93.8848ZM71.4531 80.7988L69.4174 80.3464L69.4142 80.3607L69.4112 80.375L71.4531 80.7988ZM72.7227 68.0059L74.8079 68.0329L74.8083 68.0029L74.8078 67.9728L72.7227 68.0059ZM71.8438 57.2637L69.7879 57.6136L71.8438 57.2637ZM69.5977 49.4512L71.4961 48.5882L71.3397 48.244L71.0723 47.9766L69.5977 49.4512ZM69.5 49.2559L67.6157 48.3624L67.4146 48.7865V49.2559H69.5ZM57.293 38.772C54.6155 38.772 52.1283 39.2801 49.8681 40.3348L51.6319 44.1144C53.278 43.3462 55.1528 42.9428 57.293 42.9428V38.772ZM49.8681 40.3348C47.4762 41.4511 45.5314 43.3292 43.9953 45.8162L47.5438 48.008C48.7421 46.0679 50.1175 44.8211 51.6319 44.1144L49.8681 40.3348ZM44.0101 45.7925C42.4749 48.2051 41.3281 51.2499 40.5129 54.85L44.5808 55.7711C45.3282 52.4702 46.3298 49.916 47.5289 48.0317L44.0101 45.7925ZM40.505 54.8868C39.753 58.5097 39.3559 62.8834 39.2898 67.9788L43.4602 68.0329C43.5243 63.1023 43.9084 59.0125 44.5888 55.7343L40.505 54.8868ZM39.2899 68.04C39.3561 72.0786 39.6212 75.6885 40.0936 78.8599L44.2189 78.2455C43.7798 75.2972 43.5241 71.8758 43.4601 67.9717L39.2899 68.04ZM40.0936 78.8599C40.5674 82.0414 41.2887 84.8261 42.2872 87.1797L46.1268 85.5508C45.3024 83.6075 44.6565 81.1839 44.2189 78.2455L40.0936 78.8599ZM42.3197 85.478L36.9486 96.9038L40.7232 98.6782L46.0943 87.2524L42.3197 85.478ZM40.3263 96.3323C37.5929 93.5395 35.4283 89.8602 33.8807 85.2175L29.9239 86.5364C31.6316 91.6593 34.0893 95.9227 37.3456 99.2497L40.3263 96.3323ZM33.8833 85.2253C32.3438 80.5451 31.5464 74.8204 31.5464 68.0059H27.3755C27.3755 75.1236 28.2057 81.313 29.9214 86.5286L33.8833 85.2253ZM31.5464 68.0059C31.5464 62.0866 32.1517 56.9715 33.329 52.6342L29.3038 51.5416C28.0071 56.3188 27.3755 61.8157 27.3755 68.0059H31.5464ZM33.3237 52.6533C34.5711 48.225 36.2919 44.638 38.4407 41.8325L35.1296 39.2964C32.591 42.6107 30.6658 46.706 29.3091 51.5225L33.3237 52.6533ZM38.4237 41.8544C40.6383 39.0414 43.2774 36.9427 46.3505 35.5243L44.6027 31.7374C40.9049 33.4441 37.7498 35.9677 35.1466 39.2745L38.4237 41.8544ZM46.3662 35.517C49.5094 34.0343 53.042 33.2749 57 33.2749V29.104C52.4945 29.104 48.3448 29.9722 44.5869 31.7447L46.3662 35.517ZM57 33.2749C61.2285 33.2749 64.8373 34.0705 67.8838 35.5938L69.749 31.8633C66.0247 30.0011 61.7559 29.104 57 29.104V33.2749ZM66.9277 32.8444L62.6308 42.0241L66.4083 43.7923L70.7051 34.6126L66.9277 32.8444ZM65.6391 41.1488C63.1396 39.5582 60.3388 38.772 57.293 38.772V42.9428C59.5857 42.9428 61.6026 43.5239 63.3999 44.6676L65.6391 41.1488ZM73.4438 39.4482C76.33 42.1577 78.573 45.8367 80.1142 50.5834L84.0811 49.2955C82.3671 44.0162 79.7924 39.6874 76.2984 36.4073L73.4438 39.4482ZM80.1218 50.6066C81.7225 55.3471 82.5513 61.1315 82.5513 68.0059H86.7221C86.7221 60.8177 85.8582 54.5578 84.0735 49.2723L80.1218 50.6066ZM82.5513 68.0059C82.5513 73.9167 81.9151 79.0582 80.6763 83.456L84.6909 84.5869C86.0562 79.7399 86.7221 74.2044 86.7221 68.0059H82.5513ZM80.6691 83.4824C79.4889 87.8924 77.775 91.4619 75.5763 94.255L78.8534 96.8349C81.4723 93.5081 83.4043 89.3954 84.6981 84.5606L80.6691 83.4824ZM75.5763 94.255C73.3617 97.068 70.7226 99.1667 67.6495 100.585L69.3973 104.372C73.0951 102.665 76.2502 100.142 78.8534 96.8349L75.5763 94.255ZM67.6495 100.585C64.5769 102.003 61.041 102.737 57 102.737V106.908C61.5528 106.908 65.6992 106.079 69.3973 104.372L67.6495 100.585ZM57 102.737C52.6568 102.737 48.8878 101.882 45.6414 100.229L43.7492 103.946C47.6642 105.939 52.0984 106.908 57 106.908V102.737ZM46.58 102.981L50.9745 93.7033L47.2052 91.9178L42.8106 101.195L46.58 102.981ZM47.7807 94.4339C50.2339 96.4122 53.2603 97.3374 56.707 97.3374V93.1665C54.0339 93.1665 51.9822 92.4641 50.399 91.1872L47.7807 94.4339ZM56.707 97.3374C59.3845 97.3374 61.8717 96.8293 64.1319 95.7745L62.3681 91.995C60.722 92.7632 58.8472 93.1665 56.707 93.1665V97.3374ZM64.1583 95.762C66.5705 94.5948 68.5414 92.7465 70.0875 90.3169L66.5687 88.0777C65.3805 89.9449 63.9659 91.2216 62.3417 92.0076L64.1583 95.762ZM70.0875 90.3169C71.6313 87.8909 72.7459 84.8322 73.495 81.2226L69.4112 80.375C68.7281 83.6665 67.7593 86.2068 66.5687 88.0777L70.0875 90.3169ZM73.4889 81.2512C74.3106 77.5535 74.7416 73.1379 74.8079 68.0329L70.6374 67.9788C70.5735 72.8999 70.1582 77.0129 69.4174 80.3464L73.4889 81.2512ZM74.8078 67.9728C74.7415 63.7966 74.4429 60.1055 73.8996 56.9137L69.7879 57.6136C70.2863 60.5417 70.5736 64.012 70.6375 68.039L74.8078 67.9728ZM73.8996 56.9137C73.3575 53.7289 72.5661 50.9422 71.4961 48.5882L67.6992 50.3141C68.5823 52.257 69.2883 54.6786 69.7879 57.6136L73.8996 56.9137ZM71.0723 47.9766C71.2345 48.1388 71.5854 48.5728 71.5854 49.2559H67.4146C67.4146 50.0691 67.8306 50.6334 68.123 50.9258L71.0723 47.9766ZM71.3843 50.1493L76.7554 38.8212L72.9868 37.0343L67.6157 48.3624L71.3843 50.1493Z" fill="#FF5C00"/>
</g>
<g style="mix-blend-mode:hard-light" filter="url(#filter2_f_1010_5319)">
<path d="M45.7695 46.9121L48.0703 48.3762L48.0801 48.3608L48.0897 48.3452L45.7695 46.9121ZM42.5469 55.3105L39.8871 54.7083L39.8817 54.7323L39.8767 54.7564L42.5469 55.3105ZM41.375 68.0059L38.6481 67.9704L38.6476 68.0105L38.6483 68.0506L41.375 68.0059ZM44.207 86.3652L46.675 87.5254L47.1936 86.4223L46.7175 85.3002L44.207 86.3652ZM38.8359 97.791L36.887 99.6985L39.6335 102.505L41.3039 98.9512L38.8359 97.791ZM31.9023 85.877L29.3118 86.7291L29.3152 86.7393L31.9023 85.877ZM31.3164 52.0879L28.6915 51.3485L28.688 51.361L28.6845 51.3735L31.3164 52.0879ZM36.7852 40.5645L34.6424 38.8776L34.6312 38.8918L34.6202 38.9062L36.7852 40.5645ZM45.4766 33.6309L46.6194 36.1069L46.6297 36.1022L46.64 36.0973L45.4766 33.6309ZM68.8164 33.7285L71.2863 34.8846L72.4129 32.4778L70.036 31.2893L68.8164 33.7285ZM64.5195 42.9082L63.0554 45.2089L65.6737 46.8751L66.9894 44.0643L64.5195 42.9082ZM74.8711 37.9277L76.7376 35.9395L74.0099 33.3787L72.407 36.7594L74.8711 37.9277ZM82.0977 49.9395L79.5039 50.7816L79.5088 50.7968L79.5139 50.8119L82.0977 49.9395ZM82.6836 84.0215L80.0587 83.2821L80.0538 83.2993L80.0492 83.3165L82.6836 84.0215ZM44.6953 102.088L42.2307 100.92L41.0961 103.316L43.4581 104.518L44.6953 102.088ZM49.0898 92.8105L50.8018 90.6877L48.1072 88.5147L46.6253 91.6431L49.0898 92.8105ZM63.25 93.8848L64.4032 96.356L64.4206 96.3479L64.4378 96.3396L63.25 93.8848ZM71.4531 80.7988L68.791 80.2072L68.7868 80.2259L68.7829 80.2446L71.4531 80.7988ZM72.7227 68.0059L75.4495 68.0413L75.45 68.0019L75.4494 67.9626L72.7227 68.0059ZM71.8438 57.2637L69.1553 57.7213L71.8438 57.2637ZM69.5977 49.4512L72.0803 48.3227L71.8757 47.8725L71.526 47.5228L69.5977 49.4512ZM69.5 49.2559L67.0359 48.0875L66.7729 48.6421V49.2559H69.5ZM57.293 38.1303C54.5328 38.1303 51.9514 38.6545 49.5968 39.7534L51.9032 44.6958C53.4548 43.9718 55.2354 43.5845 57.293 43.5845V38.1303ZM49.5968 39.7534C47.0699 40.9326 45.0374 42.9078 43.4493 45.479L48.0897 48.3452C49.236 46.4893 50.5239 45.3395 51.9032 44.6958L49.5968 39.7534ZM43.4688 45.448C41.8818 47.9419 40.7127 51.0622 39.8871 54.7083L45.2066 55.9128C45.9436 52.6579 46.9229 50.1792 48.0703 48.3762L43.4688 45.448ZM39.8767 54.7564C39.1138 58.4323 38.7147 62.8497 38.6481 67.9704L44.1019 68.0413C44.1656 63.136 44.5477 59.0898 45.2171 55.8647L39.8767 54.7564ZM38.6483 68.0506C38.7148 72.1098 38.9815 75.7487 39.4589 78.9545L44.8536 78.151C44.4196 75.237 44.1654 71.8446 44.1017 67.9612L38.6483 68.0506ZM39.4589 78.9545C39.9383 82.1733 40.6713 85.0136 41.6965 87.4303L46.7175 85.3002C45.9199 83.42 45.2856 81.0519 44.8536 78.151L39.4589 78.9545ZM41.739 85.2051L36.3679 96.6308L41.3039 98.9512L46.675 87.5254L41.739 85.2051ZM40.7849 95.8835C38.132 93.1729 36.0124 89.5834 34.4895 85.0146L29.3152 86.7393C31.0475 91.9361 33.5503 96.2893 36.887 99.6985L40.7849 95.8835ZM34.4929 85.0248C32.9804 80.4269 32.188 74.7738 32.188 68.0059H26.7339C26.7339 75.1702 27.5691 81.4311 29.3118 86.7291L34.4929 85.0248ZM32.188 68.0059C32.188 62.1283 32.7893 57.0719 33.9483 52.8023L28.6845 51.3735C27.3695 56.2184 26.7339 61.7741 26.7339 68.0059H32.188ZM33.9413 52.8273C35.1719 48.4586 36.8612 44.9499 38.9501 42.2227L34.6202 38.9062C32.0216 42.2988 30.065 46.4724 28.6915 51.3485L33.9413 52.8273ZM38.9279 42.2513C41.0826 39.5142 43.6424 37.4809 46.6194 36.1069L44.3338 31.1548C40.5399 32.9058 37.3054 35.4949 34.6424 38.8776L38.9279 42.2513ZM46.64 36.0973C49.6886 34.6593 53.1262 33.9165 57 33.9165V28.4624C52.4103 28.4624 48.1656 29.3472 44.3131 31.1644L46.64 36.0973ZM57 33.9165C61.1474 33.9165 64.6546 34.6966 67.5968 36.1677L70.036 31.2893C66.2074 29.375 61.837 28.4624 57 28.4624V33.9165ZM66.3465 32.5724L62.0496 41.7521L66.9894 44.0643L71.2863 34.8846L66.3465 32.5724ZM65.9836 40.6075C63.376 38.9481 60.4546 38.1303 57.293 38.1303V43.5845C59.4698 43.5845 61.3662 44.134 63.0554 45.2089L65.9836 40.6075ZM73.0046 39.916C75.7973 42.5377 77.9893 46.1167 79.5039 50.7816L84.6915 49.0973C82.9508 43.7361 80.3251 39.3073 76.7376 35.9395L73.0046 39.916ZM79.5139 50.8119C81.0863 55.4686 81.9096 61.1798 81.9096 68.0059H87.3638C87.3638 60.7694 86.4944 54.4364 84.6814 49.067L79.5139 50.8119ZM81.9096 68.0059C81.9096 73.8724 81.278 78.9534 80.0587 83.2821L85.3085 84.7609C86.6933 79.8448 87.3638 74.2487 87.3638 68.0059H81.9096ZM80.0492 83.3165C78.8866 87.6612 77.2062 91.1471 75.0721 93.8581L79.3576 97.2318C82.0412 93.823 84.0067 89.6266 85.318 84.7265L80.0492 83.3165ZM75.0721 93.8581C72.9174 96.5951 70.3576 98.6285 67.3806 100.002L69.6662 104.955C73.4601 103.204 76.6946 100.614 79.3576 97.2318L75.0721 93.8581ZM67.3806 100.002C64.4042 101.376 60.9622 102.095 57 102.095V107.549C61.6315 107.549 65.8718 106.706 69.6662 104.955L67.3806 100.002ZM57 102.095C52.7427 102.095 49.0761 101.258 45.9325 99.6576L43.4581 104.518C47.476 106.564 52.0125 107.549 57 107.549V102.095ZM47.1599 103.255L51.5544 93.978L46.6253 91.6431L42.2307 100.92L47.1599 103.255ZM47.3779 94.9333C49.9649 97.0196 53.1413 97.979 56.707 97.979V92.5249C54.153 92.5249 52.2512 91.8567 50.8018 90.6877L47.3779 94.9333ZM56.707 97.979C59.4672 97.979 62.0486 97.4548 64.4032 96.356L62.0968 91.4135C60.5452 92.1376 58.7646 92.5249 56.707 92.5249V97.979ZM64.4378 96.3396C66.9713 95.1137 69.0277 93.1775 70.6289 90.6614L66.0274 87.7332C64.8942 89.5139 63.5652 90.7027 62.0622 91.43L64.4378 96.3396ZM70.6289 90.6614C72.227 88.15 73.364 85.0115 74.1233 81.353L68.7829 80.2446C68.11 83.4872 67.1636 85.9477 66.0274 87.7332L70.6289 90.6614ZM74.1153 81.3904C74.9494 77.6367 75.3828 73.1745 75.4495 68.0413L69.9958 67.9704C69.9323 72.8632 69.5193 76.9297 68.791 80.2072L74.1153 81.3904ZM75.4494 67.9626C75.3827 63.7635 75.0823 60.0384 74.5322 56.8061L69.1553 57.7213C69.6468 60.6088 69.9324 64.0451 69.9959 68.0491L75.4494 67.9626ZM74.5322 56.8061C73.9835 53.5828 73.179 50.7399 72.0803 48.3227L67.115 50.5796C67.9694 52.4593 68.6623 54.8247 69.1553 57.7213L74.5322 56.8061ZM71.526 47.5228C71.7581 47.755 72.2271 48.3426 72.2271 49.2559H66.7729C66.7729 50.2993 67.307 51.0172 67.6693 51.3795L71.526 47.5228ZM71.9641 50.4242L77.3352 39.0961L72.407 36.7594L67.0359 48.0875L71.9641 50.4242Z" fill="#FF0000"/>
</g>
<g style="mix-blend-mode:hard-light" filter="url(#filter3_ddi_1010_5319)">
<path d="M45.7695 46.9121L47.5289 48.0317L47.5364 48.0199L47.5438 48.008L45.7695 46.9121ZM42.5469 55.3105L40.5129 54.85L40.5088 54.8684L40.505 54.8868L42.5469 55.3105ZM41.375 68.0059L39.2898 67.9788L39.2894 68.0094L39.2899 68.04L41.375 68.0059ZM44.207 86.3652L46.0943 87.2524L46.4909 86.4089L46.1268 85.5508L44.207 86.3652ZM38.8359 97.791L37.3456 99.2497L39.4458 101.396L40.7232 98.6782L38.8359 97.791ZM31.9023 85.877L29.9213 86.5286L29.9239 86.5364L31.9023 85.877ZM31.3164 52.0879L29.3091 51.5225L29.3064 51.532L29.3038 51.5416L31.3164 52.0879ZM36.7852 40.5645L35.1466 39.2745L35.138 39.2854L35.1296 39.2964L36.7852 40.5645ZM45.4766 33.6309L46.3505 35.5243L46.3584 35.5207L46.3662 35.517L45.4766 33.6309ZM68.8164 33.7285L70.7051 34.6126L71.5667 32.7721L69.749 31.8633L68.8164 33.7285ZM64.5195 42.9082L63.3999 44.6676L65.4022 45.9417L66.4083 43.7923L64.5195 42.9082ZM74.8711 37.9277L76.2984 36.4073L74.2125 34.4491L72.9868 37.0343L74.8711 37.9277ZM82.0977 49.9395L80.1142 50.5834L80.1179 50.5951L80.1218 50.6066L82.0977 49.9395ZM82.6836 84.0215L80.6763 83.456L80.6726 83.4692L80.6691 83.4824L82.6836 84.0215ZM44.6953 102.088L42.8106 101.195L41.943 103.027L43.7492 103.946L44.6953 102.088ZM49.0898 92.8105L50.399 91.1872L48.3384 89.5255L47.2052 91.9178L49.0898 92.8105ZM63.25 93.8848L64.1319 95.7745L64.1452 95.7683L64.1583 95.762L63.25 93.8848ZM71.4531 80.7988L69.4174 80.3464L69.4142 80.3607L69.4112 80.375L71.4531 80.7988ZM72.7227 68.0059L74.8079 68.0329L74.8083 68.0029L74.8078 67.9728L72.7227 68.0059ZM71.8438 57.2637L69.7879 57.6136L71.8438 57.2637ZM69.5977 49.4512L71.4961 48.5882L71.3397 48.244L71.0723 47.9766L69.5977 49.4512ZM69.5 49.2559L67.6157 48.3624L67.4146 48.7865V49.2559H69.5ZM57.293 38.772C54.6155 38.772 52.1283 39.2801 49.8681 40.3348L51.6319 44.1144C53.278 43.3462 55.1528 42.9428 57.293 42.9428V38.772ZM49.8681 40.3348C47.4762 41.4511 45.5314 43.3292 43.9953 45.8162L47.5438 48.008C48.7421 46.0679 50.1175 44.8211 51.6319 44.1144L49.8681 40.3348ZM44.0101 45.7925C42.4749 48.2051 41.3281 51.2499 40.5129 54.85L44.5808 55.7711C45.3282 52.4702 46.3298 49.916 47.5289 48.0317L44.0101 45.7925ZM40.505 54.8868C39.753 58.5097 39.3559 62.8834 39.2898 67.9788L43.4602 68.0329C43.5243 63.1023 43.9084 59.0125 44.5888 55.7343L40.505 54.8868ZM39.2899 68.04C39.3561 72.0786 39.6212 75.6885 40.0936 78.8599L44.2189 78.2455C43.7798 75.2972 43.5241 71.8758 43.4601 67.9717L39.2899 68.04ZM40.0936 78.8599C40.5674 82.0414 41.2887 84.8261 42.2872 87.1797L46.1268 85.5508C45.3024 83.6075 44.6565 81.1839 44.2189 78.2455L40.0936 78.8599ZM42.3197 85.478L36.9486 96.9038L40.7232 98.6782L46.0943 87.2524L42.3197 85.478ZM40.3263 96.3323C37.5929 93.5395 35.4283 89.8602 33.8807 85.2175L29.9239 86.5364C31.6316 91.6593 34.0893 95.9227 37.3456 99.2497L40.3263 96.3323ZM33.8833 85.2253C32.3438 80.5451 31.5464 74.8204 31.5464 68.0059H27.3755C27.3755 75.1236 28.2057 81.313 29.9214 86.5286L33.8833 85.2253ZM31.5464 68.0059C31.5464 62.0866 32.1517 56.9715 33.329 52.6342L29.3038 51.5416C28.0071 56.3188 27.3755 61.8157 27.3755 68.0059H31.5464ZM33.3237 52.6533C34.5711 48.225 36.2919 44.638 38.4407 41.8325L35.1296 39.2964C32.591 42.6107 30.6658 46.706 29.3091 51.5225L33.3237 52.6533ZM38.4237 41.8544C40.6383 39.0414 43.2774 36.9427 46.3505 35.5243L44.6027 31.7374C40.9049 33.4441 37.7498 35.9677 35.1466 39.2745L38.4237 41.8544ZM46.3662 35.517C49.5094 34.0343 53.042 33.2749 57 33.2749V29.104C52.4945 29.104 48.3448 29.9722 44.5869 31.7447L46.3662 35.517ZM57 33.2749C61.2285 33.2749 64.8373 34.0705 67.8838 35.5938L69.749 31.8633C66.0247 30.0011 61.7559 29.104 57 29.104V33.2749ZM66.9277 32.8444L62.6308 42.0241L66.4083 43.7923L70.7051 34.6126L66.9277 32.8444ZM65.6391 41.1488C63.1396 39.5582 60.3388 38.772 57.293 38.772V42.9428C59.5857 42.9428 61.6026 43.5239 63.3999 44.6676L65.6391 41.1488ZM73.4438 39.4482C76.33 42.1577 78.573 45.8367 80.1142 50.5834L84.0811 49.2955C82.3671 44.0162 79.7924 39.6874 76.2984 36.4073L73.4438 39.4482ZM80.1218 50.6066C81.7225 55.3471 82.5513 61.1315 82.5513 68.0059H86.7221C86.7221 60.8177 85.8582 54.5578 84.0735 49.2723L80.1218 50.6066ZM82.5513 68.0059C82.5513 73.9167 81.9151 79.0582 80.6763 83.456L84.6909 84.5869C86.0562 79.7399 86.7221 74.2044 86.7221 68.0059H82.5513ZM80.6691 83.4824C79.4889 87.8924 77.775 91.4619 75.5763 94.255L78.8534 96.8349C81.4723 93.5081 83.4043 89.3954 84.6981 84.5606L80.6691 83.4824ZM75.5763 94.255C73.3617 97.068 70.7226 99.1667 67.6495 100.585L69.3973 104.372C73.0951 102.665 76.2502 100.142 78.8534 96.8349L75.5763 94.255ZM67.6495 100.585C64.5769 102.003 61.041 102.737 57 102.737V106.908C61.5528 106.908 65.6992 106.079 69.3973 104.372L67.6495 100.585ZM57 102.737C52.6568 102.737 48.8878 101.882 45.6414 100.229L43.7492 103.946C47.6642 105.939 52.0984 106.908 57 106.908V102.737ZM46.58 102.981L50.9745 93.7033L47.2052 91.9178L42.8106 101.195L46.58 102.981ZM47.7807 94.4339C50.2339 96.4122 53.2603 97.3374 56.707 97.3374V93.1665C54.0339 93.1665 51.9822 92.4641 50.399 91.1872L47.7807 94.4339ZM56.707 97.3374C59.3845 97.3374 61.8717 96.8293 64.1319 95.7745L62.3681 91.995C60.722 92.7632 58.8472 93.1665 56.707 93.1665V97.3374ZM64.1583 95.762C66.5705 94.5948 68.5414 92.7465 70.0875 90.3169L66.5687 88.0777C65.3805 89.9449 63.9659 91.2216 62.3417 92.0076L64.1583 95.762ZM70.0875 90.3169C71.6313 87.8909 72.7459 84.8322 73.495 81.2226L69.4112 80.375C68.7281 83.6665 67.7593 86.2068 66.5687 88.0777L70.0875 90.3169ZM73.4889 81.2512C74.3106 77.5535 74.7416 73.1379 74.8079 68.0329L70.6374 67.9788C70.5735 72.8999 70.1582 77.0129 69.4174 80.3464L73.4889 81.2512ZM74.8078 67.9728C74.7415 63.7966 74.4429 60.1055 73.8996 56.9137L69.7879 57.6136C70.2863 60.5417 70.5736 64.012 70.6375 68.039L74.8078 67.9728ZM73.8996 56.9137C73.3575 53.7289 72.5661 50.9422 71.4961 48.5882L67.6992 50.3141C68.5823 52.257 69.2883 54.6786 69.7879 57.6136L73.8996 56.9137ZM71.0723 47.9766C71.2345 48.1388 71.5854 48.5728 71.5854 49.2559H67.4146C67.4146 50.0691 67.8306 50.6334 68.123 50.9258L71.0723 47.9766ZM71.3843 50.1493L76.7554 38.8212L72.9868 37.0343L67.6157 48.3624L71.3843 50.1493Z" fill="#FF0000" fill-opacity="0.2"/>
</g>
<g filter="url(#filter4_f_1010_5319)">
<path d="M45.7695 46.9121L46.8522 47.6011L46.8569 47.5938L46.8614 47.5865L45.7695 46.9121ZM42.5469 55.3105L41.2952 55.0272L41.2927 55.0384L41.2903 55.0498L42.5469 55.3105ZM41.375 68.0059L40.0918 67.9892L40.0915 68.008L40.0918 68.0269L41.375 68.0059ZM44.207 86.3652L45.3684 86.9112L45.6125 86.3921L45.3884 85.864L44.207 86.3652ZM38.8359 97.791L37.9188 98.6887L39.2112 100.009L39.9973 98.337L38.8359 97.791ZM31.9023 85.877L30.6833 86.278L30.6849 86.2828L31.9023 85.877ZM31.3164 52.0879L30.0811 51.7399L30.0779 51.7517L31.3164 52.0879ZM36.7852 40.5645L35.7768 39.7706L35.7715 39.7773L35.7663 39.7841L36.7852 40.5645ZM45.4766 33.6309L46.0144 34.7961L46.0241 34.7915L45.4766 33.6309ZM68.8164 33.7285L69.9787 34.2726L70.5089 33.1399L69.3903 32.5807L68.8164 33.7285ZM64.5195 42.9082L63.8305 43.9909L65.0627 44.775L65.6818 43.4523L64.5195 42.9082ZM74.8711 37.9277L75.7495 36.9921L74.4658 35.787L73.7115 37.3779L74.8711 37.9277ZM82.0977 49.9395L80.877 50.3358L80.8794 50.3429L80.8818 50.35L82.0977 49.9395ZM82.6836 84.0215L81.4483 83.6735L81.4461 83.6816L81.4439 83.6897L82.6836 84.0215ZM44.6953 102.088L43.5355 101.539L43.0016 102.666L44.1131 103.232L44.6953 102.088ZM49.0898 92.8105L49.8955 91.8116L48.6274 90.789L47.93 92.2612L49.0898 92.8105ZM63.25 93.8848L63.7927 95.0477L63.8009 95.0439L63.809 95.04L63.25 93.8848ZM71.4531 80.7988L70.2004 80.5204L70.1984 80.5292L70.1966 80.538L71.4531 80.7988ZM72.7227 68.0059L74.0059 68.0225L74.0061 68.004L74.0058 67.9855L72.7227 68.0059ZM71.8438 57.2637L70.5786 57.479L71.8438 57.2637ZM69.5977 49.4512L70.766 48.9201L70.6697 48.7083L70.5051 48.5437L69.5977 49.4512ZM69.5 49.2559L68.3404 48.7061L68.2167 48.967V49.2559H69.5ZM57.293 39.5741C54.7188 39.5741 52.3494 40.062 50.2073 41.0617L51.2927 43.3875C53.0569 42.5643 55.0494 42.1408 57.293 42.1408V39.5741ZM50.2073 41.0617C47.9842 42.0991 46.1488 43.8559 44.6777 46.2377L46.8614 47.5865C48.1246 45.5413 49.6096 44.173 51.2927 43.3875L50.2073 41.0617ZM44.6868 46.2231C43.2162 48.5341 42.0973 51.4846 41.2952 55.0272L43.7985 55.5939C44.5589 52.2355 45.5885 49.587 46.8522 47.6011L44.6868 46.2231ZM41.2903 55.0498C40.5522 58.6064 40.1575 62.9255 40.0918 67.9892L42.6582 68.0225C42.7227 63.0602 43.1093 58.9158 43.8034 55.5713L41.2903 55.0498ZM40.0918 68.0269C40.1576 72.0396 40.421 75.6132 40.8869 78.7418L43.4256 78.3637C42.9801 75.3724 42.7226 71.9148 42.6582 67.9848L40.0918 68.0269ZM40.8869 78.7418C41.3538 81.8765 42.0606 84.5918 43.0256 86.8664L45.3884 85.864C44.5305 83.8418 43.8702 81.3488 43.4256 78.3637L40.8869 78.7418ZM43.0456 85.8193L37.6745 97.2451L39.9973 98.337L45.3684 86.9112L43.0456 85.8193ZM39.7531 96.8934C36.9192 93.9978 34.6982 90.2062 33.1198 85.4711L30.6849 86.2828C32.3617 91.3133 34.7631 95.4644 37.9188 98.6887L39.7531 96.8934ZM33.1214 85.4759C31.548 80.6928 30.7443 74.8787 30.7443 68.0059H28.1776C28.1776 75.0653 29.0015 81.1653 30.6833 86.278L33.1214 85.4759ZM30.7443 68.0059C30.7443 62.0345 31.3547 56.846 32.5549 52.4241L30.0779 51.7517C28.8042 56.4444 28.1776 61.8678 28.1776 68.0059H30.7443ZM32.5517 52.4359C33.8201 47.9329 35.5801 44.2481 37.804 41.3448L35.7663 39.7841C33.3027 43.0006 31.4169 46.9981 30.0811 51.7399L32.5517 52.4359ZM37.7935 41.3583C40.0828 38.4503 42.8212 36.2699 46.0144 34.7961L44.9388 32.4656C41.3611 34.1169 38.3052 36.5588 35.7768 39.7706L37.7935 41.3583ZM46.0241 34.7915C49.2854 33.2532 52.9367 32.4728 57 32.4728V29.9061C52.5998 29.9061 48.5687 30.7534 44.9291 32.4702L46.0241 34.7915ZM57 32.4728C61.3299 32.4728 65.0656 33.2879 68.2425 34.8764L69.3903 32.5807C65.7964 30.7837 61.6545 29.9061 57 29.9061V32.4728ZM67.6541 33.1845L63.3572 42.3641L65.6818 43.4523L69.9787 34.2726L67.6541 33.1845ZM65.2085 41.8255C62.844 40.3208 60.194 39.5741 57.293 39.5741V42.1408C59.7305 42.1408 61.8982 42.7612 63.8305 43.9909L65.2085 41.8255ZM73.9927 38.8634C76.9958 41.6826 79.3026 45.4866 80.877 50.3358L83.3183 49.5432C81.6375 44.3663 79.1266 40.1624 75.7495 36.9921L73.9927 38.8634ZM80.8818 50.35C82.5179 55.1953 83.3534 61.0712 83.3534 68.0059H85.9201C85.9201 60.8781 85.0629 54.7096 83.3135 49.5289L80.8818 50.35ZM83.3534 68.0059C83.3534 73.972 82.7115 79.1893 81.4483 83.6735L83.9189 84.3694C85.2599 79.6088 85.9201 74.1491 85.9201 68.0059H83.3534ZM81.4439 83.6897C80.2419 88.1814 78.4861 91.8554 76.2065 94.7511L78.2232 96.3387C80.7613 93.1146 82.6513 89.1063 83.9233 84.3532L81.4439 83.6897ZM76.2065 94.7511C73.9172 97.6591 71.1788 99.8395 67.9856 101.313L69.0612 103.644C72.6389 101.993 75.6948 99.5506 78.2232 96.3387L76.2065 94.7511ZM67.9856 101.313C64.7927 102.787 61.1394 103.539 57 103.539V106.106C61.4544 106.106 65.4833 105.295 69.0612 103.644L67.9856 101.313ZM57 103.539C52.5494 103.539 48.6525 102.662 45.2775 100.944L44.1131 103.232C47.8996 105.159 52.2058 106.106 57 106.106V103.539ZM45.8551 102.637L50.2496 93.3599L47.93 92.2612L43.5355 101.539L45.8551 102.637ZM48.2842 93.8095C50.5701 95.653 53.4091 96.5353 56.707 96.5353V93.9686C53.8852 93.9686 51.646 93.2233 49.8955 91.8116L48.2842 93.8095ZM56.707 96.5353C59.2812 96.5353 61.6506 96.0473 63.7927 95.0477L62.7073 92.7218C60.9431 93.5451 58.9506 93.9686 56.707 93.9686V96.5353ZM63.809 95.04C66.0697 93.9461 67.9335 92.2077 69.4108 89.8863L67.2454 88.5083C65.9884 90.4837 64.4668 91.8703 62.691 92.7296L63.809 95.04ZM69.4108 89.8863C70.8867 87.567 71.9732 84.608 72.7097 81.0596L70.1966 80.538C69.5007 83.8907 68.5039 86.5306 67.2454 88.5083L69.4108 89.8863ZM72.7059 81.0772C73.512 77.4496 73.94 73.0921 74.0059 68.0225L71.4394 67.9892C71.3751 72.9456 70.9567 77.1169 70.2004 80.5204L72.7059 81.0772ZM74.0058 67.9855C73.94 63.838 73.6435 60.1894 73.1089 57.0483L70.5786 57.479C71.0856 60.4578 71.3751 63.9706 71.4395 68.0262L74.0058 67.9855ZM73.1089 57.0483C72.575 53.9116 71.8 51.195 70.766 48.9201L68.4294 49.9822C69.3484 52.0042 70.0709 54.496 70.5786 57.479L73.1089 57.0483ZM70.5051 48.5437C70.5799 48.6185 70.7833 48.8606 70.7833 49.2559H68.2167C68.2167 49.7814 68.4852 50.1536 68.6902 50.3586L70.5051 48.5437ZM70.6596 49.8057L76.0307 38.4775L73.7115 37.3779L68.3404 48.7061L70.6596 49.8057Z" fill="#FF9983"/>
</g>
<g filter="url(#filter5_f_1010_5319)">
<path d="M45.7695 46.9121L46.3109 47.2566L46.3155 47.2493L45.7695 46.9121ZM42.5469 55.3105L41.9209 55.1688L41.9186 55.1801L42.5469 55.3105ZM41.375 68.0059L40.7334 67.9975L40.7333 68.007L40.7334 68.0164L41.375 68.0059ZM44.207 86.3652L44.7877 86.6382L44.9097 86.3787L44.7977 86.1146L44.207 86.3652ZM38.8359 97.791L38.3774 98.2398L39.0236 98.9001L39.4166 98.064L38.8359 97.791ZM31.9023 85.877L31.2928 86.0775L31.2936 86.0799L31.9023 85.877ZM31.3164 52.0879L30.6987 51.9139L30.6971 51.9198L31.3164 52.0879ZM36.7852 40.5645L36.2809 40.1675L36.2758 40.1743L36.7852 40.5645ZM45.4766 33.6309L45.7455 34.2135L45.7503 34.2112L45.4766 33.6309ZM68.8164 33.7285L69.3976 34.0005L69.6626 33.4342L69.1034 33.1546L68.8164 33.7285ZM64.5195 42.9082L64.175 43.4496L64.7911 43.8416L65.1007 43.1802L64.5195 42.9082ZM74.8711 37.9277L75.3103 37.4599L74.6684 36.8574L74.2913 37.6528L74.8711 37.9277ZM82.0977 49.9395L81.4873 50.1376L81.4897 50.1447L82.0977 49.9395ZM82.6836 84.0215L82.0659 83.8475L82.0637 83.8556L82.6836 84.0215ZM44.6953 102.088L44.1154 101.813L43.8484 102.377L44.4042 102.66L44.6953 102.088ZM49.0898 92.8105L49.4927 92.3111L48.8586 91.7998L48.5099 92.5359L49.0898 92.8105ZM63.25 93.8848L63.5214 94.4663L63.5295 94.4624L63.25 93.8848ZM71.4531 80.7988L70.8267 80.6596L70.8248 80.6684L71.4531 80.7988ZM72.7227 68.0059L73.3643 68.0142L73.3644 68.0049L73.3642 67.9957L72.7227 68.0059ZM71.8438 57.2637L71.2112 57.3713L71.8438 57.2637ZM69.5977 49.4512L70.1818 49.1856L70.1337 49.0797L70.0514 48.9974L69.5977 49.4512ZM69.5 49.2559L68.9202 48.981L68.8583 49.1114V49.2559H69.5ZM57.293 40.2158C54.8015 40.2158 52.5263 40.6876 50.4786 41.6431L51.0214 42.8061C52.88 41.9387 54.9668 41.4991 57.293 41.4991V40.2158ZM50.4786 41.6431C48.3905 42.6176 46.6428 44.2772 45.2236 46.5749L46.3155 47.2493C47.6307 45.1199 49.2032 43.6545 51.0214 42.8061L50.4786 41.6431ZM45.2282 46.5676C43.8093 48.7973 42.7127 51.6723 41.921 55.1689L43.1727 55.4522C43.9435 52.0478 44.9954 49.3238 46.3109 47.2566L45.2282 46.5676ZM41.9186 55.1801C41.1914 58.6837 40.7988 62.9592 40.7334 67.9975L42.0166 68.0142C42.0814 63.0265 42.47 58.8384 43.1752 55.4409L41.9186 55.1801ZM40.7334 68.0164C40.7989 72.0084 41.0607 75.553 41.5216 78.6473L42.7909 78.4582C42.3403 75.4326 42.0813 71.946 42.0166 67.9953L40.7334 68.0164ZM41.5216 78.6473C41.9829 81.7446 42.6781 84.4043 43.6163 86.6158L44.7977 86.1146C43.9131 84.0293 43.2411 81.4807 42.7909 78.4582L41.5216 78.6473ZM43.6263 86.0923L38.2552 97.518L39.4166 98.064L44.7877 86.6382L43.6263 86.0923ZM39.2945 97.3422C36.3802 94.3645 34.1141 90.483 32.5111 85.674L31.2936 86.0799C32.9458 91.0366 35.3021 95.0978 38.3774 98.2398L39.2945 97.3422ZM32.5119 85.6764C30.9114 80.8109 30.1026 74.9254 30.1026 68.0059H28.8193C28.8193 75.0186 29.6381 81.0472 31.2928 86.0775L32.5119 85.6764ZM30.1026 68.0059C30.1026 61.9928 30.7171 56.7456 31.9357 52.256L30.6971 51.9198C29.4418 56.5448 28.8193 61.9095 28.8193 68.0059H30.1026ZM31.934 52.2619C33.2193 47.6992 35.0108 43.9362 37.2946 40.9546L36.2758 40.1743C33.872 43.3125 32.0177 47.2318 30.6988 51.9139L31.934 52.2619ZM37.2893 40.9614C39.6384 37.9774 42.4562 35.7316 45.7455 34.2135L45.2077 33.0483C41.7261 34.6551 38.7496 37.0317 36.281 40.1675L37.2893 40.9614ZM45.7503 34.2112C49.1063 32.6282 52.8525 31.8311 57 31.8311V30.5478C52.684 30.5478 48.7479 31.3783 45.2028 33.0505L45.7503 34.2112ZM57 31.8311C61.4111 31.8311 65.2483 32.6619 68.5294 34.3024L69.1034 33.1546C65.6137 31.4097 61.5733 30.5478 57 30.5478V31.8311ZM68.2353 33.4565L63.9384 42.6362L65.1007 43.1802L69.3976 34.0005L68.2353 33.4565ZM64.864 42.3669C62.6075 40.9309 60.0781 40.2158 57.293 40.2158V41.4991C59.8464 41.4991 62.1346 42.1511 64.175 43.4496L64.864 42.3669ZM74.4319 38.3956C77.5285 41.3026 79.8863 45.2065 81.4874 50.1376L82.708 49.7413C81.0538 44.6464 78.5939 40.5425 75.3103 37.4599L74.4319 38.3956ZM81.4897 50.1447C83.1541 55.0739 83.9951 61.0229 83.9951 68.0059H85.2784C85.2784 60.9263 84.4266 54.831 82.7056 49.7342L81.4897 50.1447ZM83.9951 68.0059C83.9951 74.0163 83.3486 79.2942 82.066 83.8475L83.3012 84.1955C84.6228 79.504 85.2784 74.1048 85.2784 68.0059H83.9951ZM82.0637 83.8556C80.8442 88.4127 79.0549 92.1702 76.7107 95.148L77.719 95.9418C80.1925 92.7998 82.049 88.8751 83.3034 84.1874L82.0637 83.8556ZM76.7107 95.148C74.3616 98.132 71.5438 100.378 68.2545 101.896L68.7923 103.061C72.2739 101.454 75.2504 99.0777 77.719 95.9418L76.7107 95.148ZM68.2545 101.896C64.9654 103.414 61.2181 104.181 57 104.181V105.464C61.3756 105.464 65.3107 104.668 68.7923 103.061L68.2545 101.896ZM57 104.181C52.4635 104.181 48.4643 103.287 44.9864 101.516L44.4042 102.66C48.0878 104.535 52.2917 105.464 57 105.464V104.181ZM45.2752 102.363L49.6697 93.0852L48.5099 92.5359L44.1154 101.813L45.2752 102.363ZM48.687 93.31C50.8391 95.0456 53.5281 95.8936 56.707 95.8936V94.6103C53.7662 94.6103 51.377 93.8307 49.4927 92.3111L48.687 93.31ZM56.707 95.8936C59.1985 95.8936 61.4737 95.4218 63.5214 94.4662L62.9786 93.3033C61.12 94.1707 59.0332 94.6103 56.707 94.6103V95.8936ZM63.5295 94.4624C65.6689 93.4271 67.4472 91.7767 68.8695 89.5418L67.7868 88.8528C66.4747 90.9147 64.8675 92.3893 62.9705 93.3072L63.5295 94.4624ZM68.8695 89.5418C70.291 87.3079 71.3551 84.4287 72.0814 80.9292L70.8248 80.6684C70.1189 84.07 69.0996 86.7897 67.7868 88.8528L68.8695 89.5418ZM72.0795 80.938C72.8732 77.3664 73.2988 73.0555 73.3643 68.0142L72.081 67.9975C72.0163 72.9823 71.5955 77.2 70.8267 80.6596L72.0795 80.938ZM73.3642 67.9957C73.2988 63.8712 73.0041 60.2565 72.4763 57.156L71.2112 57.3713C71.7251 60.3907 72.0163 63.9374 72.0811 68.016L73.3642 67.9957ZM72.4763 57.156C71.9489 54.0577 71.1871 51.3973 70.1818 49.1856L69.0135 49.7167C69.9613 51.8019 70.6969 54.3499 71.2112 57.3713L72.4763 57.156ZM70.0514 48.9974C70.0562 49.0023 70.1417 49.0908 70.1417 49.2559H68.8583C68.8583 49.5512 69.0089 49.7699 69.1439 49.9049L70.0514 48.9974ZM70.0798 49.5308L75.4509 38.2026L74.2913 37.6528L68.9202 48.981L70.0798 49.5308Z" fill="white"/>
</g>
<defs>
<filter id="filter0_f_1010_5319" x="0.5625" y="0.5625" width="112.875" height="128.875" filterUnits="userSpaceOnUse" color-interpolation-filters="sRGB">
<feFlood flood-opacity="0" result="BackgroundImageFix"/>
<feBlend mode="normal" in="SourceGraphic" in2="BackgroundImageFix" result="shape"/>
<feGaussianBlur stdDeviation="7.21875" result="effect1_foregroundBlur_1010_5319"/>
</filter>
<filter id="filter1_f_1010_5319" x="15.0234" y="16.752" width="84.0508" height="102.508" filterUnits="userSpaceOnUse" color-interpolation-filters="sRGB">
<feFlood flood-opacity="0" result="BackgroundImageFix"/>
<feBlend mode="normal" in="SourceGraphic" in2="BackgroundImageFix" result="shape"/>
<feGaussianBlur stdDeviation="7.21875" result="effect1_foregroundBlur_1010_5319"/>
</filter>
<filter id="filter2_f_1010_5319" x="24.6484" y="26.377" width="64.8008" height="83.2578" filterUnits="userSpaceOnUse" color-interpolation-filters="sRGB">
<feFlood flood-opacity="0" result="BackgroundImageFix"/>
<feBlend mode="normal" in="SourceGraphic" in2="BackgroundImageFix" result="shape"/>
<feGaussianBlur stdDeviation="2.40625" result="effect1_foregroundBlur_1010_5319"/>
</filter>
<filter id="filter3_ddi_1010_5319" x="23.2047" y="29.7457" width="67.6883" height="86.1453" filterUnits="userSpaceOnUse" color-interpolation-filters="sRGB">
<feFlood flood-opacity="0" result="BackgroundImageFix"/>
<feColorMatrix in="SourceAlpha" type="matrix" values="0 0 0 0 0 0 0 0 0 0 0 0 0 0 0 0 0 0 127 0" result="hardAlpha"/>
<feOffset dy="2.08542"/>
<feGaussianBlur stdDeviation="0.802083"/>
<feColorMatrix type="matrix" values="0 0 0 0 0.15 0 0 0 0 0 0 0 0 0 0 0 0 0 0.7 0"/>
<feBlend mode="multiply" in2="BackgroundImageFix" result="effect1_dropShadow_1010_5319"/>
<feColorMatrix in="SourceAlpha" type="matrix" values="0 0 0 0 0 0 0 0 0 0 0 0 0 0 0 0 0 0 127 0" result="hardAlpha"/>
<feOffset dy="4.8125"/>
<feGaussianBlur stdDeviation="3.12812"/>
<feColorMatrix type="matrix" values="0 0 0 0 0.8 0 0 0 0 0.19 0 0 0 0 0.19 0 0 0 1 0"/>
<feBlend mode="color-dodge" in2="effect1_dropShadow_1010_5319" result="effect2_dropShadow_1010_5319"/>
<feBlend mode="normal" in="SourceGraphic" in2="effect2_dropShadow_1010_5319" result="shape"/>
<feColorMatrix in="SourceAlpha" type="matrix" values="0 0 0 0 0 0 0 0 0 0 0 0 0 0 0 0 0 0 127 0" result="hardAlpha"/>
<feOffset dx="-0.208542" dy="0.417083"/>
<feGaussianBlur stdDeviation="0.104271"/>
<feComposite in2="hardAlpha" operator="arithmetic" k2="-1" k3="1"/>
<feColorMatrix type="matrix" values="0 0 0 0 1 0 0 0 0 1 0 0 0 0 1 0 0 0 0.5 0"/>
<feBlend mode="normal" in2="shape" result="effect3_innerShadow_1010_5319"/>
</filter>
<filter id="filter4_f_1010_5319" x="29.1401" y="30.8686" width="55.8174" height="74.2745" filterUnits="userSpaceOnUse" color-interpolation-filters="sRGB">
<feFlood flood-opacity="0" result="BackgroundImageFix"/>
<feBlend mode="normal" in="SourceGraphic" in2="BackgroundImageFix" result="shape"/>
<feGaussianBlur stdDeviation="0.160417" result="effect1_foregroundBlur_1010_5319"/>
</filter>
<filter id="filter5_f_1010_5319" x="29.247" y="30.9756" width="55.6036" height="74.0606" filterUnits="userSpaceOnUse" color-interpolation-filters="sRGB">
<feFlood flood-opacity="0" result="BackgroundImageFix"/>
<feBlend mode="normal" in="SourceGraphic" in2="BackgroundImageFix" result="shape"/>
<feGaussianBlur stdDeviation="0.106944" result="effect1_foregroundBlur_1010_5319"/>
</filter>
</defs>
</svg>
