<svg width="128" height="128" viewBox="0 0 128 128" fill="none" xmlns="http://www.w3.org/2000/svg">
<rect x="2" y="2" width="124" height="124" rx="16" fill="url(#paint0_linear_917_5293)" fill-opacity="0.12"/>
<rect x="1.25" y="1.25" width="125.5" height="125.5" rx="16.75" stroke="url(#paint1_linear_917_5293)" stroke-opacity="0.6" stroke-width="1.5"/>
<rect x="1.25" y="1.25" width="125.5" height="125.5" rx="16.75" stroke="url(#paint2_linear_917_5293)" stroke-opacity="0.6" stroke-width="1.5"/>
<path d="M75.5 46.75H72.625V43.875C72.625 41.5875 71.7163 39.3937 70.0988 37.7762C68.4813 36.1587 66.2875 35.25 64 35.25C61.7125 35.25 59.5187 36.1587 57.9012 37.7762C56.2837 39.3937 55.375 41.5875 55.375 43.875V46.75H52.5V43.875C52.5 40.825 53.7116 37.8999 55.8683 35.7433C58.0249 33.5866 60.95 32.375 64 32.375C67.05 32.375 69.9751 33.5866 72.1317 35.7433C74.2884 37.8999 75.5 40.825 75.5 43.875V46.75Z" fill="#0067C4"/>
<path d="M53.2188 42.4375H55.375V49.625H53.2188C52.2656 49.625 51.3515 49.2464 50.6776 48.5724C50.0036 47.8985 49.625 46.9844 49.625 46.0312C49.625 45.0781 50.0036 44.164 50.6776 43.4901C51.3515 42.8161 52.2656 42.4375 53.2188 42.4375ZM74.7812 49.6252H72.625V42.4377H74.7812C75.7344 42.4377 76.6485 42.8163 77.3224 43.4903C77.9964 44.1642 78.375 45.0783 78.375 46.0314C78.375 46.9846 77.9964 47.8986 77.3224 48.5726C76.6485 49.2466 75.7344 49.6252 74.7812 49.6252Z" fill="#0B89D5"/>
<path d="M29.5 88.4375H32.375C33.1375 88.4375 33.8688 88.7404 34.4079 89.2796C34.9471 89.8187 35.25 90.55 35.25 91.3125V94.1875H26.625V91.3125C26.625 90.55 26.9279 89.8187 27.4671 89.2796C28.0062 88.7404 28.7375 88.4375 29.5 88.4375Z" fill="url(#paint3_linear_917_5293)"/>
<path d="M26.625 97.0625H101.375V107.125H26.625V97.0625Z" fill="white" fill-opacity="0.25"/>
<path d="M22.3125 92.75H105.688V98.5H22.3125V92.75Z" fill="white"/>
<path d="M64 55.375C68.7635 55.375 72.625 51.5135 72.625 46.75C72.625 41.9865 68.7635 38.125 64 38.125C59.2365 38.125 55.375 41.9865 55.375 46.75C55.375 51.5135 59.2365 55.375 64 55.375Z" fill="#F4CDA5"/>
<path d="M53.9375 55.375H74.0625C75.5875 55.375 77.05 55.9808 78.1284 57.0591C79.2067 58.1375 79.8125 59.6 79.8125 61.125V66.875H48.1875V61.125C48.1875 59.6 48.7933 58.1375 49.8716 57.0591C50.95 55.9808 52.4125 55.375 53.9375 55.375Z" fill="white" fill-opacity="0.37"/>
<path d="M84.125 92.75H43.875L41 64H87L84.125 92.75Z" fill="url(#paint4_linear_917_5293)"/>
<path d="M64 82.6875C66.3817 82.6875 68.3125 80.7567 68.3125 78.375C68.3125 75.9933 66.3817 74.0625 64 74.0625C61.6183 74.0625 59.6875 75.9933 59.6875 78.375C59.6875 80.7567 61.6183 82.6875 64 82.6875Z" fill="#F5F5F5"/>
<path d="M29.0454 25.2612C28.7592 25.3566 28.5102 25.5397 28.3338 25.7844C28.1574 26.0292 28.0625 26.3233 28.0625 26.625V36.9348C27.1994 36.6296 26.2616 36.607 25.3848 36.8703C24.508 37.1336 23.7377 37.6691 23.1855 38.3992C22.6332 39.1294 22.3277 40.0163 22.3131 40.9316C22.2984 41.847 22.5754 42.7433 23.104 43.4907C23.6326 44.2381 24.3854 44.798 25.2533 45.0892C26.1212 45.3803 27.0593 45.3878 27.9317 45.1104C28.8041 44.833 29.5657 44.2852 30.106 43.5462C30.6464 42.8072 30.9376 41.9155 30.9375 41V27.6611L38.5796 25.1138L37.6704 22.3862L29.0454 25.2612ZM26.625 42.4375C26.3407 42.4375 26.0628 42.3532 25.8264 42.1952C25.59 42.0373 25.4057 41.8128 25.2969 41.5501C25.1881 41.2874 25.1597 40.9984 25.2151 40.7196C25.2706 40.4407 25.4075 40.1846 25.6085 39.9835C25.8096 39.7825 26.0657 39.6456 26.3446 39.5901C26.6234 39.5347 26.9124 39.5631 27.1751 39.6719C27.4378 39.7807 27.6623 39.965 27.8202 40.2014C27.9782 40.4378 28.0625 40.7157 28.0625 41C28.0621 41.3811 27.9105 41.7465 27.641 42.016C27.3715 42.2855 27.0061 42.4371 26.625 42.4375ZM105.15 21.1913C104.982 21.0565 104.786 20.9612 104.576 20.9124C104.366 20.8636 104.148 20.8625 103.938 20.9093L91.0007 23.7843C90.6815 23.8553 90.3959 24.033 90.1912 24.2881C89.9866 24.5432 89.875 24.8604 89.875 25.1875V35.4973C89.0119 35.1921 88.0741 35.1695 87.1973 35.4328C86.3205 35.6961 85.5502 36.2316 84.998 36.9617C84.4457 37.6919 84.1402 38.5788 84.1256 39.4941C84.1109 40.4095 84.3879 41.3058 84.9165 42.0532C85.4451 42.8006 86.1979 43.3605 87.0658 43.6517C87.9337 43.9428 88.8718 43.9503 89.7442 43.6729C90.6167 43.3955 91.3782 42.8477 91.9185 42.1087C92.4589 41.3697 92.7501 40.478 92.75 39.5625V26.3406L102.812 24.1045V32.6217C101.949 32.3166 101.012 32.294 100.135 32.5573C99.2581 32.8205 98.4878 33.3559 97.9356 34.0861C97.3833 34.8162 97.0777 35.7031 97.0631 36.6184C97.0484 37.5337 97.3253 38.43 97.8539 39.1774C98.3824 39.9249 99.1351 40.4848 100.003 40.776C100.871 41.0673 101.809 41.0748 102.681 40.7975C103.554 40.5202 104.315 39.9724 104.856 39.2335C105.396 38.4947 105.688 37.603 105.688 36.6875V22.3125C105.687 22.0973 105.639 21.8848 105.546 21.6907C105.453 21.4966 105.317 21.326 105.15 21.1913ZM88.4375 41C88.1532 41 87.8753 40.9157 87.6389 40.7577C87.4025 40.5998 87.2182 40.3753 87.1094 40.1126C87.0006 39.8499 86.9722 39.5609 87.0276 39.2821C87.0831 39.0032 87.22 38.7471 87.421 38.546C87.6221 38.345 87.8782 38.2081 88.1571 38.1526C88.4359 38.0972 88.7249 38.1256 88.9876 38.2344C89.2503 38.3432 89.4748 38.5275 89.6327 38.7639C89.7907 39.0003 89.875 39.2782 89.875 39.5625C89.8746 39.9436 89.723 40.309 89.4535 40.5785C89.184 40.848 88.8186 40.9996 88.4375 41ZM101.375 38.125C101.091 38.125 100.813 38.0407 100.576 37.8827C100.34 37.7248 100.156 37.5003 100.047 37.2376C99.9381 36.9749 99.9097 36.6859 99.9651 36.4071C100.021 36.1282 100.157 35.8721 100.359 35.671C100.56 35.47 100.816 35.3331 101.095 35.2776C101.373 35.2222 101.662 35.2506 101.925 35.3594C102.188 35.4682 102.412 35.6525 102.57 35.8889C102.728 36.1253 102.812 36.4032 102.812 36.6875C102.812 37.0686 102.66 37.434 102.391 37.7035C102.122 37.973 101.756 38.1246 101.375 38.125Z" fill="url(#paint5_linear_917_5293)"/>
<defs>
<linearGradient id="paint0_linear_917_5293" x1="2" y1="4.5" x2="120" y2="127.5" gradientUnits="userSpaceOnUse">
<stop stop-color="white"/>
<stop offset="1" stop-color="white" stop-opacity="0.14"/>
</linearGradient>
<linearGradient id="paint1_linear_917_5293" x1="7" y1="6.06452" x2="33.6784" y2="57.1457" gradientUnits="userSpaceOnUse">
<stop stop-color="white"/>
<stop offset="1" stop-color="white" stop-opacity="0"/>
</linearGradient>
<linearGradient id="paint2_linear_917_5293" x1="115" y1="125.968" x2="86.8308" y2="80.4138" gradientUnits="userSpaceOnUse">
<stop offset="0.0001" stop-color="white" stop-opacity="0.989583"/>
<stop offset="1" stop-color="white" stop-opacity="0"/>
</linearGradient>
<linearGradient id="paint3_linear_917_5293" x1="22.9286" y1="96.3095" x2="42.4654" y2="93.0527" gradientUnits="userSpaceOnUse">
<stop stop-color="#AC06D9"/>
<stop offset="0.5" stop-color="#0067C4"/>
<stop offset="0.5769" stop-color="#0370C9"/>
<stop offset="0.7029" stop-color="#0B89D5"/>
<stop offset="0.8614" stop-color="#19B1E9"/>
<stop offset="1" stop-color="#26D9FE"/>
</linearGradient>
<linearGradient id="paint4_linear_917_5293" x1="41.5111" y1="92.6222" x2="87.5111" y2="64" gradientUnits="userSpaceOnUse">
<stop stop-color="#B0BEC5"/>
<stop offset="1" stop-color="white"/>
</linearGradient>
<linearGradient id="paint5_linear_917_5293" x1="16.293" y1="48.8164" x2="119.583" y2="20.2188" gradientUnits="userSpaceOnUse">
<stop stop-color="#AC06D9"/>
<stop offset="0.5" stop-color="#0067C4"/>
<stop offset="0.5769" stop-color="#0370C9"/>
<stop offset="0.7029" stop-color="#0B89D5"/>
<stop offset="0.8614" stop-color="#19B1E9"/>
<stop offset="1" stop-color="#26D9FE"/>
</linearGradient>
</defs>
</svg>
