<svg width="167" height="150" viewBox="0 0 167 150" fill="none" xmlns="http://www.w3.org/2000/svg">
<path fill-rule="evenodd" clip-rule="evenodd" d="M67.3926 49.5057C67.6585 48.3263 68.871 47.6412 70.0402 47.9605C71.2091 48.2801 71.8914 49.483 71.631 50.6635C71.3415 51.977 71.1144 53.3013 70.9502 54.6317H156.283C156.118 53.2974 155.891 51.9696 155.6 50.6524C155.339 49.4721 156.021 48.269 157.19 47.9491C158.359 47.6295 159.572 48.3143 159.838 49.4933C160.221 51.1919 160.51 52.9076 160.702 54.6317H164.566C165.814 54.6317 166.826 55.6406 166.826 56.8849C166.826 58.1292 165.814 59.138 164.566 59.138H160.989C161.039 62.3947 160.752 65.6584 160.125 68.8765C158.735 76.0129 155.712 82.7326 151.291 88.5135C146.871 94.2941 141.172 98.9794 134.639 102.205C129.458 104.762 123.865 106.347 118.136 106.895V119.606H140.048C140.982 119.606 141.739 120.361 141.739 121.292V148.274C141.739 149.205 140.982 149.96 140.048 149.96H87.6219C86.6878 149.96 85.9308 149.205 85.9308 148.274V121.292C85.9308 120.361 86.6878 119.606 87.6219 119.606H108.514V106.836C102.994 106.239 97.6072 104.678 92.6062 102.211C86.0718 98.9868 80.3716 94.3029 75.9497 88.5232C71.5275 82.7438 68.5027 76.0247 67.1106 68.8889C66.482 65.6666 66.1939 62.3988 66.2446 59.138H63.1048C61.8569 59.138 60.8452 58.1292 60.8452 56.8849C60.8452 55.6406 61.8569 54.6317 63.1048 54.6317H66.5309C66.7232 52.9117 67.0107 51.2001 67.3926 49.5057ZM132.691 98.2826C128.117 100.541 123.188 101.963 118.136 102.496V101.59C118.136 98.9403 115.982 96.7928 113.325 96.7928C110.668 96.7928 108.514 98.9403 108.514 101.59V102.43C103.67 101.853 98.9474 100.456 94.5526 98.2879C88.6236 95.3626 83.4519 91.1127 79.4392 85.8684C75.4269 80.6244 72.6825 74.5278 71.4193 68.0533C70.8446 65.1071 70.5837 62.1192 70.6344 59.138H156.599C156.65 62.1154 156.39 65.0997 155.816 68.0421C154.555 74.5169 151.812 80.6144 147.801 85.8596C143.79 91.1048 138.619 95.3561 132.691 98.2826Z" fill="url(#paint0_linear_224_8076)"/>
<path fill-rule="evenodd" clip-rule="evenodd" d="M113.762 1C98.2236 1 85.627 13.5605 85.627 29.0547V65.6242C85.627 81.1183 98.2236 93.6789 113.762 93.6789C129.301 93.6789 141.897 81.1183 141.897 65.6242V29.0547C141.897 13.5605 129.301 1 113.762 1ZM4.19339 88.1659C2.34454 88.1659 0.845703 89.6604 0.845703 91.504V126.316C0.845703 128.159 2.34454 129.654 4.19339 129.654H38.6267C40.4756 129.654 41.9744 128.159 41.9744 126.316V91.504C41.9744 89.6604 40.4756 88.1659 38.6267 88.1659H4.19339Z" stroke="#0081CE" stroke-width="0.25"/>
<path d="M79.5169 127.27C79.5169 128.586 78.4462 129.654 77.1255 129.654C75.8051 129.654 74.7344 128.586 74.7344 127.27C74.7344 125.953 75.8051 124.885 77.1255 124.885C78.4462 124.885 79.5169 125.953 79.5169 127.27Z" fill="url(#paint1_linear_224_8076)"/>
<path d="M141.457 108.786C141.457 109.485 140.889 110.051 140.189 110.051C139.488 110.051 138.92 109.485 138.92 108.786C138.92 108.088 139.488 107.521 140.189 107.521C140.889 107.521 141.457 108.088 141.457 108.786Z" fill="white" fill-opacity="0.1"/>
<path d="M110.486 1C91.7119 26.22 93.1695 74.3345 111.027 93.5222C92.805 92.2137 85.1519 73.9952 85.8077 67.2845V25.13C89.0879 8.34071 101.333 2.59895 110.486 1Z" fill="white" fill-opacity="0.17"/>
<path d="M128.126 5.65137C135.415 23.0219 149.774 68.9559 117.004 92.8677C135.227 91.5593 142.151 73.7044 141.495 66.9935V23.5308C139.934 13.3556 131.041 5.65137 128.126 5.65137Z" fill="#0067C4" fill-opacity="0.2"/>
<path d="M92.5529 29.0486C92.5529 29.8666 91.888 30.5293 91.068 30.5293C90.2477 30.5293 89.583 29.8666 89.583 29.0486C89.583 28.2309 90.2477 27.5679 91.068 27.5679C91.888 27.5679 92.5529 28.2309 92.5529 29.0486Z" fill="#0067C4"/>
<path d="M99.1519 29.0486C99.1519 29.8663 98.487 30.5293 97.6666 30.5293C96.8466 30.5293 96.1816 29.8663 96.1816 29.0486C96.1816 28.2306 96.8466 27.5679 97.6666 27.5679C98.487 27.5679 99.1519 28.2306 99.1519 29.0486Z" fill="#0067C4"/>
<path d="M105.753 29.0486C105.753 29.8663 105.088 30.5293 104.268 30.5293C103.448 30.5293 102.783 29.8663 102.783 29.0486C102.783 28.2306 103.448 27.5679 104.268 27.5679C105.088 27.5679 105.753 28.2306 105.753 29.0486Z" fill="#0067C4"/>
<path d="M112.353 29.0486C112.353 29.8663 111.688 30.5293 110.868 30.5293C110.048 30.5293 109.383 29.8663 109.383 29.0486C109.383 28.2306 110.048 27.5679 110.868 27.5679C111.688 27.5679 112.353 28.2306 112.353 29.0486Z" fill="#0067C4"/>
<path d="M118.953 29.0486C118.953 29.8663 118.288 30.5293 117.468 30.5293C116.648 30.5293 115.983 29.8663 115.983 29.0486C115.983 28.2306 116.648 27.5679 117.468 27.5679C118.288 27.5679 118.953 28.2306 118.953 29.0486Z" fill="#0067C4"/>
<path d="M125.551 29.0486C125.551 29.8663 124.887 30.5293 124.067 30.5293C123.246 30.5293 122.582 29.8663 122.582 29.0486C122.582 28.2306 123.246 27.5679 124.067 27.5679C124.887 27.5679 125.551 28.2306 125.551 29.0486Z" fill="#0067C4"/>
<path d="M132.153 29.0486C132.153 29.8663 131.488 30.5293 130.668 30.5293C129.848 30.5293 129.183 29.8663 129.183 29.0486C129.183 28.2306 129.848 27.5679 130.668 27.5679C131.488 27.5679 132.153 28.2306 132.153 29.0486Z" fill="#0067C4"/>
<path d="M137.761 29.0486C137.761 29.8663 137.097 30.5293 136.276 30.5293C135.456 30.5293 134.792 29.8663 134.792 29.0486C134.792 28.2306 135.456 27.5679 136.276 27.5679C137.097 27.5679 137.761 28.2306 137.761 29.0486Z" fill="#0067C4"/>
<path d="M92.5529 35.301C92.5529 36.119 91.888 36.7818 91.068 36.7818C90.2477 36.7818 89.583 36.119 89.583 35.301C89.583 34.4833 90.2477 33.8203 91.068 33.8203C91.888 33.8203 92.5529 34.4833 92.5529 35.301Z" fill="#6BA7DD"/>
<path d="M99.1519 35.301C99.1519 36.119 98.487 36.7818 97.6666 36.7818C96.8466 36.7818 96.1816 36.119 96.1816 35.301C96.1816 34.4833 96.8466 33.8203 97.6666 33.8203C98.487 33.8203 99.1519 34.4833 99.1519 35.301Z" fill="#B700DA"/>
<path d="M105.753 35.301C105.753 36.119 105.088 36.7818 104.268 36.7818C103.448 36.7818 102.783 36.119 102.783 35.301C102.783 34.4833 103.448 33.8203 104.268 33.8203C105.088 33.8203 105.753 34.4833 105.753 35.301Z" fill="#B700DA"/>
<path d="M112.353 35.301C112.353 36.119 111.688 36.7818 110.868 36.7818C110.048 36.7818 109.383 36.119 109.383 35.301C109.383 34.4833 110.048 33.8203 110.868 33.8203C111.688 33.8203 112.353 34.4833 112.353 35.301Z" fill="#6BA7DD"/>
<path d="M118.953 35.301C118.953 36.119 118.288 36.7818 117.468 36.7818C116.648 36.7818 115.983 36.119 115.983 35.301C115.983 34.4833 116.648 33.8203 117.468 33.8203C118.288 33.8203 118.953 34.4833 118.953 35.301Z" fill="#6BA7DD"/>
<path d="M125.551 35.301C125.551 36.119 124.887 36.7818 124.067 36.7818C123.246 36.7818 122.582 36.119 122.582 35.301C122.582 34.4833 123.246 33.8203 124.067 33.8203C124.887 33.8203 125.551 34.4833 125.551 35.301Z" fill="#6BA7DD"/>
<path d="M132.153 35.301C132.153 36.119 131.488 36.7818 130.668 36.7818C129.848 36.7818 129.183 36.119 129.183 35.301C129.183 34.4833 129.848 33.8203 130.668 33.8203C131.488 33.8203 132.153 34.4833 132.153 35.301Z" fill="#6BA7DD"/>
<path d="M137.761 35.301C137.761 36.119 137.097 36.7818 136.276 36.7818C135.456 36.7818 134.792 36.119 134.792 35.301C134.792 34.4833 135.456 33.8203 136.276 33.8203C137.097 33.8203 137.761 34.4833 137.761 35.301Z" fill="#6BA7DD"/>
<path d="M92.5529 41.5545C92.5529 42.3721 91.888 43.0352 91.068 43.0352C90.2477 43.0352 89.583 42.3721 89.583 41.5545C89.583 40.7368 90.2477 40.0737 91.068 40.0737C91.888 40.0737 92.5529 40.7368 92.5529 41.5545Z" fill="#6BA7DD"/>
<path d="M99.1519 41.5545C99.1519 42.3721 98.487 43.0352 97.6666 43.0352C96.8466 43.0352 96.1816 42.3721 96.1816 41.5545C96.1816 40.7368 96.8466 40.0737 97.6666 40.0737C98.487 40.0737 99.1519 40.7368 99.1519 41.5545Z" fill="#6BA7DD"/>
<path d="M105.753 41.5545C105.753 42.3721 105.088 43.0352 104.268 43.0352C103.448 43.0352 102.783 42.3721 102.783 41.5545C102.783 40.7368 103.448 40.0737 104.268 40.0737C105.088 40.0737 105.753 40.7368 105.753 41.5545Z" fill="#6BA7DD"/>
<path d="M112.353 41.5545C112.353 42.3721 111.688 43.0352 110.868 43.0352C110.048 43.0352 109.383 42.3721 109.383 41.5545C109.383 40.7368 110.048 40.0737 110.868 40.0737C111.688 40.0737 112.353 40.7368 112.353 41.5545Z" fill="#26D9FE"/>
<path d="M118.953 41.5545C118.953 42.3721 118.288 43.0352 117.468 43.0352C116.648 43.0352 115.983 42.3721 115.983 41.5545C115.983 40.7368 116.648 40.0737 117.468 40.0737C118.288 40.0737 118.953 40.7368 118.953 41.5545Z" fill="#26D9FE"/>
<path d="M125.551 41.5545C125.551 42.3721 124.887 43.0352 124.067 43.0352C123.246 43.0352 122.582 42.3721 122.582 41.5545C122.582 40.7368 123.246 40.0737 124.067 40.0737C124.887 40.0737 125.551 40.7368 125.551 41.5545Z" fill="#6BA7DD"/>
<path d="M132.153 41.5545C132.153 42.3721 131.488 43.0352 130.668 43.0352C129.848 43.0352 129.183 42.3721 129.183 41.5545C129.183 40.7368 129.848 40.0737 130.668 40.0737C131.488 40.0737 132.153 40.7368 132.153 41.5545Z" fill="#6BA7DD"/>
<path d="M137.761 41.5545C137.761 42.3721 137.097 43.0352 136.276 43.0352C135.456 43.0352 134.792 42.3721 134.792 41.5545C134.792 40.7368 135.456 40.0737 136.276 40.0737C137.097 40.0737 137.761 40.7368 137.761 41.5545Z" fill="#6BA7DD"/>
<path d="M92.5529 49.4495C92.5529 50.2672 91.888 50.9302 91.068 50.9302C90.2477 50.9302 89.583 50.2672 89.583 49.4495C89.583 48.6315 90.2477 47.9688 91.068 47.9688C91.888 47.9688 92.5529 48.6315 92.5529 49.4495Z" fill="#6BA7DD"/>
<path d="M99.1519 49.4495C99.1519 50.2675 98.487 50.9305 97.6666 50.9305C96.8466 50.9305 96.1816 50.2675 96.1816 49.4495C96.1816 48.6318 96.8466 47.9688 97.6666 47.9688C98.487 47.9688 99.1519 48.6318 99.1519 49.4495Z" fill="#6BA7DD"/>
<path d="M105.753 49.4495C105.753 50.2675 105.088 50.9305 104.268 50.9305C103.448 50.9305 102.783 50.2675 102.783 49.4495C102.783 48.6318 103.448 47.9688 104.268 47.9688C105.088 47.9688 105.753 48.6318 105.753 49.4495Z" fill="#6BA7DD"/>
<path d="M112.353 49.4495C112.353 50.2675 111.688 50.9305 110.868 50.9305C110.048 50.9305 109.383 50.2675 109.383 49.4495C109.383 48.6318 110.048 47.9688 110.868 47.9688C111.688 47.9688 112.353 48.6318 112.353 49.4495Z" fill="#6BA7DD"/>
<path d="M118.953 49.4495C118.953 50.2675 118.288 50.9305 117.468 50.9305C116.648 50.9305 115.983 50.2675 115.983 49.4495C115.983 48.6318 116.648 47.9688 117.468 47.9688C118.288 47.9688 118.953 48.6318 118.953 49.4495Z" fill="#6BA7DD"/>
<path d="M125.553 49.4495C125.553 50.2675 124.888 50.9305 124.068 50.9305C123.248 50.9305 122.583 50.2675 122.583 49.4495C122.583 48.6318 123.248 47.9688 124.068 47.9688C124.888 47.9688 125.553 48.6318 125.553 49.4495Z" fill="#6BA7DD"/>
<path d="M132.153 49.4495C132.153 50.2675 131.488 50.9305 130.668 50.9305C129.848 50.9305 129.183 50.2675 129.183 49.4495C129.183 48.6318 129.848 47.9688 130.668 47.9688C131.488 47.9688 132.153 48.6318 132.153 49.4495Z" fill="#6BA7DD"/>
<path d="M137.761 49.4495C137.761 50.2675 137.097 50.9305 136.276 50.9305C135.456 50.9305 134.792 50.2675 134.792 49.4495C134.792 48.6318 135.456 47.9688 136.276 47.9688C137.097 47.9688 137.761 48.6318 137.761 49.4495Z" fill="#6BA7DD"/>
<path d="M92.5529 55.7019C92.5529 56.5196 91.888 57.1826 91.068 57.1826C90.2477 57.1826 89.583 56.5196 89.583 55.7019C89.583 54.8839 90.2477 54.2212 91.068 54.2212C91.888 54.2212 92.5529 54.8839 92.5529 55.7019Z" fill="#B700DA"/>
<path d="M99.1519 55.7019C99.1519 56.5196 98.487 57.1826 97.6666 57.1826C96.8466 57.1826 96.1816 56.5196 96.1816 55.7019C96.1816 54.8839 96.8466 54.2212 97.6666 54.2212C98.487 54.2212 99.1519 54.8839 99.1519 55.7019Z" fill="#B700DA"/>
<path d="M105.753 55.7019C105.753 56.5196 105.088 57.1826 104.268 57.1826C103.448 57.1826 102.783 56.5196 102.783 55.7019C102.783 54.8839 103.448 54.2212 104.268 54.2212C105.088 54.2212 105.753 54.8839 105.753 55.7019Z" fill="#B700DA"/>
<path d="M112.353 55.7019C112.353 56.5196 111.688 57.1826 110.868 57.1826C110.048 57.1826 109.383 56.5196 109.383 55.7019C109.383 54.8839 110.048 54.2212 110.868 54.2212C111.688 54.2212 112.353 54.8839 112.353 55.7019Z" fill="#B700DA"/>
<path d="M118.953 55.7019C118.953 56.5196 118.288 57.1826 117.468 57.1826C116.648 57.1826 115.983 56.5196 115.983 55.7019C115.983 54.8839 116.648 54.2212 117.468 54.2212C118.288 54.2212 118.953 54.8839 118.953 55.7019Z" fill="#B700DA"/>
<path d="M125.553 55.7019C125.553 56.5196 124.888 57.1826 124.068 57.1826C123.248 57.1826 122.583 56.5196 122.583 55.7019C122.583 54.8839 123.248 54.2212 124.068 54.2212C124.888 54.2212 125.553 54.8839 125.553 55.7019Z" fill="#B700DA"/>
<path d="M132.153 55.7019C132.153 56.5196 131.488 57.1826 130.668 57.1826C129.848 57.1826 129.183 56.5196 129.183 55.7019C129.183 54.8839 129.848 54.2212 130.668 54.2212C131.488 54.2212 132.153 54.8839 132.153 55.7019Z" fill="#B700DA"/>
<path d="M137.761 55.7019C137.761 56.5196 137.097 57.1826 136.276 57.1826C135.456 57.1826 134.792 56.5196 134.792 55.7019C134.792 54.8839 135.456 54.2212 136.276 54.2212C137.097 54.2212 137.761 54.8839 137.761 55.7019Z" fill="#B700DA"/>
<path d="M92.5529 61.9544C92.5529 62.7721 91.888 63.4351 91.068 63.4351C90.2477 63.4351 89.583 62.7721 89.583 61.9544C89.583 61.1364 90.2477 60.4736 91.068 60.4736C91.888 60.4736 92.5529 61.1364 92.5529 61.9544Z" fill="#6BA7DD"/>
<path d="M99.1519 61.9544C99.1519 62.7721 98.487 63.4351 97.6666 63.4351C96.8466 63.4351 96.1816 62.7721 96.1816 61.9544C96.1816 61.1364 96.8466 60.4736 97.6666 60.4736C98.487 60.4736 99.1519 61.1364 99.1519 61.9544Z" fill="#6BA7DD"/>
<path d="M105.753 61.9544C105.753 62.7721 105.088 63.4351 104.268 63.4351C103.448 63.4351 102.783 62.7721 102.783 61.9544C102.783 61.1364 103.448 60.4736 104.268 60.4736C105.088 60.4736 105.753 61.1364 105.753 61.9544Z" fill="#6BA7DD"/>
<path d="M112.353 61.9544C112.353 62.7721 111.688 63.4351 110.868 63.4351C110.048 63.4351 109.383 62.7721 109.383 61.9544C109.383 61.1364 110.048 60.4736 110.868 60.4736C111.688 60.4736 112.353 61.1364 112.353 61.9544Z" fill="#6BA7DD"/>
<path d="M118.953 61.9544C118.953 62.7721 118.288 63.4351 117.468 63.4351C116.648 63.4351 115.983 62.7721 115.983 61.9544C115.983 61.1364 116.648 60.4736 117.468 60.4736C118.288 60.4736 118.953 61.1364 118.953 61.9544Z" fill="#6BA7DD"/>
<path d="M125.553 61.9544C125.553 62.7721 124.888 63.4351 124.068 63.4351C123.248 63.4351 122.583 62.7721 122.583 61.9544C122.583 61.1364 123.248 60.4736 124.068 60.4736C124.888 60.4736 125.553 61.1364 125.553 61.9544Z" fill="#26D9FE"/>
<path d="M132.153 61.9544C132.153 62.7721 131.488 63.4351 130.668 63.4351C129.848 63.4351 129.183 62.7721 129.183 61.9544C129.183 61.1364 129.848 60.4736 130.668 60.4736C131.488 60.4736 132.153 61.1364 132.153 61.9544Z" fill="#26D9FE"/>
<path d="M137.761 61.9544C137.761 62.7721 137.097 63.4351 136.276 63.4351C135.456 63.4351 134.792 62.7721 134.792 61.9544C134.792 61.1364 135.456 60.4736 136.276 60.4736C137.097 60.4736 137.761 61.1364 137.761 61.9544Z" fill="#6BA7DD"/>
<path d="M92.552 69.8523C92.552 70.6703 91.8873 71.3333 91.067 71.3333C90.247 71.3333 89.582 70.6703 89.582 69.8523C89.582 69.0346 90.247 68.3716 91.067 68.3716C91.8873 68.3716 92.552 69.0346 92.552 69.8523Z" fill="#6BA7DD"/>
<path d="M99.1516 69.8523C99.1516 70.6703 98.4867 71.3333 97.6666 71.3333C96.8466 71.3333 96.1816 70.6703 96.1816 69.8523C96.1816 69.0346 96.8466 68.3716 97.6666 68.3716C98.4867 68.3716 99.1516 69.0346 99.1516 69.8523Z" fill="#6BA7DD"/>
<path d="M105.752 69.8523C105.752 70.6703 105.088 71.3333 104.267 71.3333C103.447 71.3333 102.782 70.6703 102.782 69.8523C102.782 69.0346 103.447 68.3716 104.267 68.3716C105.088 68.3716 105.752 69.0346 105.752 69.8523Z" fill="#B700DA"/>
<path d="M112.352 69.8523C112.352 70.6703 111.687 71.3333 110.867 71.3333C110.047 71.3333 109.382 70.6703 109.382 69.8523C109.382 69.0346 110.047 68.3716 110.867 68.3716C111.687 68.3716 112.352 69.0346 112.352 69.8523Z" fill="#B700DA"/>
<path d="M118.952 69.8523C118.952 70.6703 118.287 71.3333 117.467 71.3333C116.647 71.3333 115.982 70.6703 115.982 69.8523C115.982 69.0346 116.647 68.3716 117.467 68.3716C118.287 68.3716 118.952 69.0346 118.952 69.8523Z" fill="#6BA7DD"/>
<path d="M125.551 69.8523C125.551 70.6703 124.887 71.3333 124.067 71.3333C123.246 71.3333 122.582 70.6703 122.582 69.8523C122.582 69.0346 123.246 68.3716 124.067 68.3716C124.887 68.3716 125.551 69.0346 125.551 69.8523Z" fill="#6BA7DD"/>
<path d="M132.152 69.8523C132.152 70.6703 131.487 71.3333 130.667 71.3333C129.847 71.3333 129.182 70.6703 129.182 69.8523C129.182 69.0346 129.847 68.3716 130.667 68.3716C131.487 68.3716 132.152 69.0346 132.152 69.8523Z" fill="#6BA7DD"/>
<path d="M137.762 69.8523C137.762 70.6703 137.097 71.3333 136.276 71.3333C135.456 71.3333 134.792 70.6703 134.792 69.8523C134.792 69.0346 135.456 68.3716 136.276 68.3716C137.097 68.3716 137.762 69.0346 137.762 69.8523Z" fill="#6BA7DD"/>
<path d="M95.5217 76.1052C95.5217 76.9232 94.8568 77.5863 94.0367 77.5863C93.2167 77.5863 92.5518 76.9232 92.5518 76.1052C92.5518 75.2875 93.2167 74.6245 94.0367 74.6245C94.8568 74.6245 95.5217 75.2875 95.5217 76.1052Z" fill="#26D9FE"/>
<path d="M100.637 76.1052C100.637 76.9229 99.972 77.586 99.152 77.586C98.3316 77.586 97.667 76.9229 97.667 76.1052C97.667 75.2875 98.3316 74.6245 99.152 74.6245C99.972 74.6245 100.637 75.2875 100.637 76.1052Z" fill="#26D9FE"/>
<path d="M106.412 76.1052C106.412 76.9229 105.747 77.586 104.927 77.586C104.106 77.586 103.441 76.9229 103.441 76.1052C103.441 75.2875 104.106 74.6245 104.927 74.6245C105.747 74.6245 106.412 75.2875 106.412 76.1052Z" fill="#26D9FE"/>
<path d="M111.857 76.1052C111.857 76.9229 111.193 77.586 110.372 77.586C109.552 77.586 108.887 76.9229 108.887 76.1052C108.887 75.2875 109.552 74.6245 110.372 74.6245C111.193 74.6245 111.857 75.2875 111.857 76.1052Z" fill="#26D9FE"/>
<path d="M117.467 76.1052C117.467 76.9229 116.802 77.586 115.982 77.586C115.162 77.586 114.497 76.9229 114.497 76.1052C114.497 75.2875 115.162 74.6245 115.982 74.6245C116.802 74.6245 117.467 75.2875 117.467 76.1052Z" fill="#26D9FE"/>
<path d="M123.078 76.1052C123.078 76.9229 122.413 77.586 121.593 77.586C120.773 77.586 120.108 76.9229 120.108 76.1052C120.108 75.2875 120.773 74.6245 121.593 74.6245C122.413 74.6245 123.078 75.2875 123.078 76.1052Z" fill="#26D9FE"/>
<path d="M128.852 76.1052C128.852 76.9229 128.187 77.586 127.367 77.586C126.547 77.586 125.882 76.9229 125.882 76.1052C125.882 75.2875 126.547 74.6245 127.367 74.6245C128.187 74.6245 128.852 75.2875 128.852 76.1052Z" fill="#26D9FE"/>
<path d="M135.122 76.1052C135.122 76.9229 134.458 77.586 133.637 77.586C132.817 77.586 132.152 76.9229 132.152 76.1052C132.152 75.2875 132.817 74.6245 133.637 74.6245C134.458 74.6245 135.122 75.2875 135.122 76.1052Z" fill="#26D9FE"/>
<path d="M95.1916 23.4553C95.1916 24.273 94.527 24.9361 93.7067 24.9361C92.8866 24.9361 92.2217 24.273 92.2217 23.4553C92.2217 22.6376 92.8866 21.9746 93.7067 21.9746C94.527 21.9746 95.1916 22.6376 95.1916 23.4553Z" fill="#6BA7DD"/>
<path d="M100.308 23.4553C100.308 24.273 99.6432 24.9361 98.8232 24.9361C98.0028 24.9361 97.3379 24.273 97.3379 23.4553C97.3379 22.6376 98.0028 21.9746 98.8232 21.9746C99.6432 21.9746 100.308 22.6376 100.308 23.4553Z" fill="#6BA7DD"/>
<path d="M106.083 23.4553C106.083 24.273 105.418 24.9361 104.598 24.9361C103.778 24.9361 103.113 24.273 103.113 23.4553C103.113 22.6376 103.778 21.9746 104.598 21.9746C105.418 21.9746 106.083 22.6376 106.083 23.4553Z" fill="#6BA7DD"/>
<path d="M111.528 23.4553C111.528 24.273 110.863 24.9361 110.043 24.9361C109.222 24.9361 108.558 24.273 108.558 23.4553C108.558 22.6376 109.222 21.9746 110.043 21.9746C110.863 21.9746 111.528 22.6376 111.528 23.4553Z" fill="#6BA7DD"/>
<path d="M117.137 23.4553C117.137 24.273 116.472 24.9361 115.652 24.9361C114.832 24.9361 114.167 24.273 114.167 23.4553C114.167 22.6376 114.832 21.9746 115.652 21.9746C116.472 21.9746 117.137 22.6376 117.137 23.4553Z" fill="#6BA7DD"/>
<path d="M122.748 23.4553C122.748 24.273 122.083 24.9361 121.263 24.9361C120.443 24.9361 119.778 24.273 119.778 23.4553C119.778 22.6376 120.443 21.9746 121.263 21.9746C122.083 21.9746 122.748 22.6376 122.748 23.4553Z" fill="#6BA7DD"/>
<path d="M128.523 23.4553C128.523 24.273 127.858 24.9361 127.038 24.9361C126.218 24.9361 125.553 24.273 125.553 23.4553C125.553 22.6376 126.218 21.9746 127.038 21.9746C127.858 21.9746 128.523 22.6376 128.523 23.4553Z" fill="#6BA7DD"/>
<path d="M134.792 23.4553C134.792 24.273 134.127 24.9361 133.307 24.9361C132.487 24.9361 131.822 24.273 131.822 23.4553C131.822 22.6376 132.487 21.9746 133.307 21.9746C134.127 21.9746 134.792 22.6376 134.792 23.4553Z" fill="#6BA7DD"/>
<path d="M114.417 103.552C115.094 101.432 114.654 97.3805 116.677 98.3196C117.952 98.9115 118.254 100.822 118.254 101.549V119.69H113.438C113.438 119.69 112.328 110.098 114.417 103.552Z" fill="black" fill-opacity="0.21"/>
<defs>
<linearGradient id="paint0_linear_224_8076" x1="160.666" y1="48.0452" x2="82.5039" y2="145.881" gradientUnits="userSpaceOnUse">
<stop stop-color="#97EDFF"/>
<stop offset="1" stop-color="#F7D9FF"/>
</linearGradient>
<linearGradient id="paint1_linear_224_8076" x1="77.1257" y1="129.773" x2="77.1257" y2="124.309" gradientUnits="userSpaceOnUse">
<stop stop-color="#AC06D9"/>
<stop offset="0.5" stop-color="#0067C4"/>
<stop offset="0.5769" stop-color="#0370C9"/>
<stop offset="0.7029" stop-color="#0B89D5"/>
<stop offset="0.8614" stop-color="#19B1E9"/>
<stop offset="1" stop-color="#26D9FE"/>
</linearGradient>
</defs>
</svg>
