<svg width="96" height="96" viewBox="0 0 96 96" fill="none" xmlns="http://www.w3.org/2000/svg">
<path d="M71.3333 75.4668L73.728 80.0594L79.0833 80.7957L75.2083 84.37L76.1228 89.4168L71.3333 87.0344L66.5438 89.4168L67.4583 84.37L63.5833 80.7957L68.9385 80.0594L71.3333 75.4668Z" fill="#FDCA59"/>
<path d="M48.0834 72.3664C67.7723 72.3664 83.7334 56.4054 83.7334 36.7164C83.7334 17.0275 67.7723 1.06641 48.0834 1.06641C28.3944 1.06641 12.4333 17.0275 12.4333 36.7164C12.4333 56.4054 28.3944 72.3664 48.0834 72.3664Z" fill="url(#paint0_linear_763_5684)"/>
<path d="M48.0833 66.1666C64.3481 66.1666 77.5333 52.9814 77.5333 36.7166C77.5333 20.4518 64.3481 7.2666 48.0833 7.2666C31.8185 7.2666 18.6333 20.4518 18.6333 36.7166C18.6333 52.9814 31.8185 66.1666 48.0833 66.1666Z" fill="white" fill-opacity="0.32"/>
<path d="M63.6608 51.5411L52.7333 47.5669V43.4082C51.2823 44.1051 49.6931 44.4669 48.0833 44.4669C46.4736 44.4669 44.8844 44.1051 43.4333 43.4082V47.5669L32.5058 51.5411C31.2186 52.0109 30.0514 52.7599 29.0879 53.7343C28.1245 54.7087 27.3888 55.8844 26.9336 57.1769C29.6746 60.0186 32.9602 62.2788 36.5942 63.8225C40.2281 65.3662 44.1359 66.1619 48.0841 66.1619C52.0324 66.1619 55.9401 65.3662 59.5741 63.8225C63.208 62.2788 66.4936 60.0186 69.2346 57.1769C68.7789 55.8844 68.0428 54.7089 67.0792 53.7345C66.1155 52.7601 64.9482 52.011 63.6608 51.5411Z" fill="#F2F2F2"/>
<path d="M58.9332 28.9666V33.6166C58.9332 36.4942 57.79 39.2539 55.7553 41.2887C53.7205 43.3235 50.9608 44.4666 48.0832 44.4666C45.2056 44.4666 42.4458 43.3235 40.411 41.2887C38.3763 39.2539 37.2332 36.4942 37.2332 33.6166V28.9666H38.0516C40.1344 28.9664 42.1761 28.3863 43.9479 27.2912C45.7196 26.1962 47.1515 24.6295 48.0832 22.7666C49.0148 24.6295 50.4467 26.1962 52.2185 27.2912C53.9902 28.3863 56.0319 28.9664 58.1148 28.9666H58.9332Z" fill="#FDDFB1"/>
<path d="M48.0833 44.4666C46.4737 44.4649 44.8849 44.1032 43.4333 43.408V47.5666L48.0833 52.2166L52.7333 47.5666V43.408C51.2816 44.1032 49.6928 44.4649 48.0833 44.4666ZM37.2333 33.6166V30.5166H35.6833C34.8611 30.5166 34.0726 30.8432 33.4912 31.4246C32.9099 32.0059 32.5833 32.7944 32.5833 33.6166C32.5833 34.4388 32.9099 35.2273 33.4912 35.8086C34.0726 36.39 34.8611 36.7166 35.6833 36.7166H37.689C37.3876 35.7108 37.2341 34.6666 37.2333 33.6166ZM60.4833 30.5166H58.9333V33.6166C58.9324 34.6666 58.7789 35.7108 58.4776 36.7166H60.4833C61.3054 36.7166 62.0939 36.39 62.6753 35.8086C63.2566 35.2273 63.5833 34.4388 63.5833 33.6166C63.5833 32.7944 63.2566 32.0059 62.6753 31.4246C62.0939 30.8432 61.3054 30.5166 60.4833 30.5166Z" fill="#FDDFB1"/>
<path d="M55.9588 48.7398L52.7333 47.5664L48.0833 52.2164L54.2833 53.7664L55.9588 48.7398Z" fill="#CCCCCC"/>
<path d="M46.5334 56.8662L45.0098 66.0112C47.0528 66.2241 49.1125 66.2241 51.1555 66.0112L49.6334 56.8662H46.5334Z" fill="#D24034"/>
<path d="M48.0834 22.7666C47.1518 24.6295 45.7199 26.1962 43.9481 27.2912C42.1763 28.3863 40.1347 28.9664 38.0518 28.9666H37.2334V33.6166C37.2351 35.2262 37.5968 36.8149 38.292 38.2666H48.0834C49.7277 38.2666 51.3047 37.6134 52.4675 36.4507C53.6302 35.2879 54.2834 33.7109 54.2834 32.0666V28.2645C51.5896 27.2923 49.3708 25.3247 48.0834 22.7666Z" fill="#FDE5C1"/>
<path d="M61.2582 19.6738C60.0935 17.3431 58.3027 15.3828 56.0866 14.0126C53.8704 12.6424 51.3165 11.9164 48.711 11.916H47.4632C45.3308 11.9162 43.2265 12.4024 41.31 13.3376C39.3936 14.2728 37.7155 15.6324 36.4032 17.3132C35.0909 18.994 34.1788 20.9517 33.7364 23.0377C33.2939 25.1237 33.3326 27.2832 33.8496 29.352L34.1332 30.516H37.2332V28.966H38.0516C40.1345 28.9658 42.1761 28.3857 43.9479 27.2907C45.7197 26.1956 47.1516 24.6289 48.0832 22.766C49.0148 24.6289 50.4467 26.1956 52.2185 27.2907C53.9903 28.3857 56.032 28.9658 58.1148 28.966H58.9332V30.516H62.0332L62.3246 29.352C63.1361 26.1021 62.7578 22.669 61.2582 19.6738Z" fill="#74574A"/>
<path d="M40.2078 48.7398L41.8833 53.7664L48.0833 52.2164L43.4333 47.5664L40.2078 48.7398Z" fill="#CCCCCC"/>
<path d="M48.0832 52.2168L45.2219 52.9329L46.5332 56.8668H49.6332L50.9445 52.9329L48.0832 52.2168Z" fill="#AA2B24"/>
<path d="M69.7833 84.7668C70.6054 84.7668 71.3939 84.4402 71.9753 83.8588C72.5566 83.2775 72.8833 82.489 72.8833 81.6668V78.4381L71.3333 75.4668L68.9385 80.0594L63.5833 80.7957L67.4583 84.37L67.387 84.7668H69.7833Z" fill="black" fill-opacity="0.05"/>
<path d="M48.0833 80.1162L50.478 84.7089L55.8333 85.4451L51.9583 89.0194L52.8728 94.0662L48.0833 91.6839L43.2938 94.0662L44.2083 89.0194L40.3333 85.4451L45.6885 84.7089L48.0833 80.1162Z" fill="#FDCA59"/>
<path d="M46.5333 89.4162C47.3554 89.4162 48.1439 89.0896 48.7253 88.5082C49.3066 87.9269 49.6333 87.1384 49.6333 86.3162V83.0876L48.0833 80.1162L45.6885 84.7089L40.3333 85.4451L44.2083 89.0194L44.137 89.4162H46.5333Z" fill="black" fill-opacity="0.05"/>
<path d="M24.8333 75.4668L27.228 80.0594L32.5833 80.7957L28.7083 84.37L29.6228 89.4168L24.8333 87.0344L20.0438 89.4168L20.9583 84.37L17.0833 80.7957L22.4385 80.0594L24.8333 75.4668Z" fill="#FDCA59"/>
<path d="M23.2833 84.7668C24.1054 84.7668 24.8939 84.4402 25.4753 83.8588C26.0566 83.2775 26.3833 82.489 26.3833 81.6668V78.4381L24.8333 75.4668L22.4385 80.0594L17.0833 80.7957L20.9583 84.37L20.887 84.7668H23.2833Z" fill="black" fill-opacity="0.05"/>
<defs>
<linearGradient id="paint0_linear_763_5684" x1="17.9552" y1="78.1789" x2="98.1248" y2="74.834" gradientUnits="userSpaceOnUse">
<stop stop-color="#AC06D9"/>
<stop offset="0.5" stop-color="#0067C4"/>
<stop offset="0.5769" stop-color="#0370C9"/>
<stop offset="0.7029" stop-color="#0B89D5"/>
<stop offset="0.8614" stop-color="#19B1E9"/>
<stop offset="1" stop-color="#26D9FE"/>
</linearGradient>
</defs>
</svg>
