<svg width="230" height="97" viewBox="0 0 230 97" fill="none" xmlns="http://www.w3.org/2000/svg">
<path d="M23.6782 20.9312C23.6782 15.4985 28.0951 11.0942 33.5435 11.0942H195.051C200.499 11.0942 204.916 15.4985 204.916 20.9312V86.1364C204.916 91.5692 200.499 95.9731 195.051 95.9731H33.5435C28.0951 95.9731 23.6782 91.5692 23.6782 86.1361V20.9312Z" fill="url(#paint0_linear_224_8379)"/>
<path d="M41.5754 95.8322L26.3549 14.4663C25.2275 15.3093 24.2946 17.0176 23.6772 20.0872V86.557C24.241 91.335 26.7779 94.0051 30.5829 95.8322H41.5754Z" fill="white" fill-opacity="0.06"/>
<path d="M43.5478 17.8382L38.1924 11.374H183.07L186.734 17.8382H43.5478Z" fill="white" fill-opacity="0.06"/>
<path d="M43.2842 17.0547H186.756V90.7314H43.2842V17.0547Z" fill="url(#paint1_linear_224_8379)"/>
<path d="M102.826 35.8897C102.826 35.0997 103.468 34.459 104.261 34.459H159.497C160.29 34.459 160.932 35.0997 160.932 35.8897C160.932 36.6798 160.29 37.3202 159.497 37.3202H104.261C103.468 37.3202 102.826 36.6798 102.826 35.8897Z" fill="#C9E2F6"/>
<path d="M102.826 40.4213C102.826 39.763 103.361 39.229 104.021 39.229H135.346C136.006 39.229 136.542 39.763 136.542 40.4213C136.542 41.0796 136.006 41.6136 135.346 41.6136H104.021C103.361 41.6136 102.826 41.0796 102.826 40.4213Z" fill="#C9E2F6"/>
<path d="M102.826 47.2166C102.826 46.8873 103.093 46.6206 103.424 46.6206H160.334C160.664 46.6206 160.932 46.8873 160.932 47.2166C160.932 47.5459 160.664 47.8126 160.334 47.8126H103.424C103.093 47.8126 102.826 47.5459 102.826 47.2166Z" fill="#C9E2F6"/>
<path d="M102.826 51.2711C102.826 50.9418 103.093 50.6748 103.424 50.6748H160.334C160.664 50.6748 160.932 50.9418 160.932 51.2711C160.932 51.6001 160.664 51.8671 160.334 51.8671H103.424C103.093 51.8671 102.826 51.6001 102.826 51.2711Z" fill="#C9E2F6"/>
<path d="M102.826 55.3226C102.826 54.9932 103.093 54.7266 103.424 54.7266H160.334C160.664 54.7266 160.932 54.9932 160.932 55.3226C160.932 55.6519 160.664 55.9186 160.334 55.9186H103.424C103.093 55.9186 102.826 55.6519 102.826 55.3226Z" fill="#C9E2F6"/>
<path d="M102.826 59.3768C102.826 59.0474 103.093 58.7808 103.424 58.7808H160.334C160.664 58.7808 160.932 59.0474 160.932 59.3768C160.932 59.7061 160.664 59.9727 160.334 59.9727H103.424C103.093 59.9727 102.826 59.7061 102.826 59.3768Z" fill="#C9E2F6"/>
<path d="M102.826 73.0879H159.736V73.8033H102.826V73.0879Z" fill="#071549"/>
<path d="M133.671 73.5628C133.671 74.8794 132.6 75.9471 131.279 75.9471C129.959 75.9471 128.888 74.8794 128.888 73.5628C128.888 72.2458 129.959 71.1782 131.279 71.1782C132.6 71.1782 133.671 72.2458 133.671 73.5628Z" fill="#B5CDFB"/>
<path d="M39.6949 55.919C39.6949 59.3427 36.9113 62.1183 33.4778 62.1183C30.044 62.1183 27.2607 59.3427 27.2607 55.919C27.2607 52.4951 30.044 49.7197 33.4778 49.7197C36.9113 49.7197 39.6949 52.4951 39.6949 55.919Z" fill="white" fill-opacity="0.75"/>
<path fill-rule="evenodd" clip-rule="evenodd" d="M230 96.9991H0V95.5063H230V96.9991Z" fill="#071549"/>
<path d="M195.612 55.0808C195.612 55.7791 195.045 56.3454 194.344 56.3454C193.644 56.3454 193.076 55.7791 193.076 55.0808C193.076 54.3822 193.644 53.8159 194.344 53.8159C195.045 53.8159 195.612 54.3822 195.612 55.0808Z" fill="white" fill-opacity="0.1"/>
<path d="M146.707 1.99587C146.707 2.81356 146.042 3.47659 145.222 3.47659C144.401 3.47659 143.737 2.81356 143.737 1.99587C143.737 1.17788 144.401 0.515137 145.222 0.515137C146.042 0.515137 146.707 1.17788 146.707 1.99587Z" fill="#26D9FE" fill-opacity="0.51"/>
<path d="M153.308 1.99587C153.308 2.81356 152.643 3.47659 151.822 3.47659C151.002 3.47659 150.337 2.81356 150.337 1.99587C150.337 1.17788 151.002 0.515137 151.822 0.515137C152.643 0.515137 153.308 1.17788 153.308 1.99587Z" fill="#26D9FE" fill-opacity="0.51"/>
<path d="M146.707 8.2488C146.707 9.06649 146.042 9.72952 145.222 9.72952C144.401 9.72952 143.737 9.06649 143.737 8.2488C143.737 7.43081 144.401 6.76807 145.222 6.76807C146.042 6.76807 146.707 7.43081 146.707 8.2488Z" fill="#26D9FE" fill-opacity="0.51"/>
<path d="M153.308 8.2488C153.308 9.06649 152.643 9.72952 151.822 9.72952C151.002 9.72952 150.337 9.06649 150.337 8.2488C150.337 7.43081 151.002 6.76807 151.822 6.76807C152.643 6.76807 153.308 7.43081 153.308 8.2488Z" fill="#26D9FE" fill-opacity="0.51"/>
<path d="M59.7339 49.512C59.7339 48.5367 60.5268 47.7461 61.5049 47.7461H87.3612C88.3393 47.7461 89.1324 48.5367 89.1324 49.512V62.933C89.1324 63.9083 88.3393 64.6989 87.3612 64.6989H61.5049C60.5268 64.6989 59.7339 63.9083 59.7339 62.933V49.512Z" fill="#C4B6FF"/>
<path d="M59.7339 49.512C59.7339 48.5367 60.5268 47.7461 61.5049 47.7461H87.3612C88.3393 47.7461 89.1324 48.5367 89.1324 49.512V62.933C89.1324 63.9083 88.3393 64.6989 87.3612 64.6989H61.5049C60.5268 64.6989 59.7339 63.9083 59.7339 62.933V49.512Z" fill="black" fill-opacity="0.5"/>
<path d="M59.4795 48.2235C59.4795 47.1325 60.379 46.248 61.4886 46.248H90.0174C91.1269 46.248 92.0263 47.1325 92.0263 48.2235V62.4467C92.0263 63.5377 91.1269 64.4221 90.0174 64.4221H61.4886C60.379 64.4221 59.4795 63.5377 59.4795 62.4467V48.2235Z" fill="url(#paint2_linear_224_8379)"/>
<path fill-rule="evenodd" clip-rule="evenodd" d="M71.2241 52.7765C71.6486 52.9061 71.8781 53.3262 71.7367 53.7148L69.9134 58.7216C69.7718 59.1103 69.3129 59.3203 68.8883 59.1908C68.4637 59.0612 68.2343 58.6411 68.3758 58.2525L70.199 53.2457C70.3406 52.857 70.7995 52.647 71.2241 52.7765ZM66.1376 52.9259C66.4721 53.198 66.5023 53.6669 66.2049 53.973L64.2524 55.9836L66.2049 57.9943C66.5023 58.3005 66.4721 58.7693 66.1376 59.0415C65.8031 59.3136 65.2909 59.286 64.9936 58.9799L62.084 55.9836L64.9936 52.9875C65.2909 52.6813 65.8031 52.6537 66.1376 52.9259ZM73.1196 52.9654C73.4301 52.6705 73.9431 52.6619 74.2652 52.9463L77.7065 55.9836L74.2652 59.021C73.9431 59.3054 73.1196 59.0019 73.1196 59.0019C73.1196 59.0019 72.8182 58.2375 73.1403 57.9531L75.3716 55.9836L73.1403 54.0142C72.8182 53.7298 72.8088 53.2602 73.1196 52.9654Z" fill="#BDF6FF"/>
<path d="M86.3585 59.5497C87.1823 59.5497 87.8502 58.8837 87.8502 58.0622C87.8502 57.2407 87.1823 56.5747 86.3585 56.5747C85.5346 56.5747 84.8667 57.2407 84.8667 58.0622C84.8667 58.8837 85.5346 59.5497 86.3585 59.5497Z" fill="#FEF7FF"/>
<path d="M79.794 61.3339C80.6179 61.3339 81.2858 60.6679 81.2858 59.8464C81.2858 59.0249 80.6179 58.3589 79.794 58.3589C78.9701 58.3589 78.3022 59.0249 78.3022 59.8464C78.3022 60.6679 78.9701 61.3339 79.794 61.3339Z" fill="#FEF7FF"/>
<path fill-rule="evenodd" clip-rule="evenodd" d="M86.359 57.1719C85.8647 57.1719 85.4639 57.5715 85.4639 58.0644C85.4639 58.5573 85.8647 58.9569 86.359 58.9569C86.8533 58.9569 87.254 58.5573 87.254 58.0644C87.254 57.5715 86.8533 57.1719 86.359 57.1719ZM84.2705 58.0644C84.2705 56.9143 85.2055 55.9819 86.359 55.9819C87.5124 55.9819 88.4474 56.9143 88.4474 58.0644C88.4474 59.2145 87.5124 60.1469 86.359 60.1469C85.2055 60.1469 84.2705 59.2145 84.2705 58.0644Z" fill="#FEF7FF"/>
<path fill-rule="evenodd" clip-rule="evenodd" d="M79.7945 58.9561C79.3002 58.9561 78.8995 59.3557 78.8995 59.8486C78.8995 60.3415 79.3002 60.7411 79.7945 60.7411C80.2888 60.7411 80.6896 60.3415 80.6896 59.8486C80.6896 59.3557 80.2888 58.9561 79.7945 58.9561ZM77.7061 59.8486C77.7061 58.6985 78.6411 57.7661 79.7945 57.7661C80.9479 57.7661 81.883 58.6985 81.883 59.8486C81.883 60.9987 80.9479 61.9311 79.7945 61.9311C78.6411 61.9311 77.7061 60.9987 77.7061 59.8486Z" fill="#FEF7FF"/>
<path fill-rule="evenodd" clip-rule="evenodd" d="M87.8491 48.8418C88.1787 48.8418 88.4458 49.1082 88.4458 49.4368V58.0642C88.4458 58.3928 88.1787 58.6592 87.8491 58.6592C87.5196 58.6592 87.2524 58.3928 87.2524 58.0642V49.4368C87.2524 49.1082 87.5196 48.8418 87.8491 48.8418Z" fill="#FEF7FF"/>
<path fill-rule="evenodd" clip-rule="evenodd" d="M81.2866 50.626C81.6162 50.626 81.8833 50.8924 81.8833 51.221V59.8484C81.8833 60.177 81.6162 60.4434 81.2866 60.4434C80.9571 60.4434 80.6899 60.177 80.6899 59.8484V51.221C80.6899 50.8924 80.9571 50.626 81.2866 50.626Z" fill="#FEF7FF"/>
<path fill-rule="evenodd" clip-rule="evenodd" d="M88.4262 49.2804C88.5129 49.5974 88.3254 49.9245 88.0075 50.011L81.4438 51.7959C81.1259 51.8824 80.7978 51.6955 80.7111 51.3785C80.6244 51.0614 80.8119 50.7344 81.1298 50.6479L87.6935 48.8629C88.0114 48.7765 88.3395 48.9634 88.4262 49.2804Z" fill="#FEF7FF"/>
<defs>
<linearGradient id="paint0_linear_224_8379" x1="200.928" y1="15.9423" x2="71.3511" y2="144.376" gradientUnits="userSpaceOnUse">
<stop stop-color="#0370C9"/>
<stop offset="1" stop-color="#0F2648"/>
</linearGradient>
<linearGradient id="paint1_linear_224_8379" x1="181.074" y1="17.7628" x2="34.4247" y2="58.0752" gradientUnits="userSpaceOnUse">
<stop stop-color="#FBECFF"/>
<stop offset="1" stop-color="#E0FAFF"/>
</linearGradient>
<linearGradient id="paint2_linear_224_8379" x1="59.4795" y1="65.0712" x2="92.6355" y2="47.4676" gradientUnits="userSpaceOnUse">
<stop stop-color="#AC06D9"/>
<stop offset="0.5" stop-color="#0067C4"/>
<stop offset="0.5769" stop-color="#0370C9"/>
<stop offset="0.7029" stop-color="#0B89D5"/>
<stop offset="0.8614" stop-color="#19B1E9"/>
<stop offset="1" stop-color="#26D9FE"/>
</linearGradient>
</defs>
</svg>
