<svg width="128" height="128" viewBox="0 0 128 128" fill="none" xmlns="http://www.w3.org/2000/svg">
<rect x="2" y="2" width="124" height="124" rx="16" fill="url(#paint0_linear_917_5292)" fill-opacity="0.12"/>
<rect x="1.25" y="1.25" width="125.5" height="125.5" rx="16.75" stroke="url(#paint1_linear_917_5292)" stroke-opacity="0.6" stroke-width="1.5"/>
<rect x="1.25" y="1.25" width="125.5" height="125.5" rx="16.75" stroke="url(#paint2_linear_917_5292)" stroke-opacity="0.6" stroke-width="1.5"/>
<path d="M77.5226 52.5H66.1634L59.2261 49.8651C58.4227 49.7054 57.6057 49.6249 56.7866 49.625H49.625C47.7188 49.625 45.8906 50.3823 44.5427 51.7302C43.1948 53.0781 42.4375 54.9063 42.4375 56.8125V69.75C42.4375 70.5125 42.7404 71.2438 43.2796 71.7829C43.8187 72.3221 44.55 72.625 45.3125 72.625H47.9503C48.2851 73.4865 48.8924 74.215 49.6796 74.6993L46.75 85.5625L42.4375 95.625H48.1875L52.5 87L55.4152 76.8455L59.6875 78.375L65.4375 88.4375H72.625C72.5819 87.8812 65.9507 73.9489 65.5654 73.5551L60.4465 69.75V56.6328L66.0226 58.25L77.8057 57.0626C78.3846 56.9912 78.9143 56.7016 79.2869 56.2529C79.6595 55.8042 79.8469 55.2302 79.8107 54.6481C79.7746 54.066 79.5177 53.5196 79.0925 53.1204C78.6673 52.7212 78.1058 52.4993 77.5226 52.5Z" fill="#26D9FE"/>
<path d="M77.5226 52.5H66.1634L59.2261 49.8651C58.4227 49.7054 57.6057 49.6249 56.7866 49.625H49.625C47.7188 49.625 45.8906 50.3823 44.5427 51.7302C43.1948 53.0781 42.4375 54.9063 42.4375 56.8125V69.75C42.4375 70.5125 42.7404 71.2438 43.2796 71.7829C43.8187 72.3221 44.55 72.625 45.3125 72.625H47.9503C48.2116 73.3156 48.6462 73.9273 49.2125 74.4011C49.7787 74.8749 50.4574 75.195 51.1832 75.3304L59.6875 78.375L65.4375 88.4375H72.625C72.5819 87.8812 65.9507 73.9489 65.5654 73.5551L60.4465 69.75V56.6328L66.0226 58.25L77.8057 57.0626C78.3846 56.9912 78.9143 56.7016 79.2869 56.2529C79.6595 55.8042 79.8469 55.2302 79.8107 54.6481C79.7746 54.066 79.5177 53.5196 79.0925 53.1204C78.6673 52.7212 78.1058 52.4993 77.5226 52.5Z" fill="#26D9FE"/>
<path d="M89.2885 26.822C87.3458 27.2189 85.5638 28.1811 84.1665 29.5878C82.7692 30.9945 81.8188 32.7829 81.4349 34.7281C81.051 36.6734 81.2507 38.6887 82.0089 40.5208C82.7671 42.3529 84.0499 43.9199 85.6961 45.0251C86.0926 45.2845 86.4191 45.6378 86.6465 46.0535C86.8739 46.4692 86.9953 46.9346 87 47.4084V51.064C87.0003 51.8262 87.3034 52.5571 87.8425 53.096C88.3817 53.6349 89.1127 53.9376 89.875 53.9376H92.75C93.5125 53.9376 94.2437 53.6347 94.7829 53.0955C95.3221 52.5563 95.625 51.8251 95.625 51.0626V47.4199C95.6282 46.9453 95.7483 46.4787 95.9747 46.0615C96.2011 45.6443 96.5268 45.2893 96.923 45.0279C98.8589 43.7288 100.284 41.7975 100.953 39.5643C101.623 37.3311 101.496 34.9347 100.594 32.7846C99.6928 30.6346 98.0724 28.8645 96.0102 27.7769C93.9479 26.6893 91.572 26.3518 89.2885 26.822Z" fill="#FDCA59"/>
<path d="M87 48.1875V51.0625C87 51.825 87.3029 52.5563 87.8421 53.0954C88.3812 53.6346 89.1125 53.9375 89.875 53.9375H92.75C93.5125 53.9375 94.2438 53.6346 94.7829 53.0954C95.3221 52.5563 95.625 51.825 95.625 51.0625V48.1875H87Z" fill="url(#paint3_linear_917_5292)"/>
<path d="M59.6875 88.4375H76.9375V94.1875H59.6875V88.4375ZM79.8125 81.25H97.0625V87H79.8125V81.25ZM39.5625 95.625H56.8125V101.375H39.5625V95.625ZM19.4375 102.812H36.6875V108.562H19.4375V102.812Z" fill="url(#paint4_linear_917_5292)"/>
<path d="M53.9375 49.625C57.1131 49.625 59.6875 47.0506 59.6875 43.875C59.6875 40.6994 57.1131 38.125 53.9375 38.125C50.7619 38.125 48.1875 40.6994 48.1875 43.875C48.1875 47.0506 50.7619 49.625 53.9375 49.625Z" fill="#26D9FE"/>
<path d="M90.2344 19.4375H92.3906V23.75H90.2344V19.4375ZM104.25 35.6094H108.562V37.7656H104.25V35.6094ZM74.0625 35.6094H78.375V37.7656H74.0625V35.6094ZM78.3462 25.2579L79.87 23.7342L82.9204 26.7817L81.3937 28.3069L78.3462 25.2579ZM99.6888 26.786L102.738 23.7371L104.261 25.2608L101.214 28.3097L99.6888 26.786Z" fill="white" fill-opacity="0.44"/>
<path d="M86.6406 36.6877H84.4844C84.4829 35.1733 84.9855 33.7015 85.9128 32.5043C86.8402 31.307 88.1395 30.4524 89.6062 30.0752L90.1438 32.1639C89.1407 32.4223 88.252 33.0071 87.6178 33.8261C86.9835 34.6451 86.6398 35.6518 86.6406 36.6877Z" fill="#F2F2F2"/>
<path d="M47.7391 71.2491V55.6436H46.3016V69.8116C46.2913 70.7509 46.3331 71.69 46.4266 72.6247H47.8699C47.7997 72.1691 47.7561 71.7098 47.7391 71.2491Z" fill="white" fill-opacity="0.35"/>
<defs>
<linearGradient id="paint0_linear_917_5292" x1="2" y1="4.5" x2="120" y2="127.5" gradientUnits="userSpaceOnUse">
<stop stop-color="white"/>
<stop offset="1" stop-color="white" stop-opacity="0.14"/>
</linearGradient>
<linearGradient id="paint1_linear_917_5292" x1="7" y1="6.06452" x2="33.6784" y2="57.1457" gradientUnits="userSpaceOnUse">
<stop stop-color="white"/>
<stop offset="1" stop-color="white" stop-opacity="0"/>
</linearGradient>
<linearGradient id="paint2_linear_917_5292" x1="115" y1="125.968" x2="86.8308" y2="80.4138" gradientUnits="userSpaceOnUse">
<stop offset="0.0001" stop-color="white" stop-opacity="0.989583"/>
<stop offset="1" stop-color="white" stop-opacity="0"/>
</linearGradient>
<linearGradient id="paint3_linear_917_5292" x1="86.1936" y1="55.4303" x2="100.426" y2="53.0986" gradientUnits="userSpaceOnUse">
<stop stop-color="#AC06D9"/>
<stop offset="0.5" stop-color="#0067C4"/>
<stop offset="0.5769" stop-color="#0370C9"/>
<stop offset="0.7029" stop-color="#0B89D5"/>
<stop offset="0.8614" stop-color="#19B1E9"/>
<stop offset="1" stop-color="#26D9FE"/>
</linearGradient>
<linearGradient id="paint4_linear_917_5292" x1="14.9333" y1="111.022" x2="107.52" y2="80.0606" gradientUnits="userSpaceOnUse">
<stop stop-color="#AC06D9"/>
<stop offset="0.5" stop-color="#0067C4"/>
<stop offset="0.5769" stop-color="#0370C9"/>
<stop offset="0.7029" stop-color="#0B89D5"/>
<stop offset="0.8614" stop-color="#19B1E9"/>
<stop offset="1" stop-color="#26D9FE"/>
</linearGradient>
</defs>
</svg>
