<svg width="92" height="92" viewBox="0 0 92 92" fill="none" xmlns="http://www.w3.org/2000/svg">
<path d="M59.5226 34.5H48.1634L41.2261 31.8651C40.4227 31.7054 39.6057 31.6249 38.7866 31.625H31.625C29.7188 31.625 27.8906 32.3823 26.5427 33.7302C25.1948 35.0781 24.4375 36.9063 24.4375 38.8125V51.75C24.4375 52.5125 24.7404 53.2438 25.2796 53.7829C25.8187 54.3221 26.55 54.625 27.3125 54.625H29.9503C30.2851 55.4865 30.8924 56.215 31.6796 56.6993L28.75 67.5625L24.4375 77.625H30.1875L34.5 69L37.4152 58.8455L41.6875 60.375L47.4375 70.4375H54.625C54.5819 69.8812 47.9507 55.9489 47.5654 55.5551L42.4465 51.75V38.6328L48.0226 40.25L59.8057 39.0626C60.3846 38.9912 60.9143 38.7016 61.2869 38.2529C61.6595 37.8042 61.8469 37.2302 61.8107 36.6481C61.7746 36.066 61.5177 35.5196 61.0925 35.1204C60.6673 34.7212 60.1058 34.4993 59.5226 34.5Z" fill="#26D9FE"/>
<path d="M59.5226 34.5H48.1634L41.2261 31.8651C40.4227 31.7054 39.6057 31.6249 38.7866 31.625H31.625C29.7188 31.625 27.8906 32.3823 26.5427 33.7302C25.1948 35.0781 24.4375 36.9063 24.4375 38.8125V51.75C24.4375 52.5125 24.7404 53.2438 25.2796 53.7829C25.8187 54.3221 26.55 54.625 27.3125 54.625H29.9503C30.2116 55.3156 30.6462 55.9273 31.2125 56.4011C31.7787 56.8749 32.4574 57.195 33.1832 57.3304L41.6875 60.375L47.4375 70.4375H54.625C54.5819 69.8812 47.9507 55.9489 47.5654 55.5551L42.4465 51.75V38.6328L48.0226 40.25L59.8057 39.0626C60.3846 38.9912 60.9143 38.7016 61.2869 38.2529C61.6595 37.8042 61.8469 37.2302 61.8107 36.6481C61.7746 36.066 61.5177 35.5196 61.0925 35.1204C60.6673 34.7212 60.1058 34.4993 59.5226 34.5Z" fill="#26D9FE"/>
<path d="M71.2885 8.82199C69.3458 9.21886 67.5638 10.1811 66.1665 11.5878C64.7692 12.9945 63.8188 14.7829 63.4349 16.7281C63.051 18.6734 63.2507 20.6887 64.0089 22.5208C64.7671 24.3529 66.0499 25.9199 67.6961 27.0251C68.0926 27.2845 68.4191 27.6378 68.6465 28.0535C68.8739 28.4692 68.9953 28.9346 69 29.4084V33.064C69.0003 33.8262 69.3034 34.5571 69.8425 35.096C70.3817 35.6349 71.1127 35.9376 71.875 35.9376H74.75C75.5125 35.9376 76.2437 35.6347 76.7829 35.0955C77.3221 34.5563 77.625 33.8251 77.625 33.0626V29.4199C77.6282 28.9453 77.7483 28.4787 77.9747 28.0615C78.2011 27.6443 78.5268 27.2893 78.923 27.0279C80.8589 25.7288 82.2835 23.7975 82.9532 21.5643C83.6228 19.3311 83.496 16.9347 82.5944 14.7846C81.6928 12.6346 80.0724 10.8645 78.0102 9.77687C75.9479 8.68928 73.572 8.35175 71.2885 8.82199Z" fill="#FDCA59"/>
<path d="M69 30.1875V33.0625C69 33.825 69.3029 34.5563 69.8421 35.0954C70.3812 35.6346 71.1125 35.9375 71.875 35.9375H74.75C75.5125 35.9375 76.2438 35.6346 76.7829 35.0954C77.3221 34.5563 77.625 33.825 77.625 33.0625V30.1875H69Z" fill="url(#paint0_linear_763_5666)"/>
<path d="M41.6875 70.4375H58.9375V76.1875H41.6875V70.4375ZM61.8125 63.25H79.0625V69H61.8125V63.25ZM21.5625 77.625H38.8125V83.375H21.5625V77.625ZM1.4375 84.8125H18.6875V90.5625H1.4375V84.8125Z" fill="url(#paint1_linear_763_5666)"/>
<path d="M35.9375 31.625C39.1131 31.625 41.6875 29.0506 41.6875 25.875C41.6875 22.6994 39.1131 20.125 35.9375 20.125C32.7619 20.125 30.1875 22.6994 30.1875 25.875C30.1875 29.0506 32.7619 31.625 35.9375 31.625Z" fill="#26D9FE"/>
<path d="M72.2344 1.4375H74.3906V5.75H72.2344V1.4375ZM86.25 17.6094H90.5625V19.7656H86.25V17.6094ZM56.0625 17.6094H60.375V19.7656H56.0625V17.6094ZM60.3462 7.25794L61.87 5.73419L64.9204 8.78169L63.3937 10.3069L60.3462 7.25794ZM81.6888 8.786L84.7378 5.73706L86.2615 7.26081L83.214 10.3097L81.6888 8.786Z" fill="white" fill-opacity="0.44"/>
<path d="M68.6406 18.6877H66.4844C66.4829 17.1733 66.9855 15.7015 67.9128 14.5043C68.8402 13.307 70.1395 12.4524 71.6062 12.0752L72.1438 14.1639C71.1407 14.4223 70.252 15.0071 69.6178 15.8261C68.9835 16.6451 68.6398 17.6518 68.6406 18.6877Z" fill="#F2F2F2"/>
<path d="M29.7391 53.2491V37.6436H28.3016V51.8116C28.2913 52.7509 28.3331 53.69 28.4266 54.6247H29.8699C29.7997 54.1691 29.7561 53.7098 29.7391 53.2491Z" fill="white" fill-opacity="0.35"/>
<defs>
<linearGradient id="paint0_linear_763_5666" x1="68.1936" y1="37.4303" x2="82.4257" y2="35.0986" gradientUnits="userSpaceOnUse">
<stop stop-color="#AC06D9"/>
<stop offset="0.5" stop-color="#0067C4"/>
<stop offset="0.5769" stop-color="#0370C9"/>
<stop offset="0.7029" stop-color="#0B89D5"/>
<stop offset="0.8614" stop-color="#19B1E9"/>
<stop offset="1" stop-color="#26D9FE"/>
</linearGradient>
<linearGradient id="paint1_linear_763_5666" x1="-3.06666" y1="93.0222" x2="89.52" y2="62.0606" gradientUnits="userSpaceOnUse">
<stop stop-color="#AC06D9"/>
<stop offset="0.5" stop-color="#0067C4"/>
<stop offset="0.5769" stop-color="#0370C9"/>
<stop offset="0.7029" stop-color="#0B89D5"/>
<stop offset="0.8614" stop-color="#19B1E9"/>
<stop offset="1" stop-color="#26D9FE"/>
</linearGradient>
</defs>
</svg>
