<svg width="128" height="128" viewBox="0 0 128 128" fill="none" xmlns="http://www.w3.org/2000/svg">
<rect x="2" y="2" width="124" height="124" rx="16" fill="url(#paint0_linear_917_5289)" fill-opacity="0.12"/>
<rect x="1.25" y="1.25" width="125.5" height="125.5" rx="16.75" stroke="url(#paint1_linear_917_5289)" stroke-opacity="0.6" stroke-width="1.5"/>
<rect x="1.25" y="1.25" width="125.5" height="125.5" rx="16.75" stroke="url(#paint2_linear_917_5289)" stroke-opacity="0.6" stroke-width="1.5"/>
<path d="M87.3333 91.4668L89.728 96.0594L95.0833 96.7957L91.2083 100.37L92.1228 105.417L87.3333 103.034L82.5438 105.417L83.4583 100.37L79.5833 96.7957L84.9385 96.0594L87.3333 91.4668Z" fill="#FDCA59"/>
<path d="M64.0834 88.3664C83.7723 88.3664 99.7334 72.4054 99.7334 52.7164C99.7334 33.0275 83.7723 17.0664 64.0834 17.0664C44.3944 17.0664 28.4333 33.0275 28.4333 52.7164C28.4333 72.4054 44.3944 88.3664 64.0834 88.3664Z" fill="url(#paint3_linear_917_5289)"/>
<path d="M64.0833 82.1666C80.3481 82.1666 93.5333 68.9814 93.5333 52.7166C93.5333 36.4518 80.3481 23.2666 64.0833 23.2666C47.8185 23.2666 34.6333 36.4518 34.6333 52.7166C34.6333 68.9814 47.8185 82.1666 64.0833 82.1666Z" fill="white" fill-opacity="0.32"/>
<path d="M79.6608 67.5411L68.7333 63.5669V59.4082C67.2823 60.1051 65.6931 60.4669 64.0833 60.4669C62.4736 60.4669 60.8844 60.1051 59.4333 59.4082V63.5669L48.5058 67.5411C47.2186 68.0109 46.0514 68.7599 45.0879 69.7343C44.1245 70.7087 43.3888 71.8844 42.9336 73.1769C45.6746 76.0186 48.9602 78.2788 52.5942 79.8225C56.2281 81.3662 60.1359 82.1619 64.0841 82.1619C68.0324 82.1619 71.9401 81.3662 75.5741 79.8225C79.208 78.2788 82.4936 76.0186 85.2346 73.1769C84.7789 71.8844 84.0428 70.7089 83.0792 69.7345C82.1155 68.7601 80.9482 68.011 79.6608 67.5411Z" fill="#F2F2F2"/>
<path d="M74.9332 44.9666V49.6166C74.9332 52.4942 73.79 55.2539 71.7553 57.2887C69.7205 59.3235 66.9608 60.4666 64.0832 60.4666C61.2056 60.4666 58.4458 59.3235 56.411 57.2887C54.3763 55.2539 53.2332 52.4942 53.2332 49.6166V44.9666H54.0516C56.1344 44.9664 58.1761 44.3863 59.9479 43.2912C61.7196 42.1962 63.1515 40.6295 64.0832 38.7666C65.0148 40.6295 66.4467 42.1962 68.2185 43.2912C69.9902 44.3863 72.0319 44.9664 74.1148 44.9666H74.9332Z" fill="#FDDFB1"/>
<path d="M64.0833 60.4666C62.4737 60.4649 60.8849 60.1032 59.4333 59.408V63.5666L64.0833 68.2166L68.7333 63.5666V59.408C67.2816 60.1032 65.6928 60.4649 64.0833 60.4666ZM53.2333 49.6166V46.5166H51.6833C50.8611 46.5166 50.0726 46.8432 49.4912 47.4246C48.9099 48.0059 48.5833 48.7944 48.5833 49.6166C48.5833 50.4388 48.9099 51.2273 49.4912 51.8086C50.0726 52.39 50.8611 52.7166 51.6833 52.7166H53.689C53.3876 51.7108 53.2341 50.6666 53.2333 49.6166ZM76.4833 46.5166H74.9333V49.6166C74.9324 50.6666 74.7789 51.7108 74.4776 52.7166H76.4833C77.3054 52.7166 78.0939 52.39 78.6753 51.8086C79.2566 51.2273 79.5833 50.4388 79.5833 49.6166C79.5833 48.7944 79.2566 48.0059 78.6753 47.4246C78.0939 46.8432 77.3054 46.5166 76.4833 46.5166Z" fill="#FDDFB1"/>
<path d="M71.9588 64.7398L68.7333 63.5664L64.0833 68.2164L70.2833 69.7664L71.9588 64.7398Z" fill="#CCCCCC"/>
<path d="M62.5334 72.8662L61.0098 82.0112C63.0528 82.2241 65.1125 82.2241 67.1555 82.0112L65.6334 72.8662H62.5334Z" fill="#D24034"/>
<path d="M64.0834 38.7666C63.1518 40.6295 61.7199 42.1962 59.9481 43.2912C58.1763 44.3863 56.1347 44.9664 54.0518 44.9666H53.2334V49.6166C53.2351 51.2262 53.5968 52.8149 54.292 54.2666H64.0834C65.7277 54.2666 67.3047 53.6134 68.4675 52.4507C69.6302 51.2879 70.2834 49.7109 70.2834 48.0666V44.2645C67.5896 43.2923 65.3708 41.3247 64.0834 38.7666Z" fill="#FDE5C1"/>
<path d="M77.2582 35.6738C76.0935 33.3431 74.3027 31.3828 72.0866 30.0126C69.8704 28.6424 67.3165 27.9164 64.711 27.916H63.4632C61.3308 27.9162 59.2265 28.4024 57.31 29.3376C55.3936 30.2728 53.7155 31.6324 52.4032 33.3132C51.0909 34.994 50.1788 36.9517 49.7364 39.0377C49.2939 41.1237 49.3326 43.2832 49.8496 45.352L50.1332 46.516H53.2332V44.966H54.0516C56.1345 44.9658 58.1761 44.3857 59.9479 43.2907C61.7197 42.1956 63.1516 40.6289 64.0832 38.766C65.0148 40.6289 66.4467 42.1956 68.2185 43.2907C69.9903 44.3857 72.032 44.9658 74.1148 44.966H74.9332V46.516H78.0332L78.3246 45.352C79.1361 42.1021 78.7578 38.669 77.2582 35.6738Z" fill="#74574A"/>
<path d="M56.2078 64.7398L57.8833 69.7664L64.0833 68.2164L59.4333 63.5664L56.2078 64.7398Z" fill="#CCCCCC"/>
<path d="M64.0832 68.2168L61.2219 68.9329L62.5332 72.8668H65.6332L66.9445 68.9329L64.0832 68.2168Z" fill="#AA2B24"/>
<path d="M85.7833 100.767C86.6054 100.767 87.3939 100.44 87.9753 99.8588C88.5566 99.2775 88.8833 98.489 88.8833 97.6668V94.4381L87.3333 91.4668L84.9385 96.0594L79.5833 96.7957L83.4583 100.37L83.387 100.767H85.7833Z" fill="black" fill-opacity="0.05"/>
<path d="M64.0833 96.1162L66.478 100.709L71.8333 101.445L67.9583 105.019L68.8728 110.066L64.0833 107.684L59.2938 110.066L60.2083 105.019L56.3333 101.445L61.6885 100.709L64.0833 96.1162Z" fill="#FDCA59"/>
<path d="M62.5333 105.416C63.3554 105.416 64.1439 105.09 64.7253 104.508C65.3066 103.927 65.6333 103.138 65.6333 102.316V99.0876L64.0833 96.1162L61.6885 100.709L56.3333 101.445L60.2083 105.019L60.137 105.416H62.5333Z" fill="black" fill-opacity="0.05"/>
<path d="M40.8333 91.4668L43.228 96.0594L48.5833 96.7957L44.7083 100.37L45.6228 105.417L40.8333 103.034L36.0438 105.417L36.9583 100.37L33.0833 96.7957L38.4385 96.0594L40.8333 91.4668Z" fill="#FDCA59"/>
<path d="M39.2833 100.767C40.1054 100.767 40.8939 100.44 41.4753 99.8588C42.0566 99.2775 42.3833 98.489 42.3833 97.6668V94.4381L40.8333 91.4668L38.4385 96.0594L33.0833 96.7957L36.9583 100.37L36.887 100.767H39.2833Z" fill="black" fill-opacity="0.05"/>
<defs>
<linearGradient id="paint0_linear_917_5289" x1="2" y1="4.5" x2="120" y2="127.5" gradientUnits="userSpaceOnUse">
<stop stop-color="white"/>
<stop offset="1" stop-color="white" stop-opacity="0.14"/>
</linearGradient>
<linearGradient id="paint1_linear_917_5289" x1="7" y1="6.06452" x2="33.6784" y2="57.1457" gradientUnits="userSpaceOnUse">
<stop stop-color="white"/>
<stop offset="1" stop-color="white" stop-opacity="0"/>
</linearGradient>
<linearGradient id="paint2_linear_917_5289" x1="115" y1="125.968" x2="86.8308" y2="80.4138" gradientUnits="userSpaceOnUse">
<stop offset="0.0001" stop-color="white" stop-opacity="0.989583"/>
<stop offset="1" stop-color="white" stop-opacity="0"/>
</linearGradient>
<linearGradient id="paint3_linear_917_5289" x1="33.9552" y1="94.1789" x2="114.125" y2="90.834" gradientUnits="userSpaceOnUse">
<stop stop-color="#AC06D9"/>
<stop offset="0.5" stop-color="#0067C4"/>
<stop offset="0.5769" stop-color="#0370C9"/>
<stop offset="0.7029" stop-color="#0B89D5"/>
<stop offset="0.8614" stop-color="#19B1E9"/>
<stop offset="1" stop-color="#26D9FE"/>
</linearGradient>
</defs>
</svg>
