<svg width="92" height="92" viewBox="0 0 92 92" fill="none" xmlns="http://www.w3.org/2000/svg">
<path d="M57.5 28.75H54.625V25.875C54.625 23.5875 53.7163 21.3937 52.0988 19.7762C50.4813 18.1587 48.2875 17.25 46 17.25C43.7125 17.25 41.5187 18.1587 39.9012 19.7762C38.2837 21.3937 37.375 23.5875 37.375 25.875V28.75H34.5V25.875C34.5 22.825 35.7116 19.8999 37.8683 17.7433C40.0249 15.5866 42.95 14.375 46 14.375C49.05 14.375 51.9751 15.5866 54.1317 17.7433C56.2884 19.8999 57.5 22.825 57.5 25.875V28.75Z" fill="#0067C4"/>
<path d="M35.2188 24.4375H37.375V31.625H35.2188C34.2656 31.625 33.3515 31.2464 32.6776 30.5724C32.0036 29.8985 31.625 28.9844 31.625 28.0312C31.625 27.0781 32.0036 26.164 32.6776 25.4901C33.3515 24.8161 34.2656 24.4375 35.2188 24.4375ZM56.7812 31.6252H54.625V24.4377H56.7812C57.7344 24.4377 58.6485 24.8163 59.3224 25.4903C59.9964 26.1642 60.375 27.0783 60.375 28.0314C60.375 28.9846 59.9964 29.8986 59.3224 30.5726C58.6485 31.2466 57.7344 31.6252 56.7812 31.6252Z" fill="#0B89D5"/>
<path d="M11.5 70.4375H14.375C15.1375 70.4375 15.8688 70.7404 16.4079 71.2796C16.9471 71.8187 17.25 72.55 17.25 73.3125V76.1875H8.625V73.3125C8.625 72.55 8.9279 71.8187 9.46707 71.2796C10.0062 70.7404 10.7375 70.4375 11.5 70.4375Z" fill="url(#paint0_linear_763_5648)"/>
<path d="M8.625 79.0625H83.375V89.125H8.625V79.0625Z" fill="white" fill-opacity="0.25"/>
<path d="M4.3125 74.75H87.6875V80.5H4.3125V74.75Z" fill="white"/>
<path d="M46 37.375C50.7635 37.375 54.625 33.5135 54.625 28.75C54.625 23.9865 50.7635 20.125 46 20.125C41.2365 20.125 37.375 23.9865 37.375 28.75C37.375 33.5135 41.2365 37.375 46 37.375Z" fill="#F4CDA5"/>
<path d="M35.9375 37.375H56.0625C57.5875 37.375 59.05 37.9808 60.1284 39.0591C61.2067 40.1375 61.8125 41.6 61.8125 43.125V48.875H30.1875V43.125C30.1875 41.6 30.7933 40.1375 31.8716 39.0591C32.95 37.9808 34.4125 37.375 35.9375 37.375Z" fill="white" fill-opacity="0.37"/>
<path d="M66.125 74.75H25.875L23 46H69L66.125 74.75Z" fill="url(#paint1_linear_763_5648)"/>
<path d="M46 64.6875C48.3817 64.6875 50.3125 62.7567 50.3125 60.375C50.3125 57.9933 48.3817 56.0625 46 56.0625C43.6183 56.0625 41.6875 57.9933 41.6875 60.375C41.6875 62.7567 43.6183 64.6875 46 64.6875Z" fill="#F5F5F5"/>
<path d="M11.0454 7.26118C10.7592 7.3566 10.5102 7.53966 10.3338 7.78444C10.1574 8.02921 10.0625 8.32329 10.0625 8.62501V18.9348C9.19939 18.6296 8.26156 18.607 7.38477 18.8703C6.50798 19.1336 5.73772 19.6691 5.18548 20.3992C4.63325 21.1294 4.32769 22.0163 4.31305 22.9316C4.29841 23.847 4.57544 24.7433 5.10404 25.4907C5.63263 26.2381 6.38537 26.798 7.2533 27.0892C8.12122 27.3803 9.05929 27.3878 9.93172 27.1104C10.8041 26.833 11.5657 26.2852 12.106 25.5462C12.6464 24.8072 12.9376 23.9155 12.9375 23V9.66109L20.5796 7.11384L19.6704 4.38618L11.0454 7.26118ZM8.625 24.4375C8.34069 24.4375 8.06276 24.3532 7.82637 24.1952C7.58997 24.0373 7.40572 23.8128 7.29692 23.5501C7.18812 23.2874 7.15965 22.9984 7.21512 22.7196C7.27059 22.4407 7.4075 22.1846 7.60853 21.9835C7.80957 21.7825 8.06571 21.6456 8.34456 21.5901C8.62341 21.5347 8.91244 21.5631 9.17511 21.6719C9.43778 21.7807 9.66228 21.965 9.82024 22.2014C9.97819 22.4378 10.0625 22.7157 10.0625 23C10.0621 23.3811 9.91048 23.7465 9.64099 24.016C9.3715 24.2855 9.00612 24.4371 8.625 24.4375ZM87.1495 3.19126C86.9817 3.0565 86.7856 2.96119 86.576 2.91239C86.3663 2.86359 86.1484 2.86255 85.9382 2.90933L73.0007 5.78433C72.6815 5.85526 72.3959 6.03295 72.1912 6.28806C71.9866 6.54317 71.875 6.86045 71.875 7.18751V17.4973C71.0119 17.1921 70.0741 17.1695 69.1973 17.4328C68.3205 17.6961 67.5502 18.2316 66.998 18.9617C66.4457 19.6919 66.1402 20.5788 66.1256 21.4941C66.1109 22.4095 66.3879 23.3058 66.9165 24.0532C67.4451 24.8006 68.1979 25.3605 69.0658 25.6517C69.9337 25.9428 70.8718 25.9503 71.7442 25.6729C72.6167 25.3955 73.3782 24.8477 73.9185 24.1087C74.4589 23.3697 74.7501 22.478 74.75 21.5625V8.34056L84.8125 6.10453V14.6217C83.9494 14.3166 83.0116 14.294 82.1348 14.5573C81.2581 14.8205 80.4878 15.3559 79.9356 16.0861C79.3833 16.8162 79.0777 17.7031 79.0631 18.6184C79.0484 19.5337 79.3253 20.43 79.8539 21.1774C80.3824 21.9249 81.1351 22.4848 82.003 22.776C82.8709 23.0673 83.8089 23.0748 84.6813 22.7975C85.5538 22.5202 86.3153 21.9724 86.8558 21.2335C87.3962 20.4947 87.6875 19.603 87.6875 18.6875V4.31251C87.6875 4.09726 87.6392 3.88476 87.546 3.6907C87.4529 3.49663 87.3174 3.32595 87.1495 3.19126ZM70.4375 23C70.1532 23 69.8753 22.9157 69.6389 22.7577C69.4025 22.5998 69.2182 22.3753 69.1094 22.1126C69.0006 21.8499 68.9722 21.5609 69.0276 21.2821C69.0831 21.0032 69.22 20.7471 69.421 20.546C69.6221 20.345 69.8782 20.2081 70.1571 20.1526C70.4359 20.0972 70.7249 20.1256 70.9876 20.2344C71.2503 20.3432 71.4748 20.5275 71.6327 20.7639C71.7907 21.0003 71.875 21.2782 71.875 21.5625C71.8746 21.9436 71.723 22.309 71.4535 22.5785C71.184 22.848 70.8186 22.9996 70.4375 23ZM83.375 20.125C83.0907 20.125 82.8128 20.0407 82.5764 19.8827C82.34 19.7248 82.1557 19.5003 82.0469 19.2376C81.9381 18.9749 81.9097 18.6859 81.9651 18.4071C82.0206 18.1282 82.1575 17.8721 82.3585 17.671C82.5596 17.47 82.8157 17.3331 83.0946 17.2776C83.3734 17.2222 83.6624 17.2506 83.9251 17.3594C84.1878 17.4682 84.4123 17.6525 84.5702 17.8889C84.7282 18.1253 84.8125 18.4032 84.8125 18.6875C84.8121 19.0686 84.6605 19.434 84.391 19.7035C84.1215 19.973 83.7561 20.1246 83.375 20.125Z" fill="url(#paint2_linear_763_5648)"/>
<defs>
<linearGradient id="paint0_linear_763_5648" x1="4.92857" y1="78.3095" x2="24.4654" y2="75.0527" gradientUnits="userSpaceOnUse">
<stop stop-color="#AC06D9"/>
<stop offset="0.5" stop-color="#0067C4"/>
<stop offset="0.5769" stop-color="#0370C9"/>
<stop offset="0.7029" stop-color="#0B89D5"/>
<stop offset="0.8614" stop-color="#19B1E9"/>
<stop offset="1" stop-color="#26D9FE"/>
</linearGradient>
<linearGradient id="paint1_linear_763_5648" x1="23.5111" y1="74.6222" x2="69.5111" y2="46" gradientUnits="userSpaceOnUse">
<stop stop-color="#B0BEC5"/>
<stop offset="1" stop-color="white"/>
</linearGradient>
<linearGradient id="paint2_linear_763_5648" x1="-1.70703" y1="30.8164" x2="101.583" y2="2.21876" gradientUnits="userSpaceOnUse">
<stop stop-color="#AC06D9"/>
<stop offset="0.5" stop-color="#0067C4"/>
<stop offset="0.5769" stop-color="#0370C9"/>
<stop offset="0.7029" stop-color="#0B89D5"/>
<stop offset="0.8614" stop-color="#19B1E9"/>
<stop offset="1" stop-color="#26D9FE"/>
</linearGradient>
</defs>
</svg>
