<svg width="95" height="126" viewBox="0 0 95 126" fill="none" xmlns="http://www.w3.org/2000/svg">
<g style="mix-blend-mode:hard-light" filter="url(#filter0_f_1010_5342)">
<ellipse cx="47.1463" cy="63" rx="34.1463" ry="50" fill="#FF0000" fill-opacity="0.08"/>
</g>
<g style="mix-blend-mode:hard-light" filter="url(#filter1_f_1010_5342)">
<path d="M63.6015 76.2578H61.7328V78.1266H63.6015V76.2578ZM71.1211 76.2578H72.9898V74.3891H71.1211V76.2578ZM71.1211 85.5352V87.4039H72.9898V85.5352H71.1211ZM63.6015 85.5352V83.6664H61.7328V85.5352H63.6015ZM63.6015 102.332V104.201H65.4703V102.332H63.6015ZM51.6875 102.332H49.8187V104.201H51.6875V102.332ZM51.6875 30.3594V28.4906H49.8187V30.3594H51.6875ZM63.6015 30.3594H65.4703V28.4906H63.6015V30.3594ZM20.5351 85.5352H18.6664V87.4039H20.5351V85.5352ZM20.5351 76.2578L18.9884 75.2091L18.6664 75.684V76.2578H20.5351ZM47.6836 36.2188H49.5523V30.1328L46.1368 35.17L47.6836 36.2188ZM47.6836 50.1836L49.2572 51.1915L49.5523 50.7307V50.1836H47.6836ZM30.9843 76.2578L29.4107 75.25L27.5683 78.1266H30.9843V76.2578ZM47.6836 76.2578H49.5523V74.3891H47.6836V76.2578ZM47.6836 85.5352V87.4039H49.5523V85.5352H47.6836ZM63.6015 78.1266H71.1211V74.3891H63.6015V78.1266ZM69.2523 76.2578V85.5352H72.9898V76.2578H69.2523ZM71.1211 83.6664H63.6015V87.4039H71.1211V83.6664ZM61.7328 85.5352V102.332H65.4703V85.5352H61.7328ZM63.6015 100.463H51.6875V104.201H63.6015V100.463ZM53.5562 102.332V30.3594H49.8187V102.332H53.5562ZM51.6875 32.2281H63.6015V28.4906H51.6875V32.2281ZM61.7328 30.3594V76.2578H65.4703V30.3594H61.7328ZM22.4039 85.5352V76.2578H18.6664V85.5352H22.4039ZM22.0818 77.3066L49.2303 37.2675L46.1368 35.17L18.9884 75.2091L22.0818 77.3066ZM45.8148 36.2188V50.1836H49.5523V36.2188H45.8148ZM46.1099 49.1757L29.4107 75.25L32.558 77.2657L49.2572 51.1915L46.1099 49.1757ZM30.9843 78.1266H47.6836V74.3891H30.9843V78.1266ZM45.8148 76.2578V85.5352H49.5523V76.2578H45.8148ZM47.6836 83.6664H20.5351V87.4039H47.6836V83.6664Z" fill="#FF5C00"/>
</g>
<g style="mix-blend-mode:hard-light" filter="url(#filter2_f_1010_5342)">
<path d="M63.6015 76.2578H61.1578V78.7016H63.6015V76.2578ZM71.1211 76.2578H73.5648V73.8141H71.1211V76.2578ZM71.1211 85.5352V87.9789H73.5648V85.5352H71.1211ZM63.6015 85.5352V83.0914H61.1578V85.5352H63.6015ZM63.6015 102.332V104.776H66.0453V102.332H63.6015ZM51.6875 102.332H49.2437V104.776H51.6875V102.332ZM51.6875 30.3594V27.9156H49.2437V30.3594H51.6875ZM63.6015 30.3594H66.0453V27.9156H63.6015V30.3594ZM20.5351 85.5352H18.0914V87.9789H20.5351V85.5352ZM20.5351 76.2578L18.5125 74.8864L18.0914 75.5074V76.2578H20.5351ZM47.6836 36.2188H50.1273V28.2602L45.6609 34.8473L47.6836 36.2188ZM47.6836 50.1836L49.7414 51.5016L50.1273 50.8991V50.1836H47.6836ZM30.9843 76.2578L28.9265 74.9398L26.5173 78.7016H30.9843V76.2578ZM47.6836 76.2578H50.1273V73.8141H47.6836V76.2578ZM47.6836 85.5352V87.9789H50.1273V85.5352H47.6836ZM63.6015 78.7016H71.1211V73.8141H63.6015V78.7016ZM68.6773 76.2578V85.5352H73.5648V76.2578H68.6773ZM71.1211 83.0914H63.6015V87.9789H71.1211V83.0914ZM61.1578 85.5352V102.332H66.0453V85.5352H61.1578ZM63.6015 99.8883H51.6875V104.776H63.6015V99.8883ZM54.1312 102.332V30.3594H49.2437V102.332H54.1312ZM51.6875 32.8031H63.6015V27.9156H51.6875V32.8031ZM61.1578 30.3594V76.2578H66.0453V30.3594H61.1578ZM22.9789 85.5352V76.2578H18.0914V85.5352H22.9789ZM22.5578 77.6293L49.7062 37.5902L45.6609 34.8473L18.5125 74.8864L22.5578 77.6293ZM45.2398 36.2188V50.1836H50.1273V36.2188H45.2398ZM45.6257 48.8656L28.9265 74.9398L33.0422 77.5758L49.7414 51.5016L45.6257 48.8656ZM30.9843 78.7016H47.6836V73.8141H30.9843V78.7016ZM45.2398 76.2578V85.5352H50.1273V76.2578H45.2398ZM47.6836 83.0914H20.5351V87.9789H47.6836V83.0914Z" fill="#FF0000"/>
</g>
<g style="mix-blend-mode:hard-light" filter="url(#filter3_ddi_1010_5342)">
<path d="M63.6015 76.2578H61.7328V78.1266H63.6015V76.2578ZM71.1211 76.2578H72.9898V74.3891H71.1211V76.2578ZM71.1211 85.5352V87.4039H72.9898V85.5352H71.1211ZM63.6015 85.5352V83.6664H61.7328V85.5352H63.6015ZM63.6015 102.332V104.201H65.4703V102.332H63.6015ZM51.6875 102.332H49.8187V104.201H51.6875V102.332ZM51.6875 30.3594V28.4906H49.8187V30.3594H51.6875ZM63.6015 30.3594H65.4703V28.4906H63.6015V30.3594ZM20.5351 85.5352H18.6664V87.4039H20.5351V85.5352ZM20.5351 76.2578L18.9884 75.2091L18.6664 75.684V76.2578H20.5351ZM47.6836 36.2188H49.5523V30.1328L46.1368 35.17L47.6836 36.2188ZM47.6836 50.1836L49.2572 51.1915L49.5523 50.7307V50.1836H47.6836ZM30.9843 76.2578L29.4107 75.25L27.5683 78.1266H30.9843V76.2578ZM47.6836 76.2578H49.5523V74.3891H47.6836V76.2578ZM47.6836 85.5352V87.4039H49.5523V85.5352H47.6836ZM63.6015 78.1266H71.1211V74.3891H63.6015V78.1266ZM69.2523 76.2578V85.5352H72.9898V76.2578H69.2523ZM71.1211 83.6664H63.6015V87.4039H71.1211V83.6664ZM61.7328 85.5352V102.332H65.4703V85.5352H61.7328ZM63.6015 100.463H51.6875V104.201H63.6015V100.463ZM53.5562 102.332V30.3594H49.8187V102.332H53.5562ZM51.6875 32.2281H63.6015V28.4906H51.6875V32.2281ZM61.7328 30.3594V76.2578H65.4703V30.3594H61.7328ZM22.4039 85.5352V76.2578H18.6664V85.5352H22.4039ZM22.0818 77.3066L49.2303 37.2675L46.1368 35.17L18.9884 75.2091L22.0818 77.3066ZM45.8148 36.2188V50.1836H49.5523V36.2188H45.8148ZM46.1099 49.1757L29.4107 75.25L32.558 77.2657L49.2572 51.1915L46.1099 49.1757ZM30.9843 78.1266H47.6836V74.3891H30.9843V78.1266ZM45.8148 76.2578V85.5352H49.5523V76.2578H45.8148ZM47.6836 83.6664H20.5351V87.4039H47.6836V83.6664Z" fill="#FF0000" fill-opacity="0.2"/>
</g>
<g filter="url(#filter4_f_1010_5342)">
<path d="M63.6015 76.2578H62.4515V77.4078H63.6015V76.2578ZM71.1211 76.2578H72.2711V75.1078H71.1211V76.2578ZM71.1211 85.5352V86.6852H72.2711V85.5352H71.1211ZM63.6015 85.5352V84.3852H62.4515V85.5352H63.6015ZM63.6015 102.332V103.482H64.7515V102.332H63.6015ZM51.6875 102.332H50.5375V103.482H51.6875V102.332ZM51.6875 30.3594V29.2094H50.5375V30.3594H51.6875ZM63.6015 30.3594H64.7515V29.2094H63.6015V30.3594ZM20.5351 85.5352H19.3851V86.6852H20.5351V85.5352ZM20.5351 76.2578L19.5833 75.6124L19.3851 75.9047V76.2578H20.5351ZM47.6836 36.2188H48.8336V32.4735L46.7317 35.5734L47.6836 36.2188ZM47.6836 50.1836L48.652 50.8038L48.8336 50.5203V50.1836H47.6836ZM30.9843 76.2578L30.0159 75.6376L28.8822 77.4078H30.9843V76.2578ZM47.6836 76.2578H48.8336V75.1078H47.6836V76.2578ZM47.6836 85.5352V86.6852H48.8336V85.5352H47.6836ZM63.6015 77.4078H71.1211V75.1078H63.6015V77.4078ZM69.9711 76.2578V85.5352H72.2711V76.2578H69.9711ZM71.1211 84.3852H63.6015V86.6852H71.1211V84.3852ZM62.4515 85.5352V102.332H64.7515V85.5352H62.4515ZM63.6015 101.182H51.6875V103.482H63.6015V101.182ZM52.8375 102.332V30.3594H50.5375V102.332H52.8375ZM51.6875 31.5094H63.6015V29.2094H51.6875V31.5094ZM62.4515 30.3594V76.2578H64.7515V30.3594H62.4515ZM21.6851 85.5352V76.2578H19.3851V85.5352H21.6851ZM21.4869 76.9032L48.6354 36.8641L46.7317 35.5734L19.5833 75.6124L21.4869 76.9032ZM46.5336 36.2188V50.1836H48.8336V36.2188H46.5336ZM46.7151 49.5634L30.0159 75.6376L31.9528 76.878L48.652 50.8038L46.7151 49.5634ZM30.9843 77.4078H47.6836V75.1078H30.9843V77.4078ZM46.5336 76.2578V85.5352H48.8336V76.2578H46.5336ZM47.6836 84.3852H20.5351V86.6852H47.6836V84.3852Z" fill="#FF9983"/>
</g>
<g filter="url(#filter5_f_1010_5342)">
<path d="M63.6015 76.2578H63.0265V76.8328H63.6015V76.2578ZM71.1211 76.2578H71.6961V75.6828H71.1211V76.2578ZM71.1211 85.5352V86.1102H71.6961V85.5352H71.1211ZM63.6015 85.5352V84.9602H63.0265V85.5352H63.6015ZM63.6015 102.332V102.907H64.1765V102.332H63.6015ZM51.6875 102.332H51.1125V102.907H51.6875V102.332ZM51.6875 30.3594V29.7844H51.1125V30.3594H51.6875ZM63.6015 30.3594H64.1765V29.7844H63.6015V30.3594ZM20.5351 85.5352H19.9601V86.1102H20.5351V85.5352ZM20.5351 76.2578L20.0592 75.9351L19.9601 76.0813V76.2578H20.5351ZM47.6836 36.2188H48.2586V34.3461L47.2076 35.8961L47.6836 36.2188ZM47.6836 50.1836L48.1678 50.4937L48.2586 50.3519V50.1836H47.6836ZM30.9843 76.2578L30.5001 75.9477L29.9333 76.8328H30.9843V76.2578ZM47.6836 76.2578H48.2586V75.6828H47.6836V76.2578ZM47.6836 85.5352V86.1102H48.2586V85.5352H47.6836ZM63.6015 76.8328H71.1211V75.6828H63.6015V76.8328ZM70.5461 76.2578V85.5352H71.6961V76.2578H70.5461ZM71.1211 84.9602H63.6015V86.1102H71.1211V84.9602ZM63.0265 85.5352V102.332H64.1765V85.5352H63.0265ZM63.6015 101.757H51.6875V102.907H63.6015V101.757ZM52.2625 102.332V30.3594H51.1125V102.332H52.2625ZM51.6875 30.9344H63.6015V29.7844H51.6875V30.9344ZM63.0265 30.3594V76.2578H64.1765V30.3594H63.0265ZM21.1101 85.5352V76.2578H19.9601V85.5352H21.1101ZM21.011 76.5805L48.1595 36.5414L47.2076 35.8961L20.0592 75.9351L21.011 76.5805ZM47.1086 36.2188V50.1836H48.2586V36.2188H47.1086ZM47.1993 49.8735L30.5001 75.9477L31.4685 76.5679L48.1678 50.4937L47.1993 49.8735ZM30.9843 76.8328H47.6836V75.6828H30.9843V76.8328ZM47.1086 76.2578V85.5352H48.2586V76.2578H47.1086ZM47.6836 84.9602H20.5351V86.1102H47.6836V84.9602Z" fill="white"/>
</g>
<defs>
<filter id="filter0_f_1010_5342" x="0.0625" y="0.0625" width="94.1677" height="125.875" filterUnits="userSpaceOnUse" color-interpolation-filters="sRGB">
<feFlood flood-opacity="0" result="BackgroundImageFix"/>
<feBlend mode="normal" in="SourceGraphic" in2="BackgroundImageFix" result="shape"/>
<feGaussianBlur stdDeviation="6.46875" result="effect1_foregroundBlur_1010_5342"/>
</filter>
<filter id="filter1_f_1010_5342" x="7.59766" y="17.4219" width="76.4609" height="97.8477" filterUnits="userSpaceOnUse" color-interpolation-filters="sRGB">
<feFlood flood-opacity="0" result="BackgroundImageFix"/>
<feBlend mode="normal" in="SourceGraphic" in2="BackgroundImageFix" result="shape"/>
<feGaussianBlur stdDeviation="6.46875" result="effect1_foregroundBlur_1010_5342"/>
</filter>
<filter id="filter2_f_1010_5342" x="16.2227" y="26.0469" width="59.2109" height="80.5977" filterUnits="userSpaceOnUse" color-interpolation-filters="sRGB">
<feFlood flood-opacity="0" result="BackgroundImageFix"/>
<feBlend mode="normal" in="SourceGraphic" in2="BackgroundImageFix" result="shape"/>
<feGaussianBlur stdDeviation="2.15625" result="effect1_foregroundBlur_1010_5342"/>
</filter>
<filter id="filter3_ddi_1010_5342" x="14.9289" y="29.0656" width="61.7984" height="83.1852" filterUnits="userSpaceOnUse" color-interpolation-filters="sRGB">
<feFlood flood-opacity="0" result="BackgroundImageFix"/>
<feColorMatrix in="SourceAlpha" type="matrix" values="0 0 0 0 0 0 0 0 0 0 0 0 0 0 0 0 0 0 127 0" result="hardAlpha"/>
<feOffset dy="1.86875"/>
<feGaussianBlur stdDeviation="0.71875"/>
<feColorMatrix type="matrix" values="0 0 0 0 0.15 0 0 0 0 0 0 0 0 0 0 0 0 0 0.7 0"/>
<feBlend mode="multiply" in2="BackgroundImageFix" result="effect1_dropShadow_1010_5342"/>
<feColorMatrix in="SourceAlpha" type="matrix" values="0 0 0 0 0 0 0 0 0 0 0 0 0 0 0 0 0 0 127 0" result="hardAlpha"/>
<feOffset dy="4.3125"/>
<feGaussianBlur stdDeviation="2.80312"/>
<feColorMatrix type="matrix" values="0 0 0 0 0.8 0 0 0 0 0.19 0 0 0 0 0.19 0 0 0 1 0"/>
<feBlend mode="color-dodge" in2="effect1_dropShadow_1010_5342" result="effect2_dropShadow_1010_5342"/>
<feBlend mode="normal" in="SourceGraphic" in2="effect2_dropShadow_1010_5342" result="shape"/>
<feColorMatrix in="SourceAlpha" type="matrix" values="0 0 0 0 0 0 0 0 0 0 0 0 0 0 0 0 0 0 127 0" result="hardAlpha"/>
<feOffset dx="-0.186875" dy="0.37375"/>
<feGaussianBlur stdDeviation="0.0934375"/>
<feComposite in2="hardAlpha" operator="arithmetic" k2="-1" k3="1"/>
<feColorMatrix type="matrix" values="0 0 0 0 1 0 0 0 0 1 0 0 0 0 1 0 0 0 0.5 0"/>
<feBlend mode="normal" in2="shape" result="effect3_innerShadow_1010_5342"/>
</filter>
<filter id="filter4_f_1010_5342" x="20.2477" y="30.0719" width="51.1609" height="72.5477" filterUnits="userSpaceOnUse" color-interpolation-filters="sRGB">
<feFlood flood-opacity="0" result="BackgroundImageFix"/>
<feBlend mode="normal" in="SourceGraphic" in2="BackgroundImageFix" result="shape"/>
<feGaussianBlur stdDeviation="0.14375" result="effect1_foregroundBlur_1010_5342"/>
</filter>
<filter id="filter5_f_1010_5342" x="20.3435" y="30.1677" width="50.9693" height="72.356" filterUnits="userSpaceOnUse" color-interpolation-filters="sRGB">
<feFlood flood-opacity="0" result="BackgroundImageFix"/>
<feBlend mode="normal" in="SourceGraphic" in2="BackgroundImageFix" result="shape"/>
<feGaussianBlur stdDeviation="0.0958333" result="effect1_foregroundBlur_1010_5342"/>
</filter>
</defs>
</svg>
