<svg width="188" height="121" viewBox="0 0 188 121" fill="none" xmlns="http://www.w3.org/2000/svg">
<path d="M165.505 16.6899H134.934V19.1846H165.505V16.6899Z" fill="#EDFDFF"/>
<path d="M165.505 22.1777H134.934V24.6724H165.505V22.1777Z" fill="#EDFDFF"/>
<path d="M176.13 34.5464H145.559V37.041H176.13V34.5464Z" fill="#EDFDFF"/>
<path d="M176.13 40.0381H145.558V42.5327H176.13V40.0381Z" fill="#EDFDFF"/>
<path d="M187.706 52.3296H157.134V54.8242H187.706V52.3296Z" fill="#EDFDFF"/>
<path d="M188 58.0205H157.428V60.5152H188V58.0205Z" fill="#EDFDFF"/>
<path d="M188 64.0503H157.428V66.5449H188V64.0503Z" fill="#EDFDFF"/>
<path d="M15.7504 115.922H11.3753C6.61126 115.922 4.37511 113.79 4.37511 105.937V90.0371C4.37511 85.4805 2.72228 84.1231 0.291658 83.3476H0V78.9847H0.291658C2.72228 78.3063 4.37511 76.852 4.37511 72.3923V56.2988C4.37511 48.4459 6.61126 46.313 11.3753 46.313H15.7504V49.0275H12.7364C9.52804 49.0275 7.97242 50.1911 7.97242 56.3957V72.5863C7.97242 77.0458 6.61129 79.6634 3.50009 80.8268V81.5055C6.7085 82.6689 7.97242 85.3834 7.97242 89.8431V105.84C7.97242 112.045 9.52804 113.208 12.7364 113.208H15.7504V115.922Z" fill="url(#paint0_linear_224_8337)"/>
<path d="M122.516 60.0699H120.834C119.002 60.0699 118.143 59.252 118.143 56.2406V50.1436C118.143 48.3962 117.507 47.8756 116.573 47.5782H116.46V45.9052H116.573C117.507 45.6451 118.143 45.0874 118.143 43.3773V37.2057C118.143 34.1943 119.002 33.3765 120.834 33.3765H122.516V34.4174H121.358C120.124 34.4174 119.526 34.8636 119.526 37.243V43.4516C119.526 45.1617 119.002 46.1655 117.806 46.6116V46.8719C119.04 47.3181 119.526 48.359 119.526 50.0691V56.2034C119.526 58.5828 120.124 59.029 121.358 59.029H122.516V60.0699Z" fill="#26D9FE"/>
<path d="M177.927 23.4688H176.466V22.5474H177.489C178.561 22.5474 179.097 22.1595 179.097 20.0744V14.6922C179.097 13.189 179.535 12.2678 180.607 11.8799V11.6373C179.535 11.2494 179.097 10.3767 179.097 8.82502V3.39419C179.097 1.3093 178.561 0.921292 177.489 0.921292H176.466V0H177.927C179.535 0 180.266 0.727334 180.266 3.39419V8.82502C180.266 10.3283 180.851 10.813 181.63 11.0554H181.727V12.5102H181.679C180.851 12.7526 180.315 13.2376 180.315 14.7406V20.0744C180.315 22.7414 179.535 23.4688 177.927 23.4688Z" fill="#26D9FE"/>
<path d="M109.361 120.696V115.551H104.193V110.466H99.0239V105.322H93.855V100.117H99.0239V94.9728H104.193V89.8284H109.361V84.7437H114.65V90.0079H109.482V95.1524H104.313V100.237H99.144V105.262H104.313V110.406H109.482V115.551H114.65V120.755H109.361V120.696Z" fill="url(#paint1_linear_224_8337)"/>
<path d="M140.374 105.382V110.526H135.205V115.671H130.037V120.815H124.808V115.611H129.976V110.466H135.145V105.322H140.314V100.297H135.145V95.1524H129.976V90.0079H124.808V84.7437H130.037V89.8881H135.205V95.0326H140.374V100.177H145.543V105.382H140.374Z" fill="url(#paint2_linear_224_8337)"/>
<defs>
<linearGradient id="paint0_linear_224_8337" x1="7.87539" y1="117.663" x2="7.87539" y2="37.8949" gradientUnits="userSpaceOnUse">
<stop stop-color="#AC06D9"/>
<stop offset="0.5" stop-color="#0067C4"/>
<stop offset="0.5769" stop-color="#0370C9"/>
<stop offset="0.7029" stop-color="#0B89D5"/>
<stop offset="0.8614" stop-color="#19B1E9"/>
<stop offset="1" stop-color="#26D9FE"/>
</linearGradient>
<linearGradient id="paint1_linear_224_8337" x1="104.253" y1="121.656" x2="104.253" y2="80.3886" gradientUnits="userSpaceOnUse">
<stop stop-color="#AC06D9"/>
<stop offset="0.5" stop-color="#0067C4"/>
<stop offset="0.5769" stop-color="#0370C9"/>
<stop offset="0.7029" stop-color="#0B89D5"/>
<stop offset="0.8614" stop-color="#19B1E9"/>
<stop offset="1" stop-color="#26D9FE"/>
</linearGradient>
<linearGradient id="paint2_linear_224_8337" x1="135.176" y1="121.717" x2="135.176" y2="80.3814" gradientUnits="userSpaceOnUse">
<stop stop-color="#AC06D9"/>
<stop offset="0.5" stop-color="#0067C4"/>
<stop offset="0.5769" stop-color="#0370C9"/>
<stop offset="0.7029" stop-color="#0B89D5"/>
<stop offset="0.8614" stop-color="#19B1E9"/>
<stop offset="1" stop-color="#26D9FE"/>
</linearGradient>
</defs>
</svg>
