<svg width="69" height="132" viewBox="0 0 69 132" fill="none" xmlns="http://www.w3.org/2000/svg">
<path d="M11.3403 131.691C5.21377 131.691 0.229492 126.443 0.229492 119.993V12.136C0.229492 5.6857 5.21377 0.437988 11.3403 0.437988H57.613C63.7395 0.437988 68.7238 5.6857 68.7238 12.136V119.993C68.7238 126.443 63.7395 131.691 57.613 131.691H11.3403Z" fill="url(#paint0_linear_224_8336)"/>
<path d="M57.6121 128.576H11.3395C6.90723 128.576 3.31396 124.793 3.31396 120.126V12.269C3.31396 7.60239 6.90723 3.81934 11.3395 3.81934H57.6121C62.0446 3.81934 65.6376 7.60239 65.6376 12.269V120.126C65.6376 124.793 62.0446 128.576 57.6121 128.576Z" fill="#EDFDFF"/>
<path d="M57.6121 128.576H11.3395C6.90723 128.576 3.31396 124.792 3.31396 120.126V12.269C3.31396 7.60239 6.90723 3.81934 11.3395 3.81934H57.6121C62.0446 3.81934 65.6376 7.60239 65.6376 12.269V120.126C65.6376 124.792 62.0446 128.576 57.6121 128.576Z" fill="#0370C9" fill-opacity="0.2"/>
<path d="M58.5413 128.576H10.4134C7.31645 128.576 4.80566 125.932 4.80566 122.671V9.72347C4.80566 6.46271 7.31645 3.81934 10.4134 3.81934H58.5413C61.6385 3.81934 64.149 6.46271 64.149 9.72347V122.671C64.149 125.932 61.6385 128.576 58.5413 128.576Z" fill="url(#paint1_linear_224_8336)"/>
<path d="M41.0902 124.666H27.8592C27.4161 124.666 27.0566 124.288 27.0566 123.821C27.0566 123.354 27.4161 122.976 27.8592 122.976H41.0902C41.5334 122.976 41.8926 123.354 41.8926 123.821C41.8926 124.288 41.5334 124.666 41.0902 124.666Z" fill="url(#paint2_linear_224_8336)"/>
<path d="M49.8065 13.0837H19.1469C17.0561 13.0837 15.3608 11.299 15.3608 9.09743V3.81934H53.5928V9.09743C53.5928 11.299 51.8976 13.0837 49.8065 13.0837Z" fill="url(#paint3_linear_224_8336)"/>
<path d="M43.4299 9.03794C43.9437 9.03794 44.3605 8.59921 44.3605 8.05802C44.3605 7.51683 43.9437 7.07812 43.4299 7.07812C42.916 7.07812 42.4995 7.51683 42.4995 8.05802C42.4995 8.59921 42.916 9.03794 43.4299 9.03794Z" fill="#C4B6FF"/>
<path d="M48.8654 9.03794C49.3795 9.03794 49.796 8.59921 49.796 8.05802C49.796 7.51683 49.3795 7.07812 48.8654 7.07812C48.3516 7.07812 47.9351 7.51683 47.9351 8.05802C47.9351 8.59921 48.3516 9.03794 48.8654 9.03794Z" fill="#C4B6FF"/>
<path d="M56.3591 22.6488H12.5997C10.8995 22.6488 9.521 21.1975 9.521 19.4074V18.9236C9.521 17.1334 10.8995 15.6821 12.5997 15.6821H56.3591C58.0593 15.6821 59.4379 17.1334 59.4379 18.9236V19.4074C59.4379 21.1975 58.0593 22.6488 56.3591 22.6488Z" fill="#C9E2F7"/>
<path d="M19.22 109.514H11.3687V117.78H19.22V109.514Z" fill="#071549"/>
<path d="M32.0093 109.514H24.1582V117.78H32.0093V109.514Z" fill="#071549"/>
<path d="M44.7971 109.514H36.9458V117.78H44.7971V109.514Z" fill="#071549"/>
<path d="M57.583 109.514H49.7319V117.78H57.583V109.514Z" fill="#071549"/>
<path d="M14.9175 69.4845H11.9766C10.6208 69.4845 9.52148 68.3272 9.52148 66.8995V63.8033C9.52148 62.3755 10.6208 61.2183 11.9766 61.2183H14.9175C16.2735 61.2183 17.3726 62.3755 17.3726 63.8033V66.8995C17.3726 68.3272 16.2735 69.4845 14.9175 69.4845Z" fill="#C9E2F7"/>
<path d="M56.9795 69.4801H54.0386C52.6828 69.4801 51.5835 68.3228 51.5835 66.8951V63.7989C51.5835 62.3712 52.6828 61.2139 54.0386 61.2139H56.9795C58.3355 61.2139 59.4346 62.3712 59.4346 63.7989V66.8951C59.4346 68.3228 58.3355 69.4801 56.9795 69.4801Z" fill="#CDE3F6"/>
<path d="M46.6612 69.4796H43.7204C42.3644 69.4796 41.2651 68.3223 41.2651 66.8946V63.7984C41.2651 62.3707 42.3644 61.2134 43.7204 61.2134H46.6612C48.0172 61.2134 49.1165 62.3707 49.1165 63.7984V66.8946C49.1165 68.3223 48.0172 69.4796 46.6612 69.4796Z" fill="#C9E2F7"/>
<path d="M14.917 106.093H11.9761C10.6203 106.093 9.521 104.936 9.521 103.508V100.412C9.521 98.9844 10.6203 97.8271 11.9761 97.8271H14.917C16.273 97.8271 17.3721 98.9844 17.3721 100.412V103.508C17.3721 104.936 16.273 106.093 14.917 106.093Z" fill="#C9E2F7"/>
<path d="M56.9795 106.093H54.0386C52.6828 106.093 51.5835 104.936 51.5835 103.508V100.412C51.5835 98.9844 52.6828 97.8271 54.0386 97.8271H56.9795C58.3355 97.8271 59.4346 98.9844 59.4346 100.412V103.508C59.4346 104.936 58.3355 106.093 56.9795 106.093Z" fill="#C9E2F7"/>
<path d="M46.6612 106.093H43.7204C42.3644 106.093 41.2651 104.936 41.2651 103.508V100.412C41.2651 98.9844 42.3644 97.8271 43.7204 97.8271H46.6612C48.0172 97.8271 49.1165 98.9844 49.1165 100.412V103.508C49.1165 104.936 48.0172 106.093 46.6612 106.093Z" fill="#C9E2F7"/>
<path d="M59.4376 94.4109H9.521V76.4849C9.521 74.5113 11.0405 72.9116 12.9149 72.9116H56.0438C57.9182 72.9116 59.4376 74.5113 59.4376 76.4849V94.4109Z" fill="#C9E2F7"/>
<path d="M56.0438 58.618H12.9149C11.0405 58.618 9.521 57.018 9.521 55.0447V31.4214C9.521 29.4479 11.0405 27.8481 12.9149 27.8481H56.0438C57.9182 27.8481 59.4376 29.4479 59.4376 31.4214V55.0447C59.4376 57.018 57.9182 58.618 56.0438 58.618Z" fill="#C9E2F7"/>
<defs>
<linearGradient id="paint0_linear_224_8336" x1="5.27568" y1="131.368" x2="94.8185" y2="102.945" gradientUnits="userSpaceOnUse">
<stop stop-color="#0370C9"/>
<stop offset="1" stop-color="#0F2648"/>
</linearGradient>
<linearGradient id="paint1_linear_224_8336" x1="61.7989" y1="5.01836" x2="-3.14952" y2="9.3795" gradientUnits="userSpaceOnUse">
<stop stop-color="#FCEFFF"/>
<stop offset="1" stop-color="#EEFCFF"/>
</linearGradient>
<linearGradient id="paint2_linear_224_8336" x1="34.4748" y1="124.708" x2="34.4748" y2="122.772" gradientUnits="userSpaceOnUse">
<stop stop-color="#AC06D9"/>
<stop offset="0.5" stop-color="#0067C4"/>
<stop offset="0.5769" stop-color="#0370C9"/>
<stop offset="0.7029" stop-color="#0B89D5"/>
<stop offset="0.8614" stop-color="#19B1E9"/>
<stop offset="1" stop-color="#26D9FE"/>
</linearGradient>
<linearGradient id="paint3_linear_224_8336" x1="18.1775" y1="13.0609" x2="25.7132" y2="-5.8547" gradientUnits="userSpaceOnUse">
<stop stop-color="#0370C9"/>
<stop offset="1" stop-color="#0F2648"/>
</linearGradient>
</defs>
</svg>
