<svg width="28" height="28" viewBox="0 0 28 28" fill="none" xmlns="http://www.w3.org/2000/svg">
<path d="M18.6783 16.7881C18.2816 16.7881 17.9316 16.5198 17.8266 16.1231C17.7099 15.6564 17.9899 15.1781 18.4566 15.0614C20.7316 14.4898 22.8433 13.4981 24.7333 12.1214C25.1183 11.8414 25.6666 11.9231 25.9583 12.3198C26.2383 12.7048 26.1566 13.2531 25.7599 13.5448C23.6833 15.0498 21.3733 16.1348 18.8766 16.7648C18.8183 16.7764 18.7483 16.7881 18.6783 16.7881Z" fill="#CCCCD2"/>
<path d="M9.33332 16.8233C9.26332 16.8233 9.19332 16.8117 9.12332 16.8C6.77832 16.2283 4.57332 15.2367 2.55499 13.86C2.15832 13.5917 2.05332 13.0433 2.32166 12.6467C2.58999 12.25 3.13832 12.145 3.53499 12.4133C5.37832 13.6733 7.38499 14.5717 9.53166 15.0967C9.99832 15.2133 10.29 15.68 10.1733 16.1583C10.0917 16.555 9.72999 16.8233 9.33332 16.8233Z" fill="#CCCCD2"/>
<path d="M14 22.1087C10.9434 22.1087 8.45837 19.6237 8.45837 16.5671C8.45837 13.5104 10.9434 11.0254 14 11.0254C17.0567 11.0254 19.5417 13.5104 19.5417 16.5671C19.5417 19.6237 17.0567 22.1087 14 22.1087ZM14 12.7754C11.9117 12.7754 10.2084 14.4787 10.2084 16.5671C10.2084 18.6554 11.9117 20.3587 14 20.3587C16.0884 20.3587 17.7917 18.6554 17.7917 16.5671C17.7917 14.4787 16.0884 12.7754 14 12.7754Z" fill="#CCCCD2"/>
<path d="M12.8333 18.6085C12.5417 18.6085 12.25 18.4568 12.0867 18.1885C11.8417 17.7685 11.97 17.2318 12.39 16.9868L13.2767 16.4501C13.37 16.4035 13.4167 16.2985 13.4167 16.2051V15.1201C13.4167 14.6418 13.8133 14.2451 14.2917 14.2451C14.77 14.2451 15.1667 14.6301 15.1667 15.1085V16.1935C15.1667 16.9051 14.7817 17.5818 14.175 17.9435L13.2883 18.4801C13.1483 18.5735 12.985 18.6085 12.8333 18.6085Z" fill="#CCCCD2"/>
<path d="M18.6666 26.5417H9.33331C3.94331 26.5417 2.93998 24.0334 2.68331 21.5951L1.80831 12.2501C1.67998 11.0251 1.64498 9.21672 2.85831 7.86338C3.90831 6.69672 5.64665 6.13672 8.16665 6.13672H19.8333C22.365 6.13672 24.1033 6.70838 25.1416 7.86338C26.355 9.21672 26.32 11.0251 26.1916 12.2617L25.3166 21.5834C25.06 24.0334 24.0566 26.5417 18.6666 26.5417ZM8.16665 7.87505C6.19498 7.87505 4.84165 8.26005 4.15331 9.03005C3.58165 9.66005 3.39498 10.6284 3.54665 12.0751L4.42165 21.4201C4.61998 23.2634 5.12165 24.7917 9.33331 24.7917H18.6666C22.8666 24.7917 23.38 23.2634 23.5783 21.4084L24.4533 12.0867C24.605 10.6284 24.4183 9.66005 23.8466 9.03005C23.1583 8.26005 21.805 7.87505 19.8333 7.87505H8.16665Z" fill="#CCCCD2"/>
<path d="M18.6667 7.87467C18.1884 7.87467 17.7917 7.47801 17.7917 6.99967V6.06634C17.7917 3.98967 17.7917 3.20801 14.9334 3.20801H13.0667C10.2084 3.20801 10.2084 3.98967 10.2084 6.06634V6.99967C10.2084 7.47801 9.81171 7.87467 9.33337 7.87467C8.85504 7.87467 8.45837 7.47801 8.45837 6.99967V6.06634C8.45837 4.01301 8.45837 1.45801 13.0667 1.45801H14.9334C19.5417 1.45801 19.5417 4.01301 19.5417 6.06634V6.99967C19.5417 7.47801 19.145 7.87467 18.6667 7.87467Z" fill="#CCCCD2"/>
</svg>
