<svg width="32" height="30" viewBox="0 0 32 30" fill="none" xmlns="http://www.w3.org/2000/svg">
<path d="M12.436 29.1937C19.1853 29.1937 24.6566 23.7223 24.6566 16.9731C24.6566 10.2238 19.1853 4.75244 12.436 4.75244C5.68675 4.75244 0.215393 10.2238 0.215393 16.9731C0.215393 23.7223 5.68675 29.1937 12.436 29.1937Z" fill="#00D566"/>
<path d="M12.5742 26.4187L12.4192 26.1546C10.0515 22.1205 3.75966 13.5596 3.69611 13.4736L3.60535 13.3503L5.74894 11.2319L12.5344 15.9699C16.8067 10.426 20.7924 6.61818 23.3923 4.39456C26.2364 1.96214 28.0877 0.842327 28.1064 0.831597L28.1485 0.806396H31.7846L31.4373 1.11572C22.5045 9.07214 12.8223 25.9827 12.7259 26.1526L12.5742 26.4187Z" fill="white"/>
</svg>
