<svg width="28" height="28" viewBox="0 0 28 28" fill="none" xmlns="http://www.w3.org/2000/svg">
<path d="M14 16.532C11.515 16.532 9.48499 14.5137 9.48499 12.017C9.48499 9.52034 11.515 7.51367 14 7.51367C16.485 7.51367 18.515 9.53201 18.515 12.0287C18.515 14.5253 16.485 16.532 14 16.532ZM14 9.26367C12.4833 9.26367 11.235 10.5003 11.235 12.0287C11.235 13.557 12.4717 14.7937 14 14.7937C15.5283 14.7937 16.765 13.557 16.765 12.0287C16.765 10.5003 15.5167 9.26367 14 9.26367Z" fill="#CCCCD2"/>
<path d="M14 26.553C12.2733 26.553 10.535 25.8997 9.18163 24.6047C5.73996 21.2913 1.93663 16.0063 3.37163 9.71801C4.66663 4.01301 9.6483 1.45801 14 1.45801C14 1.45801 14 1.45801 14.0116 1.45801C18.3633 1.45801 23.345 4.01301 24.64 9.72967C26.0633 16.018 22.26 21.2913 18.8183 24.6047C17.465 25.8997 15.7266 26.553 14 26.553ZM14 3.20801C10.605 3.20801 6.24163 5.01634 5.08663 10.103C3.82663 15.598 7.27996 20.3347 10.4066 23.333C12.425 25.2813 15.5866 25.2813 17.605 23.333C20.72 20.3347 24.1733 15.598 22.9366 10.103C21.77 5.01634 17.395 3.20801 14 3.20801Z" fill="#CCCCD2"/>
</svg>
