<svg xmlns="http://www.w3.org/2000/svg" width="39" height="50" fill="none"><path fill="url(#a)" d="M20.612 21.132h-.219v-5.846a1.003 1.003 0 0 0-2.007 0v5.846h-.22a.284.284 0 0 0-.283.284v8.456c0 .156.126.283.284.283h2.445a.284.284 0 0 0 .285-.284v-8.455a.284.284 0 0 0-.285-.284Z"/><path fill="url(#b)" d="M28.583 42.702c-.503 0-.979.11-1.41.303V30.156h.22a.284.284 0 0 0 .284-.284v-8.455a.284.284 0 0 0-.284-.284h-.22v-6.597c0-4.283-3.491-7.768-7.783-7.768-4.291 0-7.783 3.485-7.783 7.768v6.597h-.219a.284.284 0 0 0-.284.284v8.455c0 .157.126.284.284.284h.22v12.85a3.434 3.434 0 0 0-1.409-.303c-1.887 0-3.418 1.515-3.418 3.383 0 1.869 1.53 3.383 3.418 3.383 1.887 0 3.418-1.516 3.418-3.383l-.001-.033V30.156h.219a.284.284 0 0 0 .284-.284v-8.455a.284.284 0 0 0-.284-.284h-.22v-6.597c0-3.178 2.591-5.763 5.775-5.763s5.775 2.585 5.775 5.763v6.597h-.219a.284.284 0 0 0-.284.284v8.455c0 .157.126.284.284.284h.219v15.93c0 1.869 1.53 3.383 3.418 3.383 1.887 0 3.418-1.516 3.418-3.383.001-1.87-1.53-3.384-3.418-3.384Z"/><path fill="url(#c)" d="M35.362 35.933c-.503 0-.979.11-1.41.303v-21.7C33.953 6.52 27.42 0 19.39 0S4.827 6.52 4.827 14.536v21.7a3.422 3.422 0 0 0-1.41-.304C1.532 35.932 0 37.447 0 39.314c0 1.868 1.53 3.383 3.418 3.383 1.887 0 3.418-1.515 3.418-3.383v-24.78c0-6.909 5.632-12.53 12.554-12.53 6.922 0 12.554 5.621 12.554 12.53v24.767l-.001.013c0 1.87 1.53 3.383 3.418 3.383 1.887 0 3.418-1.515 3.418-3.383 0-1.867-1.53-3.381-3.417-3.381Z"/><defs><linearGradient id="a" x1="19.39" x2="19.39" y1="50.535" y2="1.603" gradientUnits="userSpaceOnUse"><stop stop-color="#AC06D9"/><stop offset=".5" stop-color="#0067C4"/><stop offset=".577" stop-color="#0370C9"/><stop offset=".703" stop-color="#0B89D5"/><stop offset=".861" stop-color="#19B1E9"/><stop offset="1" stop-color="#26D9FE"/></linearGradient><linearGradient id="b" x1="19.391" x2="19.391" y1="50.536" y2="1.604" gradientUnits="userSpaceOnUse"><stop stop-color="#AC06D9"/><stop offset=".5" stop-color="#0067C4"/><stop offset=".577" stop-color="#0370C9"/><stop offset=".703" stop-color="#0B89D5"/><stop offset=".861" stop-color="#19B1E9"/><stop offset="1" stop-color="#26D9FE"/></linearGradient><linearGradient id="c" x1="19.39" x2="19.39" y1="50.535" y2="1.603" gradientUnits="userSpaceOnUse"><stop stop-color="#AC06D9"/><stop offset=".5" stop-color="#0067C4"/><stop offset=".577" stop-color="#0370C9"/><stop offset=".703" stop-color="#0B89D5"/><stop offset=".861" stop-color="#19B1E9"/><stop offset="1" stop-color="#26D9FE"/></linearGradient></defs></svg>