<svg width="252" height="189" viewBox="0 0 252 189" fill="none" xmlns="http://www.w3.org/2000/svg">
<g filter="url(#filter0_b_1041_5966)">
<path d="M210.419 185.85H55.5976C47.2482 185.85 40.3135 179.057 40.3135 170.566V28.0574C40.3135 19.7078 47.1065 12.7734 55.5976 12.7734H210.419C218.768 12.7734 225.702 19.5663 225.702 28.0574V170.566C225.561 179.057 218.768 185.85 210.419 185.85Z" fill="url(#paint0_linear_1041_5966)" fill-opacity="0.2"/>
</g>
<path d="M42.7194 5.20709H43.2194V5.06556H197.54C205.331 5.06556 211.617 11.3516 211.617 19.1419V161.792C211.617 169.583 205.331 175.869 197.54 175.869H42.7194C34.9291 175.869 28.6432 169.583 28.6432 161.792V19.2835C28.6432 11.4931 34.9291 5.20709 42.7194 5.20709ZM42.7194 178.142H197.682C206.738 178.142 214.032 170.695 214.032 161.651V19.1419C214.032 10.0917 206.59 2.65039 197.54 2.65039H42.7194C33.6693 2.65039 26.228 10.0917 26.228 19.1419V161.651C26.228 170.701 33.6693 178.142 42.7194 178.142Z" fill="url(#paint1_linear_1041_5966)" stroke="url(#paint2_linear_1041_5966)"/>
<path d="M69.3274 73.2234C62.393 73.2234 56.7324 67.5626 56.7324 60.6282C56.7324 53.6938 62.393 48.0332 69.3274 48.0332C76.2618 48.0332 81.9223 53.6938 81.9223 60.6282C81.9223 67.5626 76.2618 73.2234 69.3274 73.2234ZM69.3274 49.5899C63.2422 49.5899 58.1474 54.543 58.1474 60.7699C58.1474 66.8551 63.1005 71.9496 69.3274 71.9496C75.5543 71.9496 80.5074 66.9965 80.5074 60.7699C80.5074 54.543 75.4125 49.5899 69.3274 49.5899Z" fill="url(#paint3_linear_1041_5966)" fill-opacity="0.6"/>
<path d="M113.276 56.3865H90.6245C90.205 56.3865 89.4023 55.7594 89.4023 54.8202C89.4023 53.8804 90.205 53.2539 90.6245 53.2539H113.276C113.695 53.2539 114.498 53.8804 114.498 54.8202C114.498 55.7594 113.555 56.3865 113.276 56.3865Z" fill="url(#paint4_linear_1041_5966)" fill-opacity="0.6"/>
<path d="M177.058 67.8728H90.6266C90.2059 67.8728 89.4023 67.2464 89.4023 66.3065C89.4023 65.3674 90.2059 64.7402 90.6266 64.7402H177.058C177.479 64.7402 178.282 65.3674 178.282 66.3065C178.282 67.2464 177.479 67.8728 177.058 67.8728Z" fill="url(#paint5_linear_1041_5966)" fill-opacity="0.6"/>
<path d="M69.3274 113.947C62.393 113.947 56.7324 108.286 56.7324 101.352C56.7324 94.4174 62.393 88.7568 69.3274 88.7568C76.2618 88.7568 81.9223 94.4174 81.9223 101.352C81.9223 108.286 76.2618 113.947 69.3274 113.947ZM69.3274 90.3136C63.2422 90.3136 58.1474 95.2666 58.1474 101.494C58.1474 107.579 63.1005 112.673 69.3274 112.673C75.5543 112.673 80.5074 107.72 80.5074 101.494C80.5074 95.2666 75.4125 90.3136 69.3274 90.3136Z" fill="url(#paint6_linear_1041_5966)" fill-opacity="0.6"/>
<path d="M113.276 97.1101H90.6245C90.205 97.1101 89.4023 96.483 89.4023 95.5438C89.4023 94.604 90.205 93.9775 90.6245 93.9775H113.276C113.695 93.9775 114.498 94.604 114.498 95.5438C114.498 96.483 113.555 97.1101 113.276 97.1101Z" fill="url(#paint7_linear_1041_5966)" fill-opacity="0.6"/>
<path d="M177.058 108.596H90.6266C90.2059 108.596 89.4023 107.97 89.4023 107.03C89.4023 106.091 90.2059 105.464 90.6266 105.464H177.058C177.479 105.464 178.282 106.091 178.282 107.03C178.282 107.97 177.479 108.596 177.058 108.596Z" fill="url(#paint8_linear_1041_5966)" fill-opacity="0.6"/>
<path d="M69.3274 154.671C62.393 154.671 56.7324 149.01 56.7324 142.075C56.7324 135.141 62.393 129.48 69.3274 129.48C76.2618 129.48 81.9223 135.141 81.9223 142.075C81.9223 149.01 76.2618 154.671 69.3274 154.671ZM69.3274 131.037C63.2422 131.037 58.1474 135.99 58.1474 142.217C58.1474 148.302 63.1005 153.397 69.3274 153.397C75.5543 153.397 80.5074 148.444 80.5074 142.217C80.5074 135.99 75.4125 131.037 69.3274 131.037Z" fill="url(#paint9_linear_1041_5966)" fill-opacity="0.6"/>
<path d="M113.276 137.834H90.6245C90.205 137.834 89.4023 137.207 89.4023 136.267C89.4023 135.328 90.205 134.701 90.6245 134.701H113.276C113.695 134.701 114.498 135.328 114.498 136.267C114.498 137.207 113.555 137.834 113.276 137.834Z" fill="url(#paint10_linear_1041_5966)" fill-opacity="0.6"/>
<path d="M177.058 149.32H90.6266C90.2059 149.32 89.4023 148.694 89.4023 147.754C89.4023 146.815 90.2059 146.188 90.6266 146.188H177.058C177.479 146.188 178.282 146.815 178.282 147.754C178.282 148.694 177.479 149.32 177.058 149.32Z" fill="url(#paint11_linear_1041_5966)" fill-opacity="0.6"/>
<path opacity="0.4" d="M231.505 34.8498H20.5019C13.7091 34.8498 8.18994 29.3305 8.18994 22.5377C8.18994 15.7448 13.7091 10.2256 20.5019 10.2256H231.505C238.298 10.2256 243.817 15.7448 243.817 22.5377C243.817 29.3305 238.298 34.8498 231.505 34.8498Z" fill="white"/>
<path d="M37.7658 25.0853C39.876 25.0853 41.5867 23.3746 41.5867 21.2643C41.5867 19.1541 39.876 17.4434 37.7658 17.4434C35.6556 17.4434 33.9448 19.1541 33.9448 21.2643C33.9448 23.3746 35.6556 25.0853 37.7658 25.0853Z" fill="#FF6956"/>
<path d="M69.3263 25.0853C71.4365 25.0853 73.1473 23.3746 73.1473 21.2643C73.1473 19.1541 71.4365 17.4434 69.3263 17.4434C67.2161 17.4434 65.5054 19.1541 65.5054 21.2643C65.5054 23.3746 67.2161 25.0853 69.3263 25.0853Z" fill="#3CDC62"/>
<path d="M52.9103 25.0853C55.0205 25.0853 56.7313 23.3746 56.7313 21.2643C56.7313 19.1541 55.0205 17.4434 52.9103 17.4434C50.8001 17.4434 49.0894 19.1541 49.0894 21.2643C49.0894 23.3746 50.8001 25.0853 52.9103 25.0853Z" fill="#FFCA1C"/>
<defs>
<filter id="filter0_b_1041_5966" x="28.3135" y="0.773438" width="209.389" height="197.077" filterUnits="userSpaceOnUse" color-interpolation-filters="sRGB">
<feFlood flood-opacity="0" result="BackgroundImageFix"/>
<feGaussianBlur in="BackgroundImageFix" stdDeviation="6"/>
<feComposite in2="SourceAlpha" operator="in" result="effect1_backgroundBlur_1041_5966"/>
<feBlend mode="normal" in="SourceGraphic" in2="effect1_backgroundBlur_1041_5966" result="shape"/>
</filter>
<linearGradient id="paint0_linear_1041_5966" x1="49.1396" y1="16.3799" x2="225.54" y2="186.48" gradientUnits="userSpaceOnUse">
<stop stop-color="white"/>
<stop offset="1" stop-color="white" stop-opacity="0.19"/>
</linearGradient>
<linearGradient id="paint1_linear_1041_5966" x1="26.4598" y1="177.66" x2="238.14" y2="-6.29958" gradientUnits="userSpaceOnUse">
<stop stop-color="#AC06D9"/>
<stop offset="0.5" stop-color="#0067C4"/>
<stop offset="0.5769" stop-color="#0370C9"/>
<stop offset="0.7029" stop-color="#0B89D5"/>
<stop offset="0.8614" stop-color="#19B1E9"/>
<stop offset="1" stop-color="#26D9FE"/>
</linearGradient>
<linearGradient id="paint2_linear_1041_5966" x1="26.8795" y1="188.442" x2="216.438" y2="-1.39828" gradientUnits="userSpaceOnUse">
<stop stop-color="#AC06D9"/>
<stop offset="0.5" stop-color="#0067C4"/>
<stop offset="0.5769" stop-color="#0370C9"/>
<stop offset="0.7029" stop-color="#0B89D5"/>
<stop offset="0.8614" stop-color="#19B1E9"/>
<stop offset="1" stop-color="#26D9FE"/>
</linearGradient>
<linearGradient id="paint3_linear_1041_5966" x1="61.2609" y1="48.0332" x2="83.0279" y2="48.6027" gradientUnits="userSpaceOnUse">
<stop stop-color="white" stop-opacity="0.4"/>
<stop offset="1" stop-color="white"/>
</linearGradient>
<linearGradient id="paint4_linear_1041_5966" x1="94.2487" y1="53.2539" x2="114.238" y2="57.2694" gradientUnits="userSpaceOnUse">
<stop stop-color="white" stop-opacity="0.4"/>
<stop offset="1" stop-color="white"/>
</linearGradient>
<linearGradient id="paint5_linear_1041_5966" x1="105.716" y1="64.7402" x2="155.09" y2="100.964" gradientUnits="userSpaceOnUse">
<stop stop-color="white" stop-opacity="0.4"/>
<stop offset="1" stop-color="white"/>
</linearGradient>
<linearGradient id="paint6_linear_1041_5966" x1="61.2609" y1="88.7568" x2="83.0279" y2="89.3264" gradientUnits="userSpaceOnUse">
<stop stop-color="white" stop-opacity="0.4"/>
<stop offset="1" stop-color="white"/>
</linearGradient>
<linearGradient id="paint7_linear_1041_5966" x1="94.2487" y1="93.9775" x2="114.238" y2="97.9931" gradientUnits="userSpaceOnUse">
<stop stop-color="white" stop-opacity="0.4"/>
<stop offset="1" stop-color="white"/>
</linearGradient>
<linearGradient id="paint8_linear_1041_5966" x1="105.716" y1="105.464" x2="155.09" y2="141.688" gradientUnits="userSpaceOnUse">
<stop stop-color="white" stop-opacity="0.4"/>
<stop offset="1" stop-color="white"/>
</linearGradient>
<linearGradient id="paint9_linear_1041_5966" x1="61.2609" y1="129.48" x2="83.0279" y2="130.05" gradientUnits="userSpaceOnUse">
<stop stop-color="white" stop-opacity="0.4"/>
<stop offset="1" stop-color="white"/>
</linearGradient>
<linearGradient id="paint10_linear_1041_5966" x1="94.2487" y1="134.701" x2="114.238" y2="138.717" gradientUnits="userSpaceOnUse">
<stop stop-color="white" stop-opacity="0.4"/>
<stop offset="1" stop-color="white"/>
</linearGradient>
<linearGradient id="paint11_linear_1041_5966" x1="105.716" y1="146.187" x2="155.09" y2="182.412" gradientUnits="userSpaceOnUse">
<stop stop-color="white" stop-opacity="0.4"/>
<stop offset="1" stop-color="white"/>
</linearGradient>
</defs>
</svg>
