<svg xmlns="http://www.w3.org/2000/svg" width="134" height="50" fill="none"><path fill="url(#a)" d="M20.612 21.132h-.219v-5.846a1.003 1.003 0 0 0-2.007 0v5.846h-.22a.284.284 0 0 0-.283.284v8.456c0 .156.126.283.284.283h2.445a.284.284 0 0 0 .285-.284v-8.455a.284.284 0 0 0-.285-.284Z"/><path fill="url(#b)" d="M28.583 42.702c-.503 0-.979.11-1.41.303V30.156h.22a.284.284 0 0 0 .284-.284v-8.455a.284.284 0 0 0-.284-.284h-.22v-6.597c0-4.283-3.491-7.768-7.783-7.768-4.291 0-7.783 3.485-7.783 7.768v6.597h-.219a.284.284 0 0 0-.284.284v8.455c0 .157.126.284.284.284h.22v12.85a3.434 3.434 0 0 0-1.409-.303c-1.887 0-3.418 1.515-3.418 3.383 0 1.869 1.53 3.383 3.418 3.383 1.887 0 3.418-1.516 3.418-3.383l-.001-.033V30.156h.219a.284.284 0 0 0 .284-.284v-8.455a.284.284 0 0 0-.284-.284h-.22v-6.597c0-3.178 2.591-5.763 5.775-5.763s5.775 2.585 5.775 5.763v6.597h-.219a.284.284 0 0 0-.284.284v8.455c0 .157.126.284.284.284h.219v15.93c0 1.869 1.53 3.383 3.418 3.383 1.887 0 3.418-1.516 3.418-3.383.001-1.87-1.53-3.384-3.418-3.384Z"/><path fill="url(#c)" d="M35.362 35.933c-.503 0-.979.11-1.41.303v-21.7C33.953 6.52 27.42 0 19.39 0S4.827 6.52 4.827 14.536v21.7a3.422 3.422 0 0 0-1.41-.304C1.532 35.932 0 37.447 0 39.314c0 1.868 1.53 3.383 3.418 3.383 1.887 0 3.418-1.515 3.418-3.383v-24.78c0-6.909 5.632-12.53 12.554-12.53 6.922 0 12.554 5.621 12.554 12.53v24.767l-.001.013c0 1.87 1.53 3.383 3.418 3.383 1.887 0 3.418-1.515 3.418-3.383 0-1.867-1.53-3.381-3.417-3.381Z"/><path fill="#F4F4F4" d="M57.533 17.541a7.898 7.898 0 0 0-2.594-1.685c-.99-.402-2.08-.603-3.265-.603-1.171 0-2.256.201-3.255.603a7.917 7.917 0 0 0-2.603 1.685 7.623 7.623 0 0 0-1.715 2.545c-.405.976-.607 2.044-.607 3.204 0 1.16.203 2.23.607 3.204a7.59 7.59 0 0 0 1.715 2.545 7.89 7.89 0 0 0 2.603 1.685c.999.402 2.09.604 3.276.604 1.172 0 2.253-.202 3.244-.604a8.036 8.036 0 0 0 2.594-1.674 7.455 7.455 0 0 0 1.714-2.544c.406-.983.607-2.054.607-3.216 0-1.16-.203-2.228-.607-3.204a7.623 7.623 0 0 0-1.714-2.545Zm-.923 7.949a5.427 5.427 0 0 1-1.117 1.741c-.477.5-1.042.882-1.693 1.15-.65.268-1.36.403-2.126.403a5.518 5.518 0 0 1-2.126-.402 4.885 4.885 0 0 1-1.692-1.15 5.42 5.42 0 0 1-1.118-1.753 5.84 5.84 0 0 1-.402-2.189c0-.803.134-1.536.402-2.198a5.333 5.333 0 0 1 1.129-1.742 5.044 5.044 0 0 1 1.692-1.15 5.438 5.438 0 0 1 2.115-.402c.766 0 1.476.133 2.127.402a4.9 4.9 0 0 1 1.692 1.15 5.45 5.45 0 0 1 1.117 1.742c.268.662.402 1.395.402 2.198 0 .805-.134 1.538-.402 2.2ZM66.08 20.526a3.645 3.645 0 0 1 1.801-.446c.578 0 1.118.134 1.617.402.5.268.922.685 1.269 1.25l2.083-1.25c-.448-.908-1.103-1.596-1.964-2.065-.861-.468-1.855-.703-2.984-.703-1.215 0-2.296.261-3.244.78a5.706 5.706 0 0 0-2.224 2.156c-.535.915-.803 1.968-.803 3.159 0 1.175.268 2.225.803 3.148a5.762 5.762 0 0 0 2.224 2.177c.948.529 2.03.793 3.244.793 1.13 0 2.123-.242 2.984-.725a4.769 4.769 0 0 0 1.964-2.065l-2.083-1.25c-.348.565-.77.981-1.269 1.25-.5.268-1.038.402-1.617.402a3.642 3.642 0 0 1-1.8-.446 3.15 3.15 0 0 1-1.259-1.284c-.304-.559-.455-1.224-.455-1.999 0-.774.151-1.44.455-1.999a3.17 3.17 0 0 1 1.258-1.285ZM80.032 27.626c-.507 0-.9-.156-1.182-.47-.282-.312-.423-.75-.423-1.316v-5.672h3.102v-2.232h-3.102v-2.723h-2.713v2.723h-1.91v2.232h1.91v5.738c0 1.325.347 2.326 1.04 3.003.695.677 1.679 1.016 2.952 1.016.492 0 .968-.068 1.431-.202a3.134 3.134 0 0 0 1.172-.603l-.76-1.987c-.403.33-.91.493-1.517.493ZM88.971 17.712c-.926 0-1.82.123-2.68.369-.86.246-1.601.614-2.223 1.105l1.063 2.033c.434-.373.966-.662 1.594-.871a6.065 6.065 0 0 1 1.92-.312c.969 0 1.692.227 2.17.68.477.454.716 1.091.716 1.91v.178h-2.995c-1.171 0-2.113.156-2.821.468-.708.313-1.219.737-1.53 1.273a3.532 3.532 0 0 0-.466 1.809c0 .685.176 1.3.532 1.843.354.543.857.968 1.508 1.273.65.304 1.41.457 2.278.457 1.027 0 1.877-.194 2.549-.581.464-.268.827-.611 1.095-1.027v1.45h2.56v-6.988c0-1.726-.459-3.003-1.377-3.828-.918-.827-2.216-1.24-3.893-1.24Zm1.42 9.713a3.45 3.45 0 0 1-1.789.468c-.694 0-1.236-.149-1.627-.446-.39-.297-.585-.7-.585-1.205 0-.446.159-.822.476-1.128.318-.305.94-.458 1.866-.458h2.799v1.385c-.232.61-.61 1.07-1.14 1.384ZM102.023 26.684l-3.592-8.838h-2.82l4.969 11.922h2.798l4.969-11.922h-2.603l-3.721 8.838ZM117.765 18.472c-.883-.506-1.888-.76-3.017-.76-1.157 0-2.187.261-3.092.78a5.612 5.612 0 0 0-2.127 2.156c-.513.915-.769 1.968-.769 3.159 0 1.175.264 2.225.792 3.148a5.652 5.652 0 0 0 2.235 2.177c.961.529 2.087.793 3.374.793 1.013 0 1.913-.167 2.701-.502a5.102 5.102 0 0 0 1.964-1.44l-1.454-1.719a3.752 3.752 0 0 1-1.39.983c-.52.209-1.106.313-1.757.313-.752 0-1.418-.15-1.996-.447a3.212 3.212 0 0 1-1.345-1.272 3.495 3.495 0 0 1-.405-1.14h9.083a8.397 8.397 0 0 0 .044-.827c0-1.25-.253-2.337-.76-3.259a5.407 5.407 0 0 0-2.081-2.143Zm-5.934 3.159c.282-.529.672-.94 1.171-1.24.5-.297 1.082-.445 1.748-.445.65 0 1.225.148 1.724.446.5.298.894.707 1.183 1.228.204.367.328.778.382 1.228h-6.582a3.56 3.56 0 0 1 .374-1.217ZM131.237 17.846l-3.668 8.82-3.645-8.82h-2.821l5.065 11.96-.205.476c-.26.596-.542 1.019-.846 1.273-.304.252-.702.38-1.194.38-.362 0-.716-.076-1.062-.224a3.264 3.264 0 0 1-.934-.604l-1.085 2.054c.375.342.846.61 1.41.803.565.194 1.129.29 1.692.29.651 0 1.248-.104 1.79-.312.542-.209 1.034-.574 1.476-1.095.441-.52.842-1.228 1.204-2.12l5.424-12.882h-2.601v.001Z"/><defs><linearGradient id="a" x1="19.39" x2="19.39" y1="50.535" y2="1.603" gradientUnits="userSpaceOnUse"><stop stop-color="#AC06D9"/><stop offset=".5" stop-color="#0067C4"/><stop offset=".577" stop-color="#0370C9"/><stop offset=".703" stop-color="#0B89D5"/><stop offset=".861" stop-color="#19B1E9"/><stop offset="1" stop-color="#26D9FE"/></linearGradient><linearGradient id="b" x1="19.391" x2="19.391" y1="50.536" y2="1.604" gradientUnits="userSpaceOnUse"><stop stop-color="#AC06D9"/><stop offset=".5" stop-color="#0067C4"/><stop offset=".577" stop-color="#0370C9"/><stop offset=".703" stop-color="#0B89D5"/><stop offset=".861" stop-color="#19B1E9"/><stop offset="1" stop-color="#26D9FE"/></linearGradient><linearGradient id="c" x1="19.39" x2="19.39" y1="50.535" y2="1.603" gradientUnits="userSpaceOnUse"><stop stop-color="#AC06D9"/><stop offset=".5" stop-color="#0067C4"/><stop offset=".577" stop-color="#0370C9"/><stop offset=".703" stop-color="#0B89D5"/><stop offset=".861" stop-color="#19B1E9"/><stop offset="1" stop-color="#26D9FE"/></linearGradient></defs></svg>