<svg xmlns="http://www.w3.org/2000/svg" width="24" height="25" fill="none"><path fill="url(#a)" d="M9.695 24.629c-.883 0-1.495-.71-1.914-1.791L.306 3.394C.113 2.887 0 2.448 0 2.064 0 1.266.51.759 1.325.759c.374 0 .827.101 1.325.293l19.64 7.48c.974.372 1.71.98 1.71 1.859 0 1.081-.804 1.487-1.914 1.813l-8.178 2.389-2.378 8.043c-.34 1.15-.748 1.994-1.835 1.994Zm3.556-12.11 7.034-2.14c.17-.046.215-.102.215-.17 0-.078-.045-.146-.192-.191L6.864 4.904C5.9 4.532 4.96 4.08 3.93 3.608c.816.654 1.812 1.453 2.492 2.13l6.83 6.78Zm-3.76 8.64c.08 0 .136-.067.181-.225l2.152-6.996-6.818-6.793c-.657-.664-1.495-1.69-2.152-2.512.476 1.037.94 1.983 1.314 2.952L9.31 20.956c.057.147.102.203.181.203Z"/><defs><linearGradient id="a" x1="12" x2="12" y1="25.226" y2="-2.129" gradientUnits="userSpaceOnUse"><stop stop-color="#AC06D9"/><stop offset=".5" stop-color="#0067C4"/><stop offset=".577" stop-color="#0370C9"/><stop offset=".703" stop-color="#0B89D5"/><stop offset=".861" stop-color="#19B1E9"/><stop offset="1" stop-color="#26D9FE"/></linearGradient></defs></svg>