<svg width="103" height="84" viewBox="0 0 103 84" fill="none" xmlns="http://www.w3.org/2000/svg">
<path d="M48.6114 82.4815C48.6114 82.4815 16.5389 74.4846 16.5389 18.826C27.2298 17.9623 37.6965 16.7468 48.6114 6.7666C59.5262 16.7468 69.993 17.9623 80.6838 18.826C80.6838 74.4846 48.6114 82.4815 48.6114 82.4815Z" fill="url(#paint0_linear_923_5324)" fill-opacity="0.12" stroke="url(#paint1_linear_923_5324)" stroke-opacity="0.6" stroke-width="2" stroke-miterlimit="10" stroke-linecap="round" stroke-linejoin="round"/>
<path d="M50.9402 42.2531H50.7957V38.3996C50.7957 38.0349 50.4994 37.7393 50.1337 37.7393C49.768 37.7393 49.4717 38.0349 49.4717 38.3996V42.2531H49.3272C49.224 42.2531 49.1398 42.3363 49.1398 42.44V48.0136C49.1398 48.1165 49.2232 48.2005 49.3272 48.2005H50.9402C51.0434 48.2005 51.1276 48.1173 51.1276 48.0136V42.44C51.1276 42.3371 51.0442 42.2531 50.9402 42.2531Z" fill="url(#paint2_linear_923_5324)"/>
<path d="M56.1971 56.4699C55.8653 56.4699 55.5516 56.5424 55.2677 56.67V48.2006H55.4121C55.5153 48.2006 55.5995 48.1174 55.5995 48.0137V42.4401C55.5995 42.3372 55.5161 42.2532 55.4121 42.2532H55.2677V37.9049C55.2677 35.0814 52.9646 32.7842 50.134 32.7842C47.3035 32.7842 45.0004 35.0814 45.0004 37.9049V42.2532H44.856C44.7528 42.2532 44.6686 42.3364 44.6686 42.4401V48.0137C44.6686 48.1166 44.7519 48.2006 44.856 48.2006H45.0004V56.67C44.7173 56.5432 44.4036 56.4708 44.0718 56.4708C42.8269 56.4708 41.8174 57.4695 41.8174 58.7005C41.8174 59.9323 42.8269 60.9302 44.0718 60.9302C45.3166 60.9302 46.3261 59.9315 46.3261 58.7005C46.3261 58.6931 46.3253 58.6865 46.3253 58.6791V48.2006H46.4698C46.5729 48.2006 46.6571 48.1174 46.6571 48.0137V42.4401C46.6571 42.3372 46.5738 42.2532 46.4698 42.2532H46.3253V37.9049C46.3253 35.8101 48.034 34.1057 50.134 34.1057C52.234 34.1057 53.9428 35.8101 53.9428 37.9049V42.2532H53.7983C53.6951 42.2532 53.6109 42.3364 53.6109 42.4401V48.0137C53.6109 48.1166 53.6943 48.2006 53.7983 48.2006H53.9428V58.6923C53.9428 58.6947 53.9428 58.6972 53.9428 58.7005C53.9428 59.9323 54.9523 60.9302 56.1971 60.9302C57.442 60.9302 58.4515 59.9315 58.4515 58.7005C58.4523 57.4687 57.4428 56.4699 56.1971 56.4699Z" fill="url(#paint3_linear_923_5324)"/>
<path d="M60.6684 52.0082C60.3366 52.0082 60.0229 52.0806 59.739 52.2083V37.9043C59.739 32.6214 55.43 28.3232 50.1337 28.3232C44.8375 28.3232 40.5285 32.6214 40.5285 37.9043V52.2074C40.2446 52.0798 39.9309 52.0073 39.599 52.0073C38.3542 52.0073 37.3447 53.0061 37.3447 54.2371C37.3447 55.4681 38.3542 56.4668 39.599 56.4668C40.8439 56.4668 41.8534 55.4681 41.8534 54.2371C41.8534 54.2346 41.8534 54.233 41.8534 54.2305V37.9034C41.8534 33.3492 45.568 29.644 50.1337 29.644C54.6994 29.644 58.4141 33.3492 58.4141 37.9034V54.228C58.4141 54.2313 58.4132 54.2338 58.4132 54.2371C58.4132 55.4689 59.4228 56.4668 60.6676 56.4668C61.9124 56.4668 62.922 55.4681 62.922 54.2371C62.922 53.0061 61.9133 52.0082 60.6684 52.0082Z" fill="url(#paint4_linear_923_5324)"/>
<path d="M65.9274 16.6651C67.3678 16.0893 68.8082 15.5615 70.2006 15.0657C85.0685 9.85168 96.8156 9.54779 100.497 15.3376C106.386 24.598 89.3736 45.9338 62.5025 63.0152C35.6315 80.0967 9.06449 86.4302 3.17494 77.1698C-0.922137 70.7563 5.97568 58.553 19.5312 45.9978" stroke="url(#paint5_linear_923_5324)" stroke-width="2.5" stroke-miterlimit="10" stroke-linecap="round" stroke-linejoin="round"/>
<defs>
<linearGradient id="paint0_linear_923_5324" x1="16.5369" y1="44.632" x2="80.6813" y2="44.632" gradientUnits="userSpaceOnUse">
<stop stop-color="#26D9FE" stop-opacity="0.2"/>
<stop offset="0.4886" stop-color="#26D9FE"/>
<stop offset="0.761" stop-color="#26D9FE"/>
<stop offset="1" stop-color="#26D9FE" stop-opacity="0.5"/>
</linearGradient>
<linearGradient id="paint1_linear_923_5324" x1="23.0625" y1="11.6929" x2="74.1226" y2="62.7861" gradientUnits="userSpaceOnUse">
<stop stop-color="#26D9FE" stop-opacity="0.5"/>
<stop offset="0.1354" stop-color="#26D9FE"/>
<stop offset="0.4187" stop-color="#26D9FE"/>
<stop offset="0.7736" stop-color="#26D9FE" stop-opacity="0.39"/>
<stop offset="0.9939" stop-color="#26D9FE"/>
</linearGradient>
<linearGradient id="paint2_linear_923_5324" x1="50.134" y1="61.6338" x2="50.134" y2="29.3803" gradientUnits="userSpaceOnUse">
<stop stop-color="#AC06D9"/>
<stop offset="0.5" stop-color="#0067C4"/>
<stop offset="0.5769" stop-color="#0370C9"/>
<stop offset="0.7029" stop-color="#0B89D5"/>
<stop offset="0.8614" stop-color="#19B1E9"/>
<stop offset="1" stop-color="#26D9FE"/>
</linearGradient>
<linearGradient id="paint3_linear_923_5324" x1="50.1347" y1="61.6339" x2="50.1347" y2="29.3804" gradientUnits="userSpaceOnUse">
<stop stop-color="#AC06D9"/>
<stop offset="0.5" stop-color="#0067C4"/>
<stop offset="0.5769" stop-color="#0370C9"/>
<stop offset="0.7029" stop-color="#0B89D5"/>
<stop offset="0.8614" stop-color="#19B1E9"/>
<stop offset="1" stop-color="#26D9FE"/>
</linearGradient>
<linearGradient id="paint4_linear_923_5324" x1="50.1339" y1="61.6333" x2="50.1339" y2="29.3798" gradientUnits="userSpaceOnUse">
<stop stop-color="#AC06D9"/>
<stop offset="0.5" stop-color="#0067C4"/>
<stop offset="0.5769" stop-color="#0370C9"/>
<stop offset="0.7029" stop-color="#0B89D5"/>
<stop offset="0.8614" stop-color="#19B1E9"/>
<stop offset="1" stop-color="#26D9FE"/>
</linearGradient>
<linearGradient id="paint5_linear_923_5324" x1="41.9127" y1="29.0954" x2="61.319" y2="64.729" gradientUnits="userSpaceOnUse">
<stop stop-color="#26D9FE" stop-opacity="0"/>
<stop offset="0.619792" stop-color="#26D9FE" stop-opacity="0.583333"/>
<stop offset="1" stop-color="#26D9FE"/>
</linearGradient>
</defs>
</svg>
