<svg width="223" height="170" viewBox="0 0 223 170" fill="none" xmlns="http://www.w3.org/2000/svg">
<path d="M104.285 168C104.285 168 33.9038 150.451 33.9038 28.3121C57.3641 26.4168 80.3327 23.7494 104.285 1.84863C128.237 23.7494 151.205 26.4168 174.665 28.3121C174.665 150.451 104.285 168 104.285 168Z" fill="url(#paint0_linear_891_6130)" fill-opacity="0.12" stroke="url(#paint1_linear_891_6130)" stroke-opacity="0.6" stroke-width="3" stroke-miterlimit="10" stroke-linecap="round" stroke-linejoin="round"/>
<path d="M109.395 79.7198H109.078V71.2636C109.078 70.4631 108.428 69.8145 107.625 69.8145C106.823 69.8145 106.172 70.4631 106.172 71.2636V79.7198H105.855C105.629 79.7198 105.444 79.9023 105.444 80.1299V92.3607C105.444 92.5866 105.627 92.7709 105.855 92.7709H109.395C109.621 92.7709 109.806 92.5884 109.806 92.3607V80.1299C109.806 79.9041 109.623 79.7198 109.395 79.7198Z" fill="url(#paint2_linear_891_6130)"/>
<path d="M120.931 110.919C120.203 110.919 119.514 111.078 118.891 111.358V92.7726H119.208C119.435 92.7726 119.619 92.5901 119.619 92.3625V80.1317C119.619 79.9058 119.436 79.7215 119.208 79.7215H118.891V70.1794C118.891 63.9836 113.837 58.9424 107.626 58.9424C101.414 58.9424 96.3604 63.9836 96.3604 70.1794V79.7215H96.0434C95.817 79.7215 95.6322 79.904 95.6322 80.1317V92.3625C95.6322 92.5883 95.8152 92.7726 96.0434 92.7726H96.3604V111.358C95.7391 111.08 95.0508 110.921 94.3226 110.921C91.5909 110.921 89.3755 113.113 89.3755 115.814C89.3755 118.517 91.5909 120.707 94.3226 120.707C97.0542 120.707 99.2696 118.515 99.2696 115.814C99.2696 115.798 99.2678 115.783 99.2678 115.767V92.7726H99.5848C99.8112 92.7726 99.996 92.5901 99.996 92.3625V80.1317C99.996 79.9058 99.813 79.7215 99.5848 79.7215H99.2678V70.1794C99.2678 65.5827 103.017 61.8424 107.626 61.8424C112.234 61.8424 115.984 65.5827 115.984 70.1794V79.7215H115.667C115.44 79.7215 115.256 79.904 115.256 80.1317V92.3625C115.256 92.5883 115.439 92.7726 115.667 92.7726H115.984V115.796C115.984 115.801 115.984 115.807 115.984 115.814C115.984 118.517 118.199 120.707 120.931 120.707C123.663 120.707 125.878 118.515 125.878 115.814C125.88 113.111 123.664 110.919 120.931 110.919Z" fill="url(#paint3_linear_891_6130)"/>
<path d="M130.743 101.128C130.015 101.128 129.327 101.287 128.704 101.567V70.1782C128.704 58.5852 119.248 49.1533 107.626 49.1533C96.0033 49.1533 86.5475 58.5852 86.5475 70.1782V101.566C85.9244 101.285 85.2361 101.126 84.5079 101.126C81.7762 101.126 79.5608 103.318 79.5608 106.02C79.5608 108.721 81.7762 110.913 84.5079 110.913C87.2395 110.913 89.4549 108.721 89.4549 106.02C89.4549 106.014 89.4549 106.01 89.4549 106.005V70.1764C89.4549 60.1825 97.6064 52.0516 107.626 52.0516C117.645 52.0516 125.796 60.1825 125.796 70.1764V106C125.796 106.007 125.794 106.012 125.794 106.02C125.794 108.723 128.01 110.913 130.741 110.913C133.473 110.913 135.689 108.721 135.689 106.02C135.689 103.318 133.475 101.128 130.743 101.128Z" fill="url(#paint4_linear_891_6130)"/>
<path d="M142.284 23.5713C145.445 22.3077 148.606 21.1495 151.661 20.0615C184.288 8.61976 210.066 7.9529 218.144 20.6582C231.068 40.9796 193.735 87.7996 134.768 125.284C75.8016 162.768 17.5021 176.666 4.57793 156.345C-4.41284 142.271 10.724 115.491 40.4707 87.94" stroke="url(#paint5_linear_891_6130)" stroke-width="3.52" stroke-miterlimit="10" stroke-linecap="round" stroke-linejoin="round"/>
<defs>
<linearGradient id="paint0_linear_891_6130" x1="33.8993" y1="84.9416" x2="174.66" y2="84.9416" gradientUnits="userSpaceOnUse">
<stop stop-color="#26D9FE" stop-opacity="0.2"/>
<stop offset="0.4886" stop-color="#26D9FE"/>
<stop offset="0.761" stop-color="#26D9FE"/>
<stop offset="1" stop-color="#26D9FE" stop-opacity="0.5"/>
</linearGradient>
<linearGradient id="paint1_linear_891_6130" x1="48.2192" y1="12.659" x2="160.267" y2="124.78" gradientUnits="userSpaceOnUse">
<stop stop-color="#26D9FE" stop-opacity="0.5"/>
<stop offset="0.1354" stop-color="#26D9FE"/>
<stop offset="0.4187" stop-color="#26D9FE"/>
<stop offset="0.7736" stop-color="#26D9FE" stop-opacity="0.39"/>
<stop offset="0.9939" stop-color="#26D9FE"/>
</linearGradient>
<linearGradient id="paint2_linear_891_6130" x1="107.626" y1="122.249" x2="107.626" y2="51.4712" gradientUnits="userSpaceOnUse">
<stop stop-color="#AC06D9"/>
<stop offset="0.5" stop-color="#0067C4"/>
<stop offset="0.5769" stop-color="#0370C9"/>
<stop offset="0.7029" stop-color="#0B89D5"/>
<stop offset="0.8614" stop-color="#19B1E9"/>
<stop offset="1" stop-color="#26D9FE"/>
</linearGradient>
<linearGradient id="paint3_linear_891_6130" x1="107.627" y1="122.251" x2="107.627" y2="51.473" gradientUnits="userSpaceOnUse">
<stop stop-color="#AC06D9"/>
<stop offset="0.5" stop-color="#0067C4"/>
<stop offset="0.5769" stop-color="#0370C9"/>
<stop offset="0.7029" stop-color="#0B89D5"/>
<stop offset="0.8614" stop-color="#19B1E9"/>
<stop offset="1" stop-color="#26D9FE"/>
</linearGradient>
<linearGradient id="paint4_linear_891_6130" x1="107.626" y1="122.25" x2="107.626" y2="51.4718" gradientUnits="userSpaceOnUse">
<stop stop-color="#AC06D9"/>
<stop offset="0.5" stop-color="#0067C4"/>
<stop offset="0.5769" stop-color="#0370C9"/>
<stop offset="0.7029" stop-color="#0B89D5"/>
<stop offset="0.8614" stop-color="#19B1E9"/>
<stop offset="1" stop-color="#26D9FE"/>
</linearGradient>
<linearGradient id="paint5_linear_891_6130" x1="89.5853" y1="50.8488" x2="132.171" y2="129.044" gradientUnits="userSpaceOnUse">
<stop stop-color="#26D9FE" stop-opacity="0"/>
<stop offset="0.619792" stop-color="#3AD0FC" stop-opacity="0.583333"/>
<stop offset="1" stop-color="#26D9FE"/>
</linearGradient>
</defs>
</svg>
