<svg width="118" height="118" viewBox="0 0 118 118" fill="none" xmlns="http://www.w3.org/2000/svg">
<rect x="2" y="2" width="114" height="114" rx="16" fill="url(#paint0_linear_1010_5349)" fill-opacity="0.16"/>
<rect x="1.25" y="1.25" width="115.5" height="115.5" rx="16.75" stroke="url(#paint1_linear_1010_5349)" stroke-opacity="0.6" stroke-width="1.5"/>
<rect x="1.25" y="1.25" width="115.5" height="115.5" rx="16.75" stroke="url(#paint2_linear_1010_5349)" stroke-opacity="0.6" stroke-width="1.5"/>
<path d="M59.2051 42.5664C57.5189 42.5664 55.9922 42.8854 54.625 43.5234C53.2578 44.1615 52.0957 45.2552 51.1387 46.8047C50.1816 48.3086 49.4297 50.2682 48.8828 52.6836C48.3815 55.099 48.1081 58.0612 48.0625 61.5703C48.1081 64.3503 48.2904 66.8112 48.6094 68.9531C48.9284 71.0951 49.4069 72.918 50.0449 74.4219L46.2852 82.4199C44.1888 80.278 42.571 77.498 41.4316 74.0801C40.2923 70.6165 39.7227 66.4466 39.7227 61.5703C39.7227 57.332 40.1556 53.6178 41.0215 50.4277C41.9329 47.1921 43.209 44.5033 44.8496 42.3613C46.5358 40.2194 48.5638 38.6016 50.9336 37.5078C53.349 36.3685 56.0378 35.7988 59 35.7988C62.1445 35.7988 64.9017 36.3913 67.2715 37.5762L64.2637 44.002C62.7598 43.0449 61.0736 42.5664 59.2051 42.5664ZM71.5098 40.5156C73.7428 42.612 75.429 45.4147 76.5684 48.9238C77.7533 52.4329 78.3457 56.6484 78.3457 61.5703C78.3457 65.8086 77.89 69.5456 76.9785 72.7812C76.1126 76.0169 74.8366 78.7057 73.1504 80.8477C71.4642 82.9896 69.4362 84.6074 67.0664 85.7012C64.6966 86.7949 62.0078 87.3418 59 87.3418C55.7643 87.3418 52.8932 86.7038 50.3867 85.4277L53.4629 78.9336C54.8757 80.0729 56.653 80.6426 58.7949 80.6426C60.4811 80.6426 62.0078 80.3236 63.375 79.6855C64.7878 79.002 65.9727 77.9082 66.9297 76.4043C67.8867 74.9004 68.6159 72.9408 69.1172 70.5254C69.6641 68.0645 69.9603 65.0794 70.0059 61.5703C69.9603 58.6992 69.7552 56.1927 69.3906 54.0508C69.026 51.9089 68.502 50.0859 67.8184 48.582C67.7728 48.5365 67.75 48.4909 67.75 48.4453L71.5098 40.5156Z" fill="#D7D7D7"/>
<defs>
<linearGradient id="paint0_linear_1010_5349" x1="2" y1="4.29839" x2="110.484" y2="117.379" gradientUnits="userSpaceOnUse">
<stop stop-color="white"/>
<stop offset="0.0001" stop-color="white"/>
<stop offset="1" stop-color="white" stop-opacity="0.14"/>
</linearGradient>
<linearGradient id="paint1_linear_1010_5349" x1="6.59678" y1="5.73673" x2="31.1237" y2="52.6985" gradientUnits="userSpaceOnUse">
<stop stop-color="white"/>
<stop offset="1" stop-color="white" stop-opacity="0"/>
</linearGradient>
<linearGradient id="paint2_linear_1010_5349" x1="105.887" y1="115.97" x2="79.9896" y2="74.0901" gradientUnits="userSpaceOnUse">
<stop offset="0.0001" stop-color="white" stop-opacity="0.989583"/>
<stop offset="1" stop-color="white" stop-opacity="0"/>
</linearGradient>
</defs>
</svg>
