<svg width="191" height="90" viewBox="0 0 191 90" fill="none" xmlns="http://www.w3.org/2000/svg">
<path d="M135.303 55.6232C138.627 51.6528 143.624 49.3347 150.078 48.7058V29.6554C150.153 28.4223 151.287 27.516 152.769 27.516L167.371 29.1868C167.924 29.2412 168.439 29.4894 168.826 29.8869C169.212 30.2844 169.443 30.8054 169.479 31.357V34.5814C169.468 34.8971 169.384 35.2061 169.235 35.4849C169.086 35.7638 168.874 36.0051 168.617 36.1905C168.079 36.6135 167.395 36.8085 166.714 36.733L154.933 35.4013V55.0067C154.888 56.1425 154.627 57.2596 154.164 58.2989C153.065 60.1685 151.431 61.6707 149.471 62.6145C147.658 63.5754 145.641 64.0912 143.587 64.1188C143.382 64.1188 143.171 64.1188 142.967 64.1188C140.524 63.9832 138.496 62.966 137.424 61.3383C135.744 64.9758 135.657 68.9894 135.843 71.5048C136.128 73.1153 136.763 74.6447 137.703 75.9869C139.619 78.5146 144.263 80.7711 149.942 79.7476C156.08 78.6441 158.039 74.5874 160.972 67.5159C162.201 64.3432 163.679 61.2717 165.393 58.3297C167.065 55.7131 168.889 53.1955 170.855 50.7897C173.639 47.2385 176.268 43.9093 177.57 40.4075C180.447 32.7256 179.188 25.1054 174.117 19.4951C169.776 14.6739 149.936 4.48901 136.128 13.7676C133.774 15.6973 131.798 18.0424 130.3 20.685C124.49 30.6665 125.197 56.7576 130.852 71.8562C130.56 67.9536 130.814 60.9869 135.303 55.6232Z" fill="url(#paint0_linear_135_2839)"/>
<path d="M12.8805 48.328C12.8805 48.0933 12.8912 47.8053 12.9125 47.464C12.9338 47.1227 12.9552 46.76 12.9765 46.376C13.0192 45.992 13.0618 45.608 13.1045 45.224C13.1685 44.8187 13.2325 44.4453 13.2965 44.104C13.3605 43.6773 13.5738 43.464 13.9365 43.464H16.4005C16.8058 43.464 16.9872 43.6667 16.9445 44.072C16.9018 44.5413 16.8592 45.0213 16.8165 45.512C16.7952 45.9813 16.7845 46.3653 16.7845 46.664C16.7845 47.7733 16.8485 48.808 16.9765 49.768C17.1258 50.7067 17.4245 51.528 17.8725 52.232C18.3205 52.9147 18.9712 53.448 19.8245 53.832C20.6778 54.2373 21.8192 54.44 23.2485 54.44C23.8245 54.44 24.3472 54.4187 24.8165 54.376C25.3072 54.3547 25.7765 54.312 26.2245 54.248C26.2458 53.7147 26.2565 53.2453 26.2565 52.84C26.2778 52.4133 26.2885 52.0187 26.2885 51.656C26.3098 51.2933 26.3205 50.9307 26.3205 50.568C26.3205 50.2053 26.3205 49.8107 26.3205 49.384V46.568C26.3205 44.136 27.0245 42.344 28.4325 41.192C29.8618 40.04 31.8992 39.464 34.5445 39.464C35.3978 39.464 36.2405 39.5067 37.0725 39.592C37.9045 39.6773 38.5978 39.7733 39.1525 39.88C39.3232 39.9227 39.4512 39.9867 39.5365 40.072C39.6432 40.1573 39.6965 40.3067 39.6965 40.52V47.784C39.6965 48.2533 39.8032 48.5627 40.0165 48.712C40.2298 48.84 40.6138 48.904 41.1685 48.904H42.6405V53H40.1125C39.3658 53 38.7152 52.9467 38.1605 52.84C37.6058 52.7333 37.1365 52.5307 36.7525 52.232C36.3898 51.9333 36.1125 51.528 35.9205 51.016C35.7285 50.4827 35.6325 49.8 35.6325 48.968V43.336C35.3125 43.2933 35.0458 43.2613 34.8325 43.24C34.6192 43.2187 34.3632 43.208 34.0645 43.208C32.8485 43.208 31.9312 43.4853 31.3125 44.04C30.6938 44.5733 30.3845 45.544 30.3845 46.952V52.232C30.3845 53 30.3738 53.8427 30.3525 54.76C30.3312 55.6773 30.2992 56.5093 30.2565 57.256C30.2565 57.64 30.0218 57.8747 29.5525 57.96C28.6565 58.1093 27.6538 58.2267 26.5445 58.312C25.4565 58.3973 24.3258 58.44 23.1525 58.44C21.3178 58.44 19.7498 58.216 18.4485 57.768C17.1472 57.3413 16.0805 56.7013 15.2485 55.848C14.4378 55.016 13.8405 53.9707 13.4565 52.712C13.0725 51.4533 12.8805 49.992 12.8805 48.328ZM17.0725 61.32C17.0725 61.1067 17.1472 60.936 17.2965 60.808C17.4458 60.7013 17.6165 60.648 17.8085 60.648H19.9525C20.1445 60.648 20.3152 60.7013 20.4645 60.808C20.6138 60.936 20.6885 61.1067 20.6885 61.32V63.592C20.6885 63.7627 20.6032 63.912 20.4325 64.04C20.2832 64.168 20.1232 64.232 19.9525 64.232H17.8085C17.6165 64.232 17.4458 64.168 17.2965 64.04C17.1472 63.912 17.0725 63.7627 17.0725 63.592V61.32ZM23.0245 61.32C23.0245 61.1067 23.0992 60.936 23.2485 60.808C23.3978 60.7013 23.5578 60.648 23.7285 60.648H25.9045C26.0752 60.648 26.2352 60.7013 26.3845 60.808C26.5338 60.936 26.6085 61.1067 26.6085 61.32V63.592C26.6085 63.7627 26.5338 63.912 26.3845 64.04C26.2352 64.168 26.0752 64.232 25.9045 64.232H23.7285C23.5578 64.232 23.3978 64.168 23.2485 64.04C23.0992 63.912 23.0245 63.7627 23.0245 63.592V61.32ZM41.345 49.288C41.345 49.1813 41.4623 49.096 41.697 49.032C41.9317 48.9467 42.1663 48.904 42.401 48.904H45.857C45.4943 48.4773 45.1957 47.8907 44.961 47.144C44.7477 46.376 44.641 45.5227 44.641 44.584V44.232C44.641 42.9947 44.8543 41.9493 45.281 41.096C45.7077 40.2213 46.2837 39.5067 47.009 38.952C47.7557 38.3973 48.609 37.992 49.569 37.736C50.5503 37.48 51.585 37.352 52.673 37.352C53.441 37.352 54.1023 37.384 54.657 37.448C55.233 37.4907 55.873 37.576 56.577 37.704C56.8117 37.7467 56.993 37.8107 57.121 37.896C57.249 37.96 57.313 38.0987 57.313 38.312V40.648C57.313 41.0747 57.089 41.2667 56.641 41.224C56.2997 41.2027 55.9903 41.1813 55.713 41.16C55.457 41.1387 55.201 41.128 54.945 41.128C54.7103 41.1067 54.4543 41.096 54.177 41.096C53.921 41.0747 53.6223 41.064 53.281 41.064C51.809 41.064 50.6677 41.352 49.857 41.928C49.0677 42.4827 48.673 43.432 48.673 44.776V45.128C48.673 46.024 48.865 46.8347 49.249 47.56C49.633 48.264 50.0703 48.712 50.561 48.904H57.249C57.4197 48.904 57.569 48.9573 57.697 49.064C57.825 49.1707 57.889 49.3093 57.889 49.48V52.456C57.889 52.6267 57.825 52.7653 57.697 52.872C57.569 52.9573 57.4197 53 57.249 53H42.401C42.1663 53 41.9317 52.968 41.697 52.904C41.4623 52.84 41.345 52.744 41.345 52.616V49.288ZM62.118 29.288C62.118 29.1173 62.182 28.968 62.31 28.84C62.438 28.712 62.598 28.648 62.79 28.648H65.638C65.8513 28.648 66.0113 28.712 66.118 28.84C66.2247 28.968 66.278 29.1173 66.278 29.288V47.272C66.278 47.9973 66.4273 48.456 66.726 48.648C67.0247 48.8187 67.4727 48.904 68.07 48.904H69.126V53H66.886C66.1607 53 65.4993 52.9467 64.902 52.84C64.326 52.712 63.8247 52.488 63.398 52.168C62.9927 51.8267 62.6727 51.368 62.438 50.792C62.2247 50.1947 62.118 49.4267 62.118 48.488V29.288ZM67.845 49.288C67.845 49.1813 67.9623 49.096 68.197 49.032C68.4317 48.9467 68.6663 48.904 68.901 48.904H69.861C70.0103 48.904 70.181 48.904 70.373 48.904C70.5863 48.8827 70.7783 48.8507 70.949 48.808C71.141 48.7653 71.301 48.6907 71.429 48.584C71.557 48.4773 71.6423 48.3387 71.685 48.168C71.749 47.976 71.781 47.72 71.781 47.4V44.712C71.781 42.3653 72.4317 40.5947 73.733 39.4C75.0343 38.184 76.7837 37.576 78.981 37.576C81.157 37.576 82.8743 38.1733 84.133 39.368C85.3917 40.5413 86.021 42.312 86.021 44.68V46.568C86.021 46.7813 86.021 47.0053 86.021 47.24C86.021 47.4533 85.9997 47.6667 85.957 47.88C85.9997 48.0933 86.0957 48.264 86.245 48.392C86.4157 48.52 86.597 48.6267 86.789 48.712C86.981 48.776 87.1837 48.8293 87.397 48.872C87.6103 48.8933 87.781 48.904 87.909 48.904H88.645V53H88.005C87.2797 53 86.565 52.9147 85.861 52.744C85.157 52.5733 84.5277 52.296 83.973 51.912C83.4183 52.5307 82.7037 52.9893 81.829 53.288C80.9757 53.5867 80.005 53.736 78.917 53.736C77.829 53.736 76.773 53.5867 75.749 53.288C74.7463 52.9893 73.989 52.5307 73.477 51.912C73.0503 52.3387 72.4957 52.6267 71.813 52.776C71.1303 52.9253 70.437 53 69.733 53H68.901C68.6663 53 68.4317 52.968 68.197 52.904C67.9623 52.84 67.845 52.744 67.845 52.616V49.288ZM75.813 45V46.376C75.813 46.888 75.845 47.368 75.909 47.816C76.0797 48.584 76.421 49.1387 76.933 49.48C77.445 49.8 78.1063 49.96 78.917 49.96C79.9837 49.96 80.7623 49.6827 81.253 49.128C81.7437 48.552 81.989 47.6347 81.989 46.376V45C81.989 43.6987 81.7437 42.76 81.253 42.184C80.7837 41.5867 80.005 41.288 78.917 41.288C77.829 41.288 77.0397 41.5867 76.549 42.184C76.0583 42.76 75.813 43.6987 75.813 45ZM87.3762 49.288C87.3762 49.1813 87.4936 49.096 87.7282 49.032C87.9629 48.9467 88.1976 48.904 88.4322 48.904H89.4563C89.8616 48.904 90.2563 48.8507 90.6403 48.744C91.0456 48.616 91.2483 48.3067 91.2483 47.816V41.32C91.2483 41.128 91.3123 40.968 91.4403 40.84C91.5683 40.712 91.7176 40.648 91.8883 40.648H94.6083C94.7789 40.648 94.9176 40.712 95.0243 40.84C95.1523 40.968 95.2163 41.128 95.2163 41.32V48.456C95.2803 48.584 95.3976 48.6907 95.5683 48.776C95.7389 48.84 95.9203 48.8933 96.1123 48.936C96.3043 48.9787 96.4963 49.0107 96.6883 49.032C96.9016 49.032 97.0829 49.032 97.2323 49.032H97.7123C97.9043 49.032 98.0963 49.0213 98.2883 49C98.5016 48.9787 98.6936 48.936 98.8643 48.872C99.0349 48.7867 99.1736 48.68 99.2803 48.552C99.3869 48.4027 99.4403 48.2107 99.4403 47.976V40.168C99.4403 39.9973 99.5043 39.8587 99.6323 39.752C99.7603 39.624 99.9096 39.56 100.08 39.56H102.768C102.939 39.56 103.088 39.624 103.216 39.752C103.344 39.8587 103.408 39.9973 103.408 40.168V48.456C103.536 48.712 103.824 48.872 104.272 48.936C104.72 49 105.158 49.032 105.584 49.032H106.32C106.832 49.032 107.174 48.9893 107.344 48.904C107.515 48.8187 107.6 48.52 107.6 48.008C107.6 47.4107 107.6 46.7493 107.6 46.024C107.6 45.2773 107.6 44.5093 107.6 43.72C107.6 42.9307 107.59 42.1307 107.568 41.32C107.568 40.5093 107.558 39.72 107.536 38.952C107.536 38.8027 107.59 38.664 107.696 38.536C107.803 38.408 107.952 38.344 108.144 38.344H110.864C111.099 38.344 111.27 38.408 111.376 38.536C111.483 38.6427 111.536 38.7813 111.536 38.952C111.558 39.656 111.568 40.3173 111.568 40.936C111.59 41.5547 111.6 42.1413 111.6 42.696C111.622 43.2507 111.632 43.8053 111.632 44.36C111.632 44.8933 111.632 45.448 111.632 46.024V47.816C111.632 48.4133 111.622 49.0533 111.6 49.736C111.6 50.4187 111.568 51.0587 111.504 51.656C111.462 51.848 111.398 52.0293 111.312 52.2C111.227 52.3493 111.056 52.4773 110.8 52.584C110.352 52.712 109.808 52.808 109.168 52.872C108.528 52.9147 107.835 52.936 107.088 52.936H106.672C105.926 52.936 105.115 52.8827 104.24 52.776C103.366 52.648 102.619 52.36 102 51.912C101.51 52.3173 100.912 52.6053 100.208 52.776C99.5256 52.9253 98.8109 53 98.0642 53H97.6483C96.8589 53 96.1229 52.9253 95.4403 52.776C94.7576 52.6267 94.1283 52.3387 93.5523 51.912C92.9976 52.3387 92.3256 52.6267 91.5363 52.776C90.7683 52.9253 90.0216 53 89.2963 53H88.4322C88.1976 53 87.9629 52.968 87.7282 52.904C87.4936 52.84 87.3762 52.744 87.3762 52.616V49.288Z" fill="white"/>
<defs>
<linearGradient id="paint0_linear_135_2839" x1="152.674" y1="10" x2="152.674" y2="80" gradientUnits="userSpaceOnUse">
<stop stop-color="white"/>
<stop offset="1" stop-color="#E2FAFF"/>
</linearGradient>
</defs>
</svg>
