<svg width="20" height="20" viewBox="0 0 20 20" fill="none" xmlns="http://www.w3.org/2000/svg">
<path d="M18.75 13.125C18.4186 13.1255 18.101 13.2574 17.8667 13.4917C17.6324 13.726 17.5005 14.0436 17.5 14.375V17.5H2.5V14.375C2.5 14.0435 2.3683 13.7255 2.13388 13.4911C1.89946 13.2567 1.58152 13.125 1.25 13.125C0.918479 13.125 0.600537 13.2567 0.366117 13.4911C0.131696 13.7255 0 14.0435 0 14.375L0 17.5C0.000661846 18.1628 0.264266 18.7983 0.732964 19.267C1.20166 19.7357 1.83716 19.9993 2.5 20H17.5C18.1628 19.9993 18.7983 19.7357 19.267 19.267C19.7357 18.7983 19.9993 18.1628 20 17.5V14.375C19.9995 14.0436 19.8676 13.726 19.6333 13.4917C19.399 13.2574 19.0814 13.1255 18.75 13.125Z" fill="white"/>
<path d="M4.99999 7.50006C5.1642 7.5005 5.32687 7.46836 5.47857 7.40549C5.63027 7.34262 5.76799 7.25028 5.88374 7.1338L8.74999 4.26755V14.3751C8.74999 14.7066 8.88169 15.0245 9.11611 15.2589C9.35053 15.4934 9.66847 15.6251 9.99999 15.6251C10.3315 15.6251 10.6495 15.4934 10.8839 15.2589C11.1183 15.0245 11.25 14.7066 11.25 14.3751V4.26755L14.1162 7.1338C14.2316 7.25319 14.3695 7.34842 14.522 7.41393C14.6745 7.47944 14.8385 7.51393 15.0045 7.51537C15.1705 7.51681 15.3351 7.48518 15.4887 7.42233C15.6423 7.35948 15.7819 7.26666 15.8992 7.1493C16.0166 7.03193 16.1094 6.89237 16.1723 6.73875C16.2351 6.58513 16.2667 6.42053 16.2653 6.25455C16.2639 6.08858 16.2294 5.92455 16.1639 5.77205C16.0984 5.61954 16.0031 5.48161 15.8837 5.36631L10.885 0.368179C10.7692 0.251155 10.6311 0.158686 10.4787 0.0963045C10.2503 0.00159559 9.99897 -0.0232439 9.75644 0.0249279C9.51391 0.0730997 9.29112 0.192119 9.11624 0.366929L4.11624 5.36631C3.94148 5.54112 3.82247 5.76382 3.77426 6.00627C3.72605 6.24871 3.75081 6.5 3.8454 6.72837C3.93998 6.95675 4.10016 7.15195 4.30567 7.28931C4.51118 7.42666 4.75281 7.5 4.99999 7.50006Z" fill="white"/>
</svg>
