<svg xmlns="http://www.w3.org/2000/svg" width="210" height="96" fill="none"><path fill="#BAF4FF" d="M180.844 87.17H44.318c-2.472 0-4.485-1.93-4.485-4.3V35.634c0-2.37 2.013-4.3 4.485-4.3h136.526c2.473 0 4.486 1.93 4.486 4.3v47.293c-.058 2.37-2.013 4.244-4.486 4.244Z" opacity=".24"/><path fill="url(#a)" d="M17.163 95.914h-4.767c-5.192 0-7.628-2.231-7.628-10.448V68.829c0-4.768-1.802-6.188-4.45-7H0v-4.565h.318c2.648-.71 4.45-2.232 4.45-6.898v-16.84c0-8.217 2.436-10.449 7.628-10.449h4.767v2.84H13.88c-3.496 0-5.191 1.218-5.191 7.71V50.57c0 4.666-1.484 7.405-4.874 8.622v.71c3.496 1.218 4.874 4.058 4.874 8.725v16.738c0 6.493 1.695 7.71 5.19 7.71h3.285v2.84Z"/><path fill="url(#b)" d="M133.339 26.652h-1.725v-1.046h1.208c1.265 0 1.898-.441 1.898-2.809v-6.112c0-1.707.517-2.753 1.782-3.194v-.275c-1.265-.44-1.782-1.432-1.782-3.194V3.855c0-2.368-.633-2.809-1.898-2.809h-1.208V0h1.725c1.898 0 2.761.826 2.761 3.855v6.167c0 1.707.69 2.258 1.61 2.533h.115v1.652h-.057c-.978.275-1.611.826-1.611 2.533v6.057c0 3.029-.92 3.855-2.818 3.855Z"/><path fill="#26D9FE" d="M36.899 9.307v2.258h-1.15v2.258H34.54v-2.258h1.15V9.307H36.9V7.05h1.207v2.257H36.9ZM42.708 9.307v2.258h-1.15v2.258H40.35v-2.258h1.15V9.307h1.208V7.05h1.207v2.257h-1.207Z"/><path fill="#D5F8FF" d="M70.83 40.034v-.44h.402v-1.212h-.402v-.44h.402v-.386h.46v2.038h.403v.44H70.83ZM70.83 44.492v-.44h.402v-.385h.403v-.441h.402V42.4h-.862v.386h-.46v-.44h.402v-.386h.863v.385h.403v.826h-.403v.385h-.403v.386h.863v.44h-1.61v.11ZM72.153 48.459v.385h-.863v-.385h-.402v-.44h.46v.385l.805.055v-.826h-.863v-.44h.863v-.386h-1.265v-.44h1.725v.825h-.403v.386h.403v.826h-.46v.055ZM72.555 52.918v.386h-.46v-.386H70.83v-.826h.402v-.385h.403v-.385h.402v-.386h.46v1.652h.403v.44h-.345v-.11Zm-.46-1.266h-.403v.386h-.402v.385h.862v-.771h-.057ZM72.153 57.323v.386h-1.265v-.44l1.265.054v-.826h-1.265v-1.211h1.725v.44h-1.265v.386h.862v.385h.403v.826h-.46ZM72.153 61.728v.386h-.863v-.386h-.402v-1.652h.402v-.385h.863v.44h-.863v.386h.863v.385h.402v.826h-.402Zm-.058-.826h-.862v.826h.862v-.826ZM72.153 64.924v.825h-.403v.827h-.46v-.771h.403v-.826l.46-.055v-.386h-1.265v-.44h1.725v.826h-.46ZM72.153 70.596v.385h-.863v-.385h-.402v-.827h.402v-.385h-.402v-.44h.402v-.386h.863v.385h.402v.441h-.402v.385h.402v.826h-.402Zm-.058-1.653h-.862v.386h.862v-.386Zm0 .826h-.862v.826h.862v-.826ZM72.153 74.999v.385h-.863v-.44l.863.055v-.385h-.863v-.386h-.402v-.826h.402v-.44h.863v.385h.402v1.652h-.402Zm-.058-1.652h-.862v.826h.862v-.826ZM68.932 79.845v-.44h.402v-1.212h-.402v-.44h.402v-.386h.46v2.038h.403v.44h-1.265ZM72.326 79.405v.385h-.863v-.385h-.402v-1.652h.402v-.386h.863v.386h.402v1.652h-.402Zm0-1.597h-.863v1.652h.863v-1.652ZM69.337 84.251v-.44h.402V82.6h-.402v-.44h.402v-.386h.46v2.038h.403v.44h-1.265ZM71.461 84.251v-.44h.403V82.6h-.403v-.44h.403v-.386h.46v2.038h.403v.44H71.46ZM68.932 88.657v-.44h.402v-1.212h-.402v-.44h.402v-.386h.46v2.038h.403v.44h-1.265ZM71.06 88.657v-.44h.403v-.386h.403v-.385h.402v-.826h-.862v.385h-.346v-.44h.403v-.386h.863v.385h.402v.827h-.402v.385h-.403v.386h.863v.44H71.06v.055ZM68.932 93.118v-.441h.402v-1.211h-.402v-.441h.402v-.385h.46v2.037h.403v.44h-1.265ZM72.326 92.676v.385h-.863v-.385h-.402v-.44h.46v.385l.805.055v-.826h-.863v-.44h.863v-.386H71.06v-.44h1.725v.825h-.403v.386h.403v.826h-.46v.055ZM79.454 41.466v1.487h-.805v1.487h-.805v-1.487h.805v-1.487h.805v-1.542h.805v1.542h-.805ZM83.366 41.466v1.487h-.805v1.487h-.805v-1.487h.805v-1.487h.805v-1.542h.805v1.542h-.805ZM131.788 40.694h-30.767v3.028h30.767v-3.028ZM87.738 40.86v-.385h.403v.385h-.403Zm0 2.313v-1.927h.403v1.927h-.403ZM90.556 43.174v-1.542h-.403v1.542h-.402v-1.542h-.403v1.542h-.402v-1.928h.805v.386h.402v-.386h.403v.386h.403v1.542h-.403ZM92.971 42.788v.386h-.805v.77h-.402v-2.698h1.207v.386h.403v1.156h-.403Zm0-1.156h-.805v1.156h.805v-1.156ZM95.386 42.788v.386h-.805v-.386h-.403v-1.156h.403v-.386h.805v.386h.403v1.156h-.403Zm0-1.156h-.805v1.156h.805v-1.156ZM96.996 41.632v1.542h-.402v-1.928h1.208v.386h-.806Z"/><path fill="#D5F8FF" d="M98.606 43.172v-.386h-.402V41.63h-.403v-.386h.403v-.385h.402v.386h.403v.385h-.403v1.156h.403v.386h-.403ZM96.536 50.882h-9.777v2.368h9.777v-2.368ZM119.655 50.882H98.089v2.368h21.566v-2.368ZM76.407 51.047v-.33h.347v.33h-.347Zm0 1.817v-1.486h.347v1.486h-.347ZM78.594 52.865v-1.212h-.288v1.212h-.345v-1.212h-.287v1.212h-.345v-1.487h.632v.275h.288v-.275h.345v.275h.287v1.212h-.287ZM80.49 52.534v.276h-.632v.605h-.345v-2.092h.977v.275h.288v.936h-.288Zm0-.88h-.632v.88h.632v-.88ZM82.39 52.534v.276h-.633v-.276h-.344v-.936h.287v-.275h.632v.275h.288v.936h-.23Zm0-.88h-.633v.88h.633v-.88ZM83.653 51.653v1.212h-.345v-1.487h.977v.33h-.632v-.055ZM84.863 52.864v-.275h-.287v-.881h-.288v-.33h.288v-.276h.345v.275h.287v.33h-.287v.882h.287v.33h-.345v-.055ZM96.536 55.617h-9.777v2.367h9.777v-2.367ZM76.407 55.728v-.33h.347v.33h-.347Zm0 1.817v-1.487h.347v1.487h-.347ZM78.594 57.545v-1.211h-.288v1.211h-.345v-1.211h-.287v1.211h-.345V56.06h.632v.275h.288v-.275h.345v.275h.287v1.211h-.287ZM80.49 57.27v.275h-.632v.606h-.345V56.06h.977v.275h.288v.936h-.288Zm0-.936h-.632v.88h.632v-.88ZM82.39 57.27v.275h-.633v-.275h-.344v-.936h.287v-.275h.632v.275h.288v.936h-.23Zm0-.936h-.633v.88h.633v-.88ZM83.653 56.334v1.211h-.345V56.06h.977v.33h-.632v-.055ZM84.863 57.545v-.275h-.287v-.88h-.288v-.331h.288v-.276h.345v.276h.287v.33h-.287v.881h.287v.33h-.345v-.055ZM91.474 63.932h-12.48v3.029h12.48v-3.029ZM114.076 63.932h-20.76v3.029h20.76v-3.029ZM91.474 85.903h-12.48v3.028h12.48v-3.028ZM102.229 74.01h-12.48v2.092h12.48V74.01ZM102.229 70.045h-12.48v2.092h12.48v-2.092ZM102.229 77.974h-12.48v2.092h12.48v-2.092ZM102.229 81.938h-12.48v2.092h12.48v-2.093Z"/><path fill="#D5F8FF" fill-rule="evenodd" d="M86.543 85.077V69.438h.321v15.639h-.322Z" clip-rule="evenodd"/><path fill="#D5F8FF" d="M63.986 42.291h-7.073v1.707h7.073v-1.707ZM63.986 47.412h-7.073v1.707h7.073v-1.707ZM63.986 52.479h-7.073v1.707h7.073V52.48ZM63.986 57.6h-7.073v1.707h7.073v-1.706ZM63.986 62.665h-7.073v1.706h7.073v-1.706ZM63.18 68.283h-4.314v1.156h4.313v-1.156ZM63.18 66.08h-4.314v1.156h4.313V66.08ZM63.18 70.54h-4.314v1.156h4.313V70.54ZM63.18 72.797h-4.314v1.157h4.313v-1.157Z"/><path fill="#D5F8FF" fill-rule="evenodd" d="M54.59 42.288a.186.186 0 0 1 .255-.018l1.027.852-1.032.791a.187.187 0 0 1-.254-.027.169.169 0 0 1 .028-.244l.693-.53-.699-.58a.168.168 0 0 1-.018-.244ZM51.164 37.86a.187.187 0 0 1 .254.028l.554.663.606-.669a.186.186 0 0 1 .255-.017.168.168 0 0 1 .018.245l-.89.983-.825-.989a.168.168 0 0 1 .028-.243ZM54.59 47.465a.186.186 0 0 1 .255-.018l1.027.852-1.032.791a.186.186 0 0 1-.254-.027.168.168 0 0 1 .028-.244l.693-.53-.699-.58a.168.168 0 0 1-.018-.244ZM54.59 52.585a.186.186 0 0 1 .255-.017l1.027.852-1.032.79a.187.187 0 0 1-.254-.026.168.168 0 0 1 .028-.244l.693-.53-.699-.58a.168.168 0 0 1-.018-.245ZM54.59 57.706a.186.186 0 0 1 .255-.017l1.027.852-1.032.79a.187.187 0 0 1-.254-.026.168.168 0 0 1 .028-.244l.693-.53-.699-.58a.168.168 0 0 1-.018-.245ZM54.327 63.082a.186.186 0 0 1 .254.026l.555.664.605-.669a.186.186 0 0 1 .255-.017.168.168 0 0 1 .019.244l-.89.983-.826-.988a.168.168 0 0 1 .028-.243Z" clip-rule="evenodd"/><path fill="#D5F8FF" d="M63.987 37.556h-10.18v1.707h10.18v-1.707Z"/><path fill="#D5F8FF" fill-rule="evenodd" d="M57.052 74.559v-8.866h.181v8.866h-.181Z" clip-rule="evenodd"/><path fill="#D5F8FF" d="M47.71 37.06h-3.795v3.634h3.796V37.06ZM47.71 43.337h-3.795v3.635h3.796v-3.635ZM47.71 49.56h-3.795v3.633h3.796V49.56ZM47.71 55.837h-3.795v3.634h3.796v-3.634ZM47.71 62.059h-3.795v3.634h3.796v-3.634Z"/><path fill="#19B1E9" fill-rule="evenodd" d="M43.193 44.548c0-.626.53-1.133 1.184-1.133.654 0 1.184.507 1.184 1.133 0 .627-.53 1.134-1.184 1.134-.276 0-.53-.09-.73-.24a.184.184 0 0 0-.053-.09.199.199 0 0 0-.104-.052 1.103 1.103 0 0 1-.297-.752Zm-.036.957a1.463 1.463 0 0 1-.357-.957c0-.833.706-1.509 1.577-1.509.87 0 1.576.676 1.576 1.51 0 .833-.706 1.509-1.576 1.509-.35 0-.674-.11-.935-.294l-1.228 1.175a.202.202 0 0 1-.277 0 .182.182 0 0 1 0-.266l1.22-1.168ZM42.225 57.19a.178.178 0 0 0-.05.133v.605c0 .062.02.105.05.134.03.028.075.048.139.048h.633a.182.182 0 0 0 .134-.065.194.194 0 0 0 .055-.117v-.605a.178.178 0 0 0-.05-.133.196.196 0 0 0-.14-.049h-.632c-.064 0-.11.02-.14.049Zm-.139-.133a.393.393 0 0 1 .278-.103h.633c.108 0 .206.035.277.103a.36.36 0 0 1 .108.266v.605c0 .083-.04.173-.103.241a.382.382 0 0 1-.283.129h-.632a.395.395 0 0 1-.278-.104.36.36 0 0 1-.108-.266v-.605a.36.36 0 0 1 .108-.266ZM44.293 56.86a.178.178 0 0 0-.05.134v.55c0 .062.02.105.05.134.03.028.075.048.139.048h.632a.25.25 0 0 0 .129-.05c.049-.035.061-.066.061-.077v-.605a.178.178 0 0 0-.05-.133.196.196 0 0 0-.14-.049h-.632c-.064 0-.11.02-.14.049Zm-.139-.132a.395.395 0 0 1 .278-.104h.632c.109 0 .207.036.278.104a.362.362 0 0 1 .108.266v.605c0 .1-.074.18-.14.227a.447.447 0 0 1-.246.088h-.632a.394.394 0 0 1-.278-.104.36.36 0 0 1-.108-.266v-.55a.36.36 0 0 1 .108-.266ZM42.225 58.731a.178.178 0 0 0-.05.134v.605c0 .062.02.105.05.133.03.029.075.049.139.049h.633c.063 0 .11-.02.139-.049a.178.178 0 0 0 .05-.133v-.605a.178.178 0 0 0-.05-.134.196.196 0 0 0-.14-.048h-.632c-.064 0-.11.02-.14.048Zm-.139-.132a.393.393 0 0 1 .278-.103h.633c.108 0 .206.035.277.103a.36.36 0 0 1 .108.266v.605a.36.36 0 0 1-.108.267.396.396 0 0 1-.278.103h-.632a.395.395 0 0 1-.278-.104.36.36 0 0 1-.108-.266v-.605a.36.36 0 0 1 .108-.266ZM43.834 58.731a.178.178 0 0 0-.051.134v.605c0 .062.021.105.05.133.03.029.076.049.14.049h.632c.064 0 .11-.02.14-.049a.178.178 0 0 0 .05-.133v-.605a.178.178 0 0 0-.05-.134.195.195 0 0 0-.14-.048h-.632c-.064 0-.11.02-.14.048Zm-.14-.132a.395.395 0 0 1 .279-.103h.632c.109 0 .207.035.278.103a.36.36 0 0 1 .108.266v.605a.362.362 0 0 1-.108.267.396.396 0 0 1-.278.103h-.632a.396.396 0 0 1-.278-.104.361.361 0 0 1-.108-.266v-.605a.36.36 0 0 1 .108-.266Z" clip-rule="evenodd"/><path fill="url(#c)" d="M175.379 80.175V75.44h-4.946v-4.68h-4.945v-4.736h-4.946v-4.791h4.946v-4.736h4.945v-4.736h4.946v-4.68h5.061v4.846h-4.946v4.735h-4.946v4.681h-4.945v4.626h4.945v4.735h4.946v4.736h4.946v4.79h-5.061v-.055Z"/><path fill="url(#d)" d="M205.054 66.079v4.735h-4.946v4.736h-4.945v4.736h-5.004v-4.791h4.946v-4.736h4.946v-4.735h4.945v-4.626h-4.945v-4.736h-4.946v-4.735h-4.946V47.08h5.004v4.736h4.945v4.735h4.946v4.736H210v4.79h-4.946Z"/><defs><linearGradient id="a" x1="8.582" x2="8.582" y1="97.735" y2="14.269" gradientUnits="userSpaceOnUse"><stop stop-color="#AC06D9"/><stop offset=".5" stop-color="#0067C4"/><stop offset=".577" stop-color="#0370C9"/><stop offset=".703" stop-color="#0B89D5"/><stop offset=".861" stop-color="#19B1E9"/><stop offset="1" stop-color="#26D9FE"/></linearGradient><linearGradient id="b" x1="134.72" x2="134.72" y1="27.318" y2="-3.223" gradientUnits="userSpaceOnUse"><stop stop-color="#AC06D9"/><stop offset=".5" stop-color="#0067C4"/><stop offset=".577" stop-color="#0370C9"/><stop offset=".703" stop-color="#0B89D5"/><stop offset=".861" stop-color="#19B1E9"/><stop offset="1" stop-color="#26D9FE"/></linearGradient><linearGradient id="c" x1="170.491" x2="170.491" y1="81.059" y2="43.072" gradientUnits="userSpaceOnUse"><stop stop-color="#AC06D9"/><stop offset=".5" stop-color="#0067C4"/><stop offset=".577" stop-color="#0370C9"/><stop offset=".703" stop-color="#0B89D5"/><stop offset=".861" stop-color="#19B1E9"/><stop offset="1" stop-color="#26D9FE"/></linearGradient><linearGradient id="d" x1="200.08" x2="200.08" y1="81.116" y2="43.066" gradientUnits="userSpaceOnUse"><stop stop-color="#AC06D9"/><stop offset=".5" stop-color="#0067C4"/><stop offset=".577" stop-color="#0370C9"/><stop offset=".703" stop-color="#0B89D5"/><stop offset=".861" stop-color="#19B1E9"/><stop offset="1" stop-color="#26D9FE"/></linearGradient></defs></svg>